<svg id="Capa_1" data-name="Capa 1" xmlns="http://www.w3.org/2000/svg" xmlns:xlink="http://www.w3.org/1999/xlink" viewBox="0 0 200 100"><defs><style>.cls-1{fill:#dae3ea;}.cls-10,.cls-11,.cls-12,.cls-2,.cls-7,.cls-8,.cls-9{opacity:0.2;}.cls-2{fill:url(#Degradado_sin_nombre_30);}.cls-3,.cls-4,.cls-5,.cls-6{opacity:0.1;}.cls-3{fill:url(#Degradado_sin_nombre_30-2);}.cls-4{fill:url(#Degradado_sin_nombre_30-3);}.cls-5{fill:url(#Degradado_sin_nombre_30-4);}.cls-6{fill:url(#Degradado_sin_nombre_30-5);}.cls-7{fill:url(#Degradado_sin_nombre_22);}.cls-8{fill:url(#Degradado_sin_nombre_23);}.cls-9{fill:url(#Degradado_sin_nombre_22-2);}.cls-10{fill:url(#Degradado_sin_nombre_41);}.cls-11{fill:url(#Degradado_sin_nombre_40);}.cls-12{fill:url(#Degradado_sin_nombre_23-2);}.cls-13{fill:url(#Degradado_sin_nombre_55);}.cls-14{fill:url(#Degradado_sin_nombre_55-2);}.cls-15{fill:url(#Degradado_sin_nombre_55-3);}.cls-16,.cls-24{fill:none;stroke-linecap:round;stroke-linejoin:round;stroke-width:0.24px;}.cls-16{stroke:#ffff32;}.cls-17{fill:url(#Degradado_sin_nombre_33);}.cls-18{fill:url(#Degradado_sin_nombre_33-2);}.cls-19{fill:url(#Degradado_sin_nombre_33-3);}.cls-20{fill:url(#Degradado_sin_nombre_33-4);}.cls-21{fill:url(#Degradado_sin_nombre_33-5);}.cls-22{fill:url(#Degradado_sin_nombre_33-6);}.cls-23{opacity:0.5;}.cls-24{stroke:#dbe4eb;}</style><radialGradient id="Degradado_sin_nombre_30" cx="38.62" cy="50.77" r="38" gradientUnits="userSpaceOnUse"><stop offset="0" stop-color="#ffff32"/><stop offset="0.53" stop-color="#ccb307" stop-opacity="0"/></radialGradient><radialGradient id="Degradado_sin_nombre_30-2" cx="33.68" cy="28.27" r="25.07" xlink:href="#Degradado_sin_nombre_30"/><radialGradient id="Degradado_sin_nombre_30-3" cx="41.76" cy="73.61" r="25.07" xlink:href="#Degradado_sin_nombre_30"/><radialGradient id="Degradado_sin_nombre_30-4" cx="50.25" cy="45.29" r="25.07" xlink:href="#Degradado_sin_nombre_30"/><radialGradient id="Degradado_sin_nombre_30-5" cx="27.21" cy="54.36" r="25.07" xlink:href="#Degradado_sin_nombre_30"/><radialGradient id="Degradado_sin_nombre_22" cx="-296.63" cy="653.38" r="37.86" gradientTransform="translate(541.29 -210.46) scale(1.72 0.36)" gradientUnits="userSpaceOnUse"><stop offset="0" stop-color="#ffff32"/><stop offset="0.4" stop-color="#ccb307" stop-opacity="0"/></radialGradient><radialGradient id="Degradado_sin_nombre_23" cx="118.66" cy="316.5" fx="107.17446947217095" r="38.3" gradientTransform="matrix(0.4, -1.68, 0.26, 0.06, -93.25, 207.6)" gradientUnits="userSpaceOnUse"><stop offset="0" stop-color="#ffff32"/><stop offset="0.51" stop-color="#ccb307" stop-opacity="0"/></radialGradient><radialGradient id="Degradado_sin_nombre_22-2" cx="93.6" cy="380.39" r="37.86" gradientTransform="translate(-109.88 -66.88) scale(1.72 0.35)" xlink:href="#Degradado_sin_nombre_22"/><radialGradient id="Degradado_sin_nombre_41" cx="-175.9" cy="1312.5" r="21.37" gradientTransform="matrix(2.18, -0.66, 0.14, 0.48, 243.42, -702.65)" gradientUnits="userSpaceOnUse"><stop offset="0" stop-color="#ffff32"/><stop offset="0.34" stop-color="#ccb307" stop-opacity="0"/></radialGradient><radialGradient id="Degradado_sin_nombre_40" cx="-108.65" cy="-75.51" fx="-115.11938664580123" r="21.37" gradientTransform="matrix(-2.11, 0.64, -0.14, -0.48, -208.64, 88.04)" xlink:href="#Degradado_sin_nombre_41"/><radialGradient id="Degradado_sin_nombre_23-2" cx="-271.62" cy="670.83" fx="-283.11222203301395" r="38.3" gradientTransform="matrix(-0.46, 1.66, -0.27, -0.07, 95.22, 572.7)" xlink:href="#Degradado_sin_nombre_23"/><linearGradient id="Degradado_sin_nombre_55" x1="39.11" y1="52.58" x2="37.36" y2="47.27" gradientUnits="userSpaceOnUse"><stop offset="0.11" stop-color="#e5ce32"/><stop offset="0.27" stop-color="#ffff32"/><stop offset="0.54" stop-color="#ffff32"/><stop offset="0.7" stop-color="#ffff9c"/><stop offset="0.87" stop-color="#ffff32"/></linearGradient><linearGradient id="Degradado_sin_nombre_55-2" x1="40.06" y1="69.36" x2="45.85" y2="70.86" xlink:href="#Degradado_sin_nombre_55"/><linearGradient id="Degradado_sin_nombre_55-3" x1="31.48" y1="30.79" x2="35.1" y2="31.77" xlink:href="#Degradado_sin_nombre_55"/><linearGradient id="Degradado_sin_nombre_33" x1="37.61" y1="75.65" x2="37.7" y2="71.31" gradientUnits="userSpaceOnUse"><stop offset="0.07" stop-color="#a7b0b8"/><stop offset="0.26" stop-color="#dbe4eb"/><stop offset="0.77" stop-color="#fff"/><stop offset="0.91" stop-color="#dbe4eb"/></linearGradient><linearGradient id="Degradado_sin_nombre_33-2" x1="20.71" y1="69.19" x2="23.11" y2="69.73" xlink:href="#Degradado_sin_nombre_33"/><linearGradient id="Degradado_sin_nombre_33-3" x1="38.21" y1="30.87" x2="38.25" y2="26.87" xlink:href="#Degradado_sin_nombre_33"/><linearGradient id="Degradado_sin_nombre_33-4" x1="52.12" y1="32.09" x2="55.75" y2="32.73" xlink:href="#Degradado_sin_nombre_33"/><linearGradient id="Degradado_sin_nombre_33-5" x1="30.85" y1="35.21" x2="26.35" y2="38.04" xlink:href="#Degradado_sin_nombre_33"/><linearGradient id="Degradado_sin_nombre_33-6" x1="48.44" y1="63.58" x2="43.87" y2="66.45" xlink:href="#Degradado_sin_nombre_33"/></defs><title>ssi_protocol_svgWEB_isoLogo</title><path class="cls-1" d="M61.9,47.82a2.32,2.32,0,0,0,2.32,2.32h4.2a3.61,3.61,0,0,1,0,7.22h-4.2a3.61,3.61,0,0,1-3.6-3.61H61.9a2.32,2.32,0,0,0,2.32,2.33h4.2a2.33,2.33,0,1,0,0-4.65h-4.2a3.61,3.61,0,0,1,0-7.22h4.2A3.61,3.61,0,0,1,72,47.82H70.75a2.33,2.33,0,0,0-2.33-2.33h-4.2A2.32,2.32,0,0,0,61.9,47.82Z"/><path class="cls-1" d="M75,47.82a2.32,2.32,0,0,0,2.33,2.32h4.19a3.61,3.61,0,0,1,0,7.22H77.37a3.61,3.61,0,0,1-3.61-3.61H75a2.33,2.33,0,0,0,2.33,2.33h4.19a2.33,2.33,0,1,0,0-4.65H77.37a3.61,3.61,0,0,1,0-7.22h4.19a3.61,3.61,0,0,1,3.61,3.61H83.89a2.33,2.33,0,0,0-2.33-2.33H77.37A2.33,2.33,0,0,0,75,47.82Z"/><path class="cls-1" d="M87.2,57.36V44.21h1.28V57.36Z"/><path class="cls-1" d="M103,51.43H96.5v5.93H95.22V44.21H103a3.61,3.61,0,1,1,0,7.22Zm2.33-3.61A2.33,2.33,0,0,0,103,45.49H96.5v4.66H103A2.34,2.34,0,0,0,105.36,47.82Z"/><path class="cls-1" d="M115.85,51.43h-.71l5.07,5.93h-1.69l-5.06-5.93h-4.13v5.93H108V44.21h7.81a3.61,3.61,0,1,1,0,7.22Zm-6.52-1.29h6.52a2.33,2.33,0,1,0,0-4.65h-6.52Z"/><path class="cls-1" d="M127.65,57.36a6.58,6.58,0,1,1,6.58-6.57A6.58,6.58,0,0,1,127.65,57.36Zm5.3-6.57a5.3,5.3,0,1,0-5.3,5.29A5.31,5.31,0,0,0,133,50.79Z"/><path class="cls-1" d="M139.52,45.49h-5.07V44.21h11.42v1.28H140.8V57.36h-1.28Z"/><path class="cls-1" d="M152.69,57.36a6.58,6.58,0,1,1,6.58-6.57A6.58,6.58,0,0,1,152.69,57.36Zm5.3-6.57a5.3,5.3,0,1,0-5.3,5.29A5.31,5.31,0,0,0,158,50.79Z"/><path class="cls-1" d="M171.88,55.44a6.58,6.58,0,1,1,0-9.3l-.9.9a5.3,5.3,0,0,0-9,3.75,5.26,5.26,0,0,0,1.55,3.74,5.31,5.31,0,0,0,7.49,0Z"/><path class="cls-1" d="M179.32,57.36a6.58,6.58,0,1,1,6.57-6.57A6.58,6.58,0,0,1,179.32,57.36Zm5.29-6.57a5.3,5.3,0,1,0-5.29,5.29A5.3,5.3,0,0,0,184.61,50.79Z"/><path class="cls-1" d="M199.15,57.36H187.73V44.21H189V56.08h10.14Z"/><circle class="cls-2" cx="38.62" cy="50.77" r="38"/><circle class="cls-3" cx="33.68" cy="28.27" r="25.07"/><circle class="cls-4" cx="41.76" cy="73.61" r="25.07"/><circle class="cls-5" cx="50.25" cy="45.29" r="25.07"/><circle class="cls-6" cx="27.21" cy="54.36" r="25.07"/><rect class="cls-7" x="-0.15" y="21.44" width="54.72" height="13.46" transform="translate(60.89 8.16) rotate(103.29)"/><polygon class="cls-8" points="49.13 6.58 37.02 48.31 26.78 55.92 39.5 4.3 49.13 6.58"/><rect class="cls-9" x="21.28" y="64.96" width="54.72" height="13.21" transform="matrix(0.27, -0.96, 0.96, 0.27, -33.34, 99.22)"/><polygon class="cls-10" points="28.59 44.3 68.14 30.02 70.47 37.66 23.66 55.21 28.59 44.3"/><polygon class="cls-11" points="45.8 55.9 7.55 69.77 5.22 62.14 50.47 45.06 45.8 55.9"/><polygon class="cls-12" points="25.81 92.15 39.68 50.96 50.65 43.88 35.87 94.95 25.81 92.15"/><polygon class="cls-13" points="23.39 58.36 44.83 49.97 47.37 49.65 53.38 42.41 30.17 49.39 24.62 55.57 23.39 58.36"/><polyline class="cls-14" points="44.83 49.97 35.07 98.47 53.38 42.41"/><polyline class="cls-15" points="23.39 58.36 39.78 3.29 30.89 49.15"/><polygon class="cls-16" points="53.38 42.41 30.86 49.18 30.89 49.15 39.78 3.29 23.39 58.36 44.83 49.97 35.07 98.47 53.38 42.41"/><polygon class="cls-17" points="18.34 76.11 56.86 76.11 56.31 75.41 47.74 71.02 23.39 71.02 18.79 74.63 18.34 76.11"/><polygon class="cls-18" points="23.39 71.02 22.52 62.14 18.34 76.11 23.39 71.02"/><polygon class="cls-19" points="57.47 26.3 19.03 26.3 20.23 27.33 27.46 31.45 52.62 31.45 57.02 27.3 57.47 26.3"/><polygon class="cls-20" points="51.77 31.45 53.78 39.12 57.47 26.3 51.77 31.45"/><polyline class="cls-21" points="38.73 46.6 29.36 31.45 19.03 26.3 32.7 48.41"/><polyline class="cls-22" points="35.72 53.74 46.58 71.02 56.86 76.11 41.68 51.41"/><g class="cls-23"><polyline class="cls-24" points="29.36 31.45 51.77 31.45 53.78 39.12 57.47 26.3 19.03 26.3 32.7 48.41 38.73 46.6"/><polyline class="cls-24" points="23.39 71.02 22.52 62.14 18.34 76.11 56.86 76.11 41.68 51.41 35.72 53.74 46.58 71.02"/></g></svg>