<svg width="71" height="71" viewBox="0 0 71 71" fill="none" xmlns="http://www.w3.org/2000/svg">
<path d="M46.776 17.5219L43.3979 23.6701C46.8863 26.1405 48.9703 29.4579 49.6085 33.7583C54.4009 33.646 59.1835 33.3899 63.9424 33.2599C65.2897 31.0831 66.6548 30.3778 68.4393 30.9097C69.1905 31.132 69.8479 31.595 70.3104 32.2273C70.7729 32.8597 71.015 33.6264 70.9993 34.4097C70.9836 35.1931 70.7111 35.9495 70.2237 36.5629C69.7363 37.1762 69.0609 37.6125 68.3015 37.8046C66.9226 38.1139 65.2168 37.8361 64.0744 35.6494L49.707 36.1912C49.4687 39.3943 48.3991 42.1956 46.455 44.5635L53.7923 51.9134C56.5499 49.8647 59.6877 49.1693 63.1092 50.0557C65.5963 50.6841 67.757 52.223 69.1642 54.368C70.6003 56.4863 71.2259 59.0508 70.9265 61.5926C70.6272 64.1343 69.423 66.4833 67.5342 68.21C65.6453 69.9367 63.1981 70.9256 60.64 70.996C58.0819 71.0663 55.584 70.2133 53.6032 68.593C49.6735 65.4056 47.9933 59.1116 51.8659 53.8184L44.5522 46.5078C40.3369 49.7898 35.5445 50.5955 30.2558 48.7359L26.7319 55.7686C28.7351 57.4037 29.7574 59.4879 29.5959 62.0823C29.5011 63.6701 28.8578 65.1756 27.7758 66.3414C26.6601 67.5723 25.1507 68.3763 23.5067 68.6152C21.8628 68.8542 20.1869 68.5132 18.767 67.6508C17.3471 66.7885 16.2717 65.4586 15.7256 63.8896C15.1794 62.3205 15.1966 60.6103 15.7742 59.0525C17.0919 55.5499 20.3696 53.905 24.5415 54.6576C24.5929 54.6104 24.6379 54.5568 24.6754 54.498C25.81 52.2365 26.9407 49.9671 28.1107 47.6347C25.3739 45.9399 23.2816 43.3794 22.166 40.3596L9.55959 43.7519C9.49262 45.2451 8.96867 46.5098 7.81833 47.4495C7.30525 47.8751 6.70772 48.1871 6.06521 48.3648C5.42269 48.5425 4.74979 48.5819 4.09094 48.4803C3.43209 48.3787 2.80227 48.1386 2.24306 47.7757C1.68385 47.4127 1.20798 46.9353 0.846856 46.3749C0.485732 45.8145 0.247572 45.1839 0.1481 44.5246C0.048628 43.8654 0.0901061 43.1925 0.269796 42.5505C0.449485 41.9085 0.763299 41.3119 1.19052 40.8001C1.61774 40.2883 2.14865 39.873 2.7482 39.5815C4.62537 38.6615 7.19983 38.9472 8.92533 41.4234L21.5101 38.0351C21.2048 35.9154 21.2343 33.8666 21.7839 31.8455C22.3153 29.8712 23.2652 28.0343 24.5691 26.4596L17.2278 19.1255C14.484 21.1663 11.3324 21.8696 7.91485 20.9851C5.4033 20.3478 3.22347 18.7887 1.80863 16.6177C0.37555 14.4821 -0.237296 11.9004 0.0830618 9.34848C0.40342 6.79657 1.63539 4.4465 3.55186 2.73148C7.60363 -0.881419 13.5661 -0.916878 17.7144 2.6645C21.5652 5.98388 22.8633 12.2089 19.1168 17.2638C19.3768 17.7189 25.5599 23.9617 26.3872 24.598C30.9176 21.1013 35.8676 20.3921 41.2883 22.502L44.6369 16.4069C41.7551 13.5919 42.2574 9.99274 44.0184 7.94596C44.7188 7.1323 45.6261 6.52314 46.6443 6.18295C47.6625 5.84276 48.7537 5.78419 49.8025 6.01343C50.8513 6.24268 51.8186 6.75122 52.602 7.48524C53.3855 8.21925 53.9559 9.15143 54.253 10.1831C54.5501 11.2148 54.5628 12.3077 54.2898 13.346C54.0167 14.3843 53.4681 15.3295 52.7019 16.0815C51.9357 16.8336 50.9805 17.3644 49.9373 17.618C48.8942 17.8715 47.8019 17.8384 46.776 17.5219ZM11.3816 10.6901C13.3651 9.96713 14.484 8.4089 14.1885 6.70094C13.8418 4.62067 12.2188 3.61993 10.6843 3.62584C9.00609 3.62584 7.5012 4.78221 7.19195 6.7167C6.92013 8.4148 8.0094 9.95334 10.0422 10.698C8.59244 10.9442 7.32983 11.5451 6.34693 12.6364C5.36147 13.7029 4.81549 15.1025 4.8184 16.5547H16.5758C16.5649 15.3549 16.1891 14.1868 15.4984 13.2057C14.4958 11.7933 13.0933 11.0132 11.3816 10.6901ZM66.2214 66.2015C66.198 64.7465 65.6463 63.3497 64.6692 62.2714C63.6844 61.1781 62.4099 60.6147 60.8164 60.331C62.9477 59.6612 64.0882 58.0971 63.836 56.4069C63.5307 54.3896 62.0199 53.2924 60.3791 53.2707C59.534 53.257 58.7121 53.548 58.0639 54.0907C57.4157 54.6333 56.9846 55.3912 56.8493 56.2256C56.5361 57.9986 57.5466 59.5135 59.7429 60.333C56.4889 60.9929 54.72 62.9058 54.4049 66.2015H66.2214ZM28.4692 43.7223C29.8047 43.8701 42.0605 43.8129 42.5746 43.6652C42.5371 41.8144 41.7737 40.0526 40.449 38.7596C39.1244 37.4667 37.3447 36.7463 35.4938 36.7538C33.6428 36.7613 31.869 37.4961 30.5549 38.7997C29.2408 40.1033 28.4917 41.8713 28.4692 43.7223ZM35.5327 26.0656C32.8302 26.1444 30.8053 28.1735 30.8171 30.827C30.8477 32.0576 31.3596 33.2271 32.2429 34.0844C33.1261 34.9417 34.3103 35.4185 35.5411 35.4123C36.7719 35.4061 37.9512 34.9175 38.8258 34.0513C39.7004 33.1852 40.2005 32.0105 40.2187 30.7797C40.205 28.0927 38.1446 26.1543 35.5248 26.0656H35.5327Z" fill="white"/>
</svg>
