<svg width="55" height="47" viewBox="0 0 55 47" fill="none" xmlns="http://www.w3.org/2000/svg">
<path d="M38.7338 46.9997C39.855 46.9997 40.7724 46.0823 40.7724 44.9611V40.8838C40.7724 39.7626 39.855 38.8452 38.7338 38.8452H2.03862C0.917381 38.8452 0 39.7626 0 40.8838V44.9611C0 46.0823 0.917381 46.9997 2.03862 46.9997H38.7338Z" fill="white"/>
<path d="M33.5268 25.987L33.0073 30.6469C32.9232 31.4261 33.5802 32.0831 34.3519 31.9914L39.0044 31.472L49.5395 20.9375L44.0619 15.4601L33.5268 25.987ZM54.4671 13.4281L51.5717 10.5328C50.8612 9.82239 49.7 9.82239 48.9895 10.5328L46.1017 13.4205L45.7885 13.7337L51.2737 19.211L54.4671 16.0178C55.1776 15.2997 55.1776 14.1462 54.4671 13.4281Z" fill="white"/>
<path d="M14.5 16.5C19.0766 16.5 22.7857 12.8068 22.7857 8.25C22.7857 3.69316 19.0766 0 14.5 0C9.92344 0 6.21429 3.69316 6.21429 8.25C6.21429 12.8068 9.92344 16.5 14.5 16.5ZM20.3 18.5625H19.219C17.7819 19.2199 16.183 19.5938 14.5 19.5938C12.817 19.5938 11.2246 19.2199 9.78103 18.5625H8.7C3.89687 18.5625 0 22.4426 0 27.225V29.9062C0 31.6143 1.39174 33 3.10714 33H25.8929C27.6083 33 29 31.6143 29 29.9062V27.225C29 22.4426 25.1031 18.5625 20.3 18.5625Z" fill="white"/>
</svg>
