<svg width="41" height="40" viewBox="0 0 41 40" fill="none" xmlns="http://www.w3.org/2000/svg">
<path fill-rule="evenodd" clip-rule="evenodd" d="M5.91552 6.28012H8.49885V31.4801H34.7488V34.0801H8.49885C6.52802 34.0801 5.91552 33.4601 5.91552 31.4801L5.93343 15.2801H5.91552V6.28012ZM14.7439 0H37.4106C39.3814 0 40.9939 1.62 40.9939 3.6V25.2C40.9939 27.18 39.3814 28.8 37.4106 28.8H14.7439C12.7731 28.8 11.1606 27.18 11.1606 25.2L11.1785 3.6C11.1785 1.62 12.7731 0 14.7439 0ZM3.51693 11.2801H0.933594V21.2801H0.95151L0.933594 36.4801C0.933594 38.4601 1.54609 39.0801 3.51693 39.0801H29.7669V36.4801H3.51693V11.2801ZM34.7245 8.52632V10.7368C36.5354 10.7368 37.9972 12.2179 37.9972 14.0526C37.9972 15.8874 36.5354 17.3684 34.7245 17.3684V21.7895C34.7245 23.0053 33.7427 24 32.5427 24H19.4518C18.2518 24 17.2699 23.0053 17.2699 21.7895V17.3684C15.459 17.3684 13.9972 15.8874 13.9972 14.0526C13.9972 12.2179 15.459 10.7368 17.2699 10.7368V8.52632C17.2699 7.31053 18.2518 6.31579 19.4518 6.31579H22.7245C22.7245 4.48105 24.1863 3 25.9972 3C27.8081 3 29.2699 4.48105 29.2699 6.31579H32.5427C33.7427 6.31579 34.7245 7.31053 34.7245 8.52632ZM22.7245 11.8421C21.819 11.8421 21.0881 12.5826 21.0881 13.5C21.0881 14.4174 21.819 15.1579 22.7245 15.1579C23.6299 15.1579 24.3609 14.4174 24.3609 13.5C24.3609 12.5826 23.6299 11.8421 22.7245 11.8421ZM21.6336 17.3684V19.5789H30.3609V17.3684H21.6336ZM27.6336 13.5C27.6336 14.4174 28.3645 15.1579 29.2699 15.1579C30.1754 15.1579 30.9063 14.4174 30.9063 13.5C30.9063 12.5826 30.1754 11.8421 29.2699 11.8421C28.3645 11.8421 27.6336 12.5826 27.6336 13.5Z" fill="white"/>
</svg>
