<svg width="70" height="55" viewBox="0 0 70 55" fill="none" xmlns="http://www.w3.org/2000/svg">
<path d="M64.0246 0H5.82041C2.60706 0 0 2.60706 0 5.82041V48.5034C0 51.7168 2.60706 54.3239 5.82041 54.3239H64.0246C67.2379 54.3239 69.845 51.7168 69.845 48.5034V5.82041C69.845 2.60706 67.2379 0 64.0246 0ZM21.3415 12.6408C25.6219 12.6408 29.1021 16.121 29.1021 20.4014C29.1021 24.6818 25.6219 28.1619 21.3415 28.1619C17.0611 28.1619 13.581 24.6818 13.581 20.4014C13.581 16.121 17.0611 12.6408 21.3415 12.6408ZM34.9225 39.3549C34.9225 40.6402 33.7099 41.683 32.2063 41.683H10.4767C8.97314 41.683 7.76055 40.6402 7.76055 39.3549V37.0267C7.76055 33.1707 11.4104 30.0422 15.9091 30.0422H16.5154C18.0069 30.6606 19.6318 31.0123 21.3415 31.0123C23.0513 31.0123 24.6883 30.6606 26.1676 30.0422H26.7739C31.2726 30.0422 34.9225 33.1707 34.9225 37.0267V39.3549ZM62.0844 34.9524C62.0844 35.486 61.6479 35.9225 61.1143 35.9225H43.6531C43.1196 35.9225 42.683 35.486 42.683 34.9524V33.0123C42.683 32.4787 43.1196 32.0422 43.6531 32.0422H61.1143C61.6479 32.0422 62.0844 32.4787 62.0844 33.0123V34.9524ZM62.0844 27.1919C62.0844 27.7254 61.6479 28.1619 61.1143 28.1619H43.6531C43.1196 28.1619 42.683 27.7254 42.683 27.1919V25.2517C42.683 24.7182 43.1196 24.2817 43.6531 24.2817H61.1143C61.6479 24.2817 62.0844 24.7182 62.0844 25.2517V27.1919ZM62.0844 19.4313C62.0844 19.9648 61.6479 20.4014 61.1143 20.4014H43.6531C43.1196 20.4014 42.683 19.9648 42.683 19.4313V17.4912C42.683 16.9576 43.1196 16.5211 43.6531 16.5211H61.1143C61.6479 16.5211 62.0844 16.9576 62.0844 17.4912V19.4313Z" fill="white"/>
</svg>
