<svg width="70" height="55" viewBox="0 0 70 55" fill="none" xmlns="http://www.w3.org/2000/svg">
<path fill-rule="evenodd" clip-rule="evenodd" d="M5.82041 0H64.0246C67.2379 0 69.845 2.60706 69.845 5.82041V48.5034C69.845 51.7168 67.2379 54.3239 64.0246 54.3239H5.82041C2.60706 54.3239 0 51.7168 0 48.5034V5.82041C0 2.60706 2.60706 0 5.82041 0ZM61.1143 35.9225C61.6479 35.9225 62.0844 35.486 62.0844 34.9524V33.0123C62.0844 32.4787 61.6479 32.0422 61.1143 32.0422H43.6531C43.1196 32.0422 42.683 32.4787 42.683 33.0123V34.9524C42.683 35.486 43.1196 35.9225 43.6531 35.9225H61.1143ZM61.1143 28.1619C61.6479 28.1619 62.0844 27.7254 62.0844 27.1919V25.2517C62.0844 24.7182 61.6479 24.2817 61.1143 24.2817H43.6531C43.1196 24.2817 42.683 24.7182 42.683 25.2517V27.1919C42.683 27.7254 43.1196 28.1619 43.6531 28.1619H61.1143ZM61.1143 20.4014C61.6479 20.4014 62.0844 19.9648 62.0844 19.4313V17.4912C62.0844 16.9576 61.6479 16.5211 61.1143 16.5211H43.6531C43.1196 16.5211 42.683 16.9576 42.683 17.4912V19.4313C42.683 19.9648 43.1196 20.4014 43.6531 20.4014H61.1143ZM14.6095 38.3121C15.9757 40.2583 17.5764 42.5387 19.449 45.2535C20.138 46.2488 21.6119 46.2489 22.3009 45.2535C24.1736 42.5387 25.7743 40.2583 27.1404 38.3121C33.4342 29.346 34.75 27.4716 34.75 22.875C34.75 15.212 28.538 9 20.875 9C13.212 9 7 15.212 7 22.875C7 27.4715 8.31579 29.346 14.6095 38.3121ZM26.6562 22.875C26.6562 26.0679 24.0679 28.6562 20.875 28.6562C17.6821 28.6562 15.0937 26.0679 15.0937 22.875C15.0937 19.6821 17.6821 17.0937 20.875 17.0937C24.0679 17.0937 26.6562 19.6821 26.6562 22.875Z" fill="white"/>
</svg>
