<svg width="69" height="64" viewBox="0 0 69 64" fill="none" xmlns="http://www.w3.org/2000/svg">
<path d="M53.3774 19.0898C53.3596 19.5817 53.5093 20.054 53.5146 20.5477C53.5197 21.3884 53.3494 22.2209 53.0145 22.9921C52.6797 23.7632 52.1877 24.4561 51.57 25.0263C50.9522 25.5966 50.2223 26.0318 49.4269 26.304C48.6315 26.5763 47.788 26.6796 46.9504 26.6075C43.8973 26.3401 41.5055 23.6685 41.4716 20.66C41.4631 19.0863 42.0671 17.5711 43.1558 16.4348C44.2445 15.2986 45.7325 14.6304 47.3051 14.5716C48.6047 14.5179 49.8848 14.9014 50.941 15.6606C51.1192 15.7872 51.2707 15.9618 51.4935 16.0171C51.5078 16.1044 51.5541 16.1472 51.645 16.1329C51.645 16.2238 51.686 16.2666 51.7769 16.2577C51.7769 16.2577 51.8303 16.3272 51.7626 16.2719C51.7626 16.1917 51.7216 16.1401 51.6325 16.1436C51.637 16.1262 51.6378 16.108 51.6349 16.0902C51.6321 16.0724 51.6256 16.0553 51.6159 16.0402C51.6062 16.025 51.5935 16.0119 51.5786 16.0018C51.5637 15.9917 51.5469 15.9848 51.5291 15.9814C51.2743 15.4467 50.859 15.0475 50.4722 14.6233C48.1321 12.0568 45.2644 10.2888 42.0473 9.05186C41.0942 8.68539 40.1199 8.3765 39.1297 8.12685C38.9515 8.08408 38.7857 8.04309 38.6182 7.98605C38.2101 7.86289 37.8534 7.6101 37.6019 7.26598C37.3504 6.92187 37.2179 6.50517 37.2244 6.07899C37.212 4.72089 37.2423 3.36099 37.2137 2.00467C37.1888 0.774881 38.472 -0.155477 39.6109 0.0441397C43.2611 0.660814 46.6849 1.86208 49.8449 3.80657C51.7601 4.98259 53.521 6.3932 55.0866 8.00566C55.2399 8.16606 55.3878 8.33182 55.575 8.54035C55.9492 8.04843 56.2986 7.59395 56.6443 7.1359C57.3002 6.26614 57.949 5.39103 58.6049 4.52661C58.7721 4.28932 58.9914 4.09339 59.2459 3.95377C59.5004 3.81415 59.7835 3.73454 60.0735 3.72102C61.0003 3.67289 61.6437 4.09352 62.0661 4.89555C62.7267 6.15623 63.385 7.41631 64.0409 8.6758C65.4168 11.3421 66.7565 14.0257 68.0599 16.7264C68.1223 16.8548 68.1205 17.0419 68.3041 17.0936V18.2966C68.1883 18.3519 68.1865 18.4749 68.1366 18.5711C67.9693 18.9345 67.698 19.2401 67.3569 19.4492C67.0158 19.6583 66.6204 19.7615 66.2206 19.7456C65.0871 19.7456 63.9535 19.7189 62.82 19.7082C62.626 19.678 62.4279 19.6865 62.2372 19.7332C62.1231 19.8954 62.2104 20.0379 62.2514 20.1841C63.0839 23.192 63.411 26.3173 63.2192 29.4324C63.0435 32.2756 62.4427 35.0764 61.4369 37.7415C61.3354 38.0364 61.1688 38.3046 60.9495 38.5264C60.7302 38.7481 60.4638 38.9177 60.17 39.0224C59.8763 39.1272 59.5627 39.1645 59.2526 39.1316C58.9425 39.0986 58.6437 38.9963 58.3785 38.8323C57.2913 38.1835 56.1845 37.5686 55.0973 36.9198C54.1384 36.3477 53.8069 35.494 54.1295 34.4086C54.5496 33.0966 54.8556 31.7507 55.0438 30.386C55.4455 27.1988 55.1413 23.9624 54.1527 20.9059C53.9424 20.2857 53.7873 19.6334 53.3596 19.104L53.3489 19.0505C53.3097 18.9882 53.3435 19.0399 53.3774 19.0898Z" fill="white"/>
<path d="M14.9634 19.1076C14.7851 19.1557 14.7691 19.3429 14.7139 19.4641C14.0218 21.0788 13.557 22.7816 13.3326 24.524C13.1631 25.7169 13.088 26.9213 13.108 28.126C13.1603 30.1069 13.4854 32.071 14.074 33.9631C14.1346 34.152 14.2059 34.3409 14.2522 34.5352C14.4893 35.5226 14.1667 36.3549 13.2898 36.8825C12.1687 37.5597 11.037 38.2227 9.89096 38.8555C8.67365 39.5274 7.42248 39.0462 6.91631 37.7326C5.51581 34.0644 4.89955 30.1435 5.10728 26.2225C5.20035 24.1778 5.52806 22.1505 6.08398 20.1806C6.13852 20.0563 6.15645 19.919 6.13566 19.7849C5.99664 19.6227 5.80772 19.7047 5.64197 19.7047C4.48526 19.7047 3.32498 19.7047 2.17362 19.7528C1.81086 19.7728 1.44927 19.6965 1.12552 19.5316C0.801759 19.3668 0.527345 19.1193 0.330099 18.8142C0.132853 18.5091 0.0197886 18.1573 0.00236984 17.7944C-0.0150489 17.4315 0.0637975 17.0704 0.230914 16.7479C2.17718 12.7519 4.18524 8.78634 6.25508 4.85103C6.40978 4.53605 6.64297 4.26619 6.93218 4.06744C7.2214 3.86869 7.55691 3.74773 7.90642 3.71622C8.25593 3.68471 8.60766 3.74369 8.92777 3.88751C9.24787 4.03132 9.52557 4.25511 9.73412 4.53735C10.6021 5.72257 11.5039 6.88641 12.3826 8.05738C12.4878 8.19818 12.6018 8.33364 12.7052 8.46553C12.8529 8.4006 12.9794 8.29565 13.0706 8.16254C17.0308 4.06325 21.8216 1.46645 27.3824 0.279439C27.8601 0.177849 28.3413 0.10121 28.8243 0.0227889C29.9258 -0.155441 31.0575 0.735708 31.0842 1.85855C31.1217 3.30578 31.1092 4.75479 31.0842 6.20379C31.0718 7.04325 30.5032 7.73835 29.6388 7.99678C28.6407 8.29443 27.6319 8.55643 26.6535 8.91823C23.2903 10.1658 20.2871 11.9481 17.8489 14.6216C17.4604 15.0458 17.0504 15.4539 16.792 15.9815C16.774 15.9843 16.7569 15.9909 16.7417 16.0009C16.7265 16.0108 16.7135 16.0239 16.7038 16.0393C16.694 16.0546 16.6876 16.0718 16.685 16.0898C16.6824 16.1078 16.6836 16.1262 16.6886 16.1437C16.5995 16.1437 16.5639 16.1882 16.5532 16.2666L16.5229 16.3005L16.5407 16.2524C16.6334 16.2684 16.6797 16.2274 16.6779 16.133C16.7671 16.1472 16.8134 16.1045 16.8294 16.0189C17.0311 15.9298 17.2176 15.8095 17.382 15.6624C18.2267 15.0676 19.2108 14.701 20.2389 14.5981C21.2669 14.4953 22.3041 14.6597 23.25 15.0754C24.1959 15.4912 25.0183 16.1442 25.6377 16.9711C26.2571 17.7981 26.6524 18.771 26.7853 19.7956C27.247 23.1819 25.003 25.9712 21.9731 26.5255C21.0135 26.7146 20.0222 26.6663 19.0856 26.3847C18.1489 26.1032 17.2953 25.5969 16.5989 24.9101C15.9026 24.2233 15.3847 23.3766 15.0903 22.4439C14.796 21.5112 14.734 20.5207 14.9099 19.5585C14.9311 19.4043 14.9442 19.249 14.9491 19.0934L14.9741 19.0524C14.9883 18.9846 14.9759 19.047 14.9634 19.1076Z" fill="white"/>
<path d="M35.6506 49.6616C36.7122 49.6184 37.767 49.4715 38.7999 49.2231C42.9331 48.2464 46.3462 46.0685 49.1836 42.9477C49.7076 42.3702 50.2797 41.9941 51.0924 42.0565C51.4473 42.0982 51.788 42.2201 52.0887 42.413C53.1082 42.9994 54.1045 43.6339 55.1507 44.1685C56.3395 44.7745 56.8992 46.252 55.7817 47.5781C51.8856 52.212 47.0698 55.3685 41.2096 56.8995C41.0171 56.9494 40.8122 56.9565 40.6268 57.1383C41.0189 58.3182 41.4164 59.5141 41.8156 60.7029C41.8637 60.8508 41.9207 60.9952 41.9635 61.1449C42.3449 62.4816 41.5286 63.6918 40.1527 63.8308C39.9746 63.8397 39.7961 63.8397 39.618 63.8308H28.6836C28.5268 63.8308 28.3717 63.8308 28.2167 63.8308C26.8033 63.7185 25.9496 62.487 26.3702 61.1271C26.7391 59.9401 27.1509 58.7673 27.543 57.5874C27.5929 57.4395 27.6374 57.2916 27.6838 57.1454C27.575 56.9672 27.3932 56.9529 27.2257 56.9102C21.2835 55.3899 16.409 52.2067 12.4897 47.4979C11.4916 46.2984 11.9318 44.8369 13.0761 44.2202C14.0902 43.6713 15.0936 43.0956 16.0739 42.486C17.2395 41.7624 18.3231 42.0084 19.159 42.9548C20.9827 45.0347 23.2178 46.7139 25.7232 47.8864C27.5857 48.7808 29.5866 49.3521 31.6405 49.576C31.9969 49.6135 32.332 49.7453 32.7098 49.6491C28.7888 48.3801 27.8353 45.106 28.2256 42.773C28.4572 41.3428 29.1969 40.0441 30.309 39.1154C31.4211 38.1867 32.8309 37.6903 34.2795 37.7174C35.7281 37.7444 37.1184 38.2932 38.195 39.2628C39.2716 40.2324 39.9623 41.5579 40.1402 42.9958C40.4842 45.9651 38.7572 48.7348 35.6506 49.6616Z" fill="white"/>
</svg>
