<svg width="73" height="63" viewBox="0 0 73 63" fill="none" xmlns="http://www.w3.org/2000/svg">
<path d="M42.9437 10.4605C42.9437 13.7104 40.2519 17.4648 36.9296 17.4648C33.6073 17.4648 30.9155 13.7181 30.9155 10.4605C30.9155 8.90025 31.5492 7.40389 32.677 6.30061C33.8049 5.19733 35.3346 4.57751 36.9296 4.57751C38.5246 4.57751 40.0544 5.19733 41.1822 6.30061C42.3101 7.40389 42.9437 8.90025 42.9437 10.4605Z" fill="white"/>
<path d="M2.56348 28.6338H20.6057" stroke="white" stroke-width="4" stroke-linecap="round" stroke-linejoin="round"/>
<path d="M17.1689 25.1971L20.6056 28.6338L17.1689 32.0704" fill="white"/>
<path d="M17.1689 25.1971L20.6056 28.6338L17.1689 32.0704" stroke="white" stroke-width="4" stroke-linecap="round" stroke-linejoin="round"/>
<path d="M70.4365 28.6338H53.2534" stroke="white" stroke-width="4" stroke-linecap="round" stroke-linejoin="round"/>
<path d="M56.69 32.0704L53.2534 28.6338L56.69 25.1971" fill="white"/>
<path d="M56.69 32.0704L53.2534 28.6338L56.69 25.1971" stroke="white" stroke-width="4" stroke-linecap="round" stroke-linejoin="round"/>
<path d="M10.2959 55.2675L22.3241 43.2394" stroke="white" stroke-width="4" stroke-linecap="round" stroke-linejoin="round"/>
<path d="M18.0283 43.2394H22.3241V47.5352" fill="white"/>
<path d="M18.0283 43.2394H22.3241V47.5352" stroke="white" stroke-width="4" stroke-linecap="round" stroke-linejoin="round"/>
<path d="M63.5636 2L50.6763 14.8873" stroke="white" stroke-width="4" stroke-linecap="round" stroke-linejoin="round"/>
<path d="M55.8312 14.8874H50.6763V9.73242" fill="white"/>
<path d="M55.8312 14.8874H50.6763V9.73242" stroke="white" stroke-width="4" stroke-linecap="round" stroke-linejoin="round"/>
<path d="M10.2959 2L22.3241 14.8873" stroke="white" stroke-width="4" stroke-linecap="round" stroke-linejoin="round"/>
<path d="M22.3241 9.73242V14.8874H18.0283" fill="white"/>
<path d="M22.3241 9.73242V14.8874H18.0283" stroke="white" stroke-width="4" stroke-linecap="round" stroke-linejoin="round"/>
<path d="M63.5636 55.2675L50.6763 43.2394" stroke="white" stroke-width="4" stroke-linecap="round" stroke-linejoin="round"/>
<path d="M50.6763 47.5352V43.2394H55.8312" fill="white"/>
<path d="M50.6763 47.5352V43.2394H55.8312" stroke="white" stroke-width="4" stroke-linecap="round" stroke-linejoin="round"/>
<path d="M45.7038 18.324H41.4709C41.4709 18.324 39.2126 20.7495 36.9276 20.7495C34.6426 20.7495 32.3843 18.324 32.3843 18.324H28.1514C27.9371 18.3228 27.725 18.3671 27.529 18.454C27.3329 18.5409 27.1572 18.6684 27.0135 18.8283C26.8697 18.9881 26.7611 19.1766 26.6947 19.3816C26.6283 19.5865 26.6056 19.8033 26.6281 20.0176L28.1514 39.1552C28.1859 39.5043 28.3385 39.831 28.5836 40.0806L30.7201 41.4581C30.964 41.7084 31.1164 42.0347 31.1523 42.3834L32.3062 61.6148C32.3428 61.9953 32.5193 62.3482 32.8011 62.6045C33.0829 62.8607 33.4497 63.0018 33.8295 63H40.0294C40.4093 63.0018 40.7761 62.8607 41.0579 62.6045C41.3397 62.3482 41.5162 61.9953 41.5528 61.6148L42.7067 42.3834C42.7426 42.0347 42.8949 41.7084 43.1389 41.4581L45.2754 40.0806C45.5205 39.831 45.673 39.5043 45.7076 39.1552L47.2309 20.0176C47.2535 19.803 47.2307 19.5859 47.164 19.3807C47.0974 19.1754 46.9884 18.9867 46.8442 18.8268C46.7001 18.6669 46.5239 18.5395 46.3274 18.4528C46.1309 18.3662 45.9184 18.3223 45.7038 18.324ZM38.2262 31.1603V35.9155H35.629V31.1603C34.9966 30.863 34.4839 30.3576 34.1755 29.7275C33.8672 29.0975 33.7816 28.3804 33.933 27.6948C34.0843 27.0092 34.4635 26.3961 35.008 25.9566C35.5524 25.5171 36.2296 25.2776 36.9276 25.2776C37.6256 25.2776 38.3027 25.5171 38.8472 25.9566C39.3916 26.3961 39.7708 27.0092 39.9222 27.6948C40.0735 28.3804 39.988 29.0975 39.6796 29.7275C39.3713 30.3576 38.8586 30.863 38.2262 31.1603Z" fill="white"/>
</svg>
