<svg width="61" height="61" viewBox="0 0 61 61" fill="none" xmlns="http://www.w3.org/2000/svg">
<path d="M24.8187 57.5457L35.7278 57.5457C37.234 57.5457 38.4551 56.3246 38.4551 54.8184L38.4551 43.9092C38.4551 42.403 37.234 41.182 35.7278 41.182L24.8187 41.182C23.3124 41.182 22.0914 42.403 22.0914 43.9092L22.0914 54.8184C22.0914 56.3246 23.3124 57.5457 24.8187 57.5457Z" stroke="white" stroke-width="5.45457" stroke-linecap="round" stroke-linejoin="round"/>
<path d="M52.0913 13.9091L52.0913 24.8182C52.0913 26.3245 50.8702 27.5455 49.364 27.5455L11.1821 27.5455C9.67578 27.5455 8.45478 26.3245 8.45478 24.8182L8.45478 13.9091" stroke="white" stroke-width="5.45457" stroke-linecap="round" stroke-linejoin="round"/>
<path d="M52.0913 3.00005C49.0789 3.00005 46.6368 5.44214 46.6368 8.45461C46.6368 11.4671 49.0789 13.9092 52.0913 13.9092C55.1038 13.9092 57.5459 11.4671 57.5459 8.45461C57.5459 5.44214 55.1038 3.00005 52.0913 3.00005Z" stroke="white" stroke-width="5.45457" stroke-linecap="round" stroke-linejoin="round"/>
<path d="M8.45461 2.99992C5.44214 2.99992 3.00005 5.44202 3.00005 8.45449C3.00005 11.467 5.44214 13.9091 8.45461 13.9091C11.4671 13.9091 13.9092 11.467 13.9092 8.45449C13.9092 5.44202 11.4671 2.99992 8.45461 2.99992Z" stroke="white" stroke-width="5.45457" stroke-linecap="round" stroke-linejoin="round"/>
<path d="M30.273 3.00005C27.2605 3.00005 24.8184 5.44214 24.8184 8.45461C24.8184 11.4671 27.2605 13.9092 30.273 13.9092C33.2854 13.9092 35.7275 11.4671 35.7275 8.45461C35.7275 5.44214 33.2854 3.00005 30.273 3.00005Z" stroke="white" stroke-width="5.45457" stroke-linecap="round" stroke-linejoin="round"/>
<path d="M30.2729 41.182L30.273 13.9092" stroke="white" stroke-width="5.45457" stroke-linecap="round" stroke-linejoin="round"/>
</svg>
