<svg width="69" height="71" viewBox="0 0 69 71" fill="none" xmlns="http://www.w3.org/2000/svg">
<path d="M46.8304 12.0882L46.8192 14.3992H45.5923V15.862H44.3991L44.3823 12.0882H46.8304ZM24.6364 12.0882L24.6514 15.7197H23.2749V14.4504H22.2052L22.1883 12.0901L24.6364 12.0882ZM33.8118 70.0778L33.8679 68.9184H33.8267V68.8805L32.5176 68.9241L32.5737 67.5979H32.5307V67.5599H31.1729L31.1991 66.319H29.9647V65.0743H28.6593V63.7519H27.3557V62.4294H26.0129V61.0671H24.7337V59.7845H23.3946V58.4259H22.0911V57.1035H20.7894V55.781H19.4802V54.4528H18.1804V53.136H16.7609V51.6883H15.5041V50.419H14.1987V49.0965H12.9101V47.7741H11.5954V46.4497H10.2974V45.15H8.9939V43.8313H7.70345V42.5145H6.39429V41.1864H5.0496L5.09262 39.8582H3.84331V38.5907H2.53789V37.2683H1.20255V35.9154H0V34.3975H1.20255V33.1035H2.45373V31.7829H3.75167V30.4605H5.0496V29.1304H6.37746V27.8762H7.60994V26.5538H8.91348V25.2294H10.217V23.8671H11.5617V22.5389H12.8634V21.2051L14.1595 21.2108V19.8959H15.463V18.5829H16.7665V17.2547H18.0738V15.9265H19.3718V14.7179H20.7221V18.3723H22.0686L22.0836 19.7631H23.3871L23.3703 21.2051H23.4096V21.2449L24.6364 21.2051L24.5803 22.444H23.4302V21.2715H23.3871V21.2354L22.0686 21.2051V23.7722H23.4825V25.1725H24.7393V27.7947H26.0447V30.4415L27.3483 30.487V33.0694H28.5677V37.9475V56.8056H29.8637V60.7711H31.1729V64.7746H32.5176V67.5618H32.5531V67.6017L33.8679 67.5618L33.8118 68.8843H33.851V68.9241H35.0573V70.0777L33.8118 70.0778ZM30 24H31V25H30V24ZM35.0162 39V37.9475H34V39H33V37H34V35H35.0162V37H36V39H35.0162ZM38 25V24L38.9736 23.9752L39 25H38ZM39.1793 12.0085V13.1829H37.8215V7.81715L36.5236 7.83423V3.8042L35.1826 3.77574V1.4116H35.1471V1.37555H33.8623V1.4116H33.8286V3.8042H32.4596V7.81715H31.2178V13.2304H30.1835V11.832L28.8463 11.8624V10.5589L27.539 10.5342V9.2326L26.1962 9.19465V7.93669L27.4418 7.89495V6.61801H28.5751V5.2538L29.8993 5.28415V3.98065H31.1766V2.717H32.4241L32.4596 1.40022H33.8211V1.36037H33.8585L33.8211 0.147949H35.1882L35.1471 1.36607H35.1882V1.40401L36.5236 1.36037L36.503 2.61834H37.7504V3.89527H39.0895V5.2538H40.365V6.54781H41.6929V7.89495L42.8375 7.93669V9.31608H41.8219V10.6405H40.5184V12.0085H39.1793ZM67.861 35.8528V37.1677H66.5668V38.4427H65.3157V39.7671H64.0028V41.0896H62.6992V42.4121H61.3975V43.7706H60.0603V45.0931H58.7568V46.3169H52.3569V47.7741L50.9505 47.7247V49.0965H49.5V50.3981H48.2798V53.136H46.8921V56.8075L45.5 56.8056V55.5L44.2139 55.5229V54.1815H43.0787V50.2084L41.7696 50.2274V46.3017H40.5969L40.5034 33.3521H41.7116V30.7792H43.1068V28.0584H44.4496L44.401 25.4134H45.7494V24.0322H46.9407V21.1975L45.6316 21.2145V21.2487H45.5923V22.4156H44.4496V21.2145L45.5923 21.2411V21.1975H45.6316L45.5923 19.8484H46.8304V18.5279L48.1956 18.4823V14.7065H49.3159V16.0518H50.6344V17.3705H51.9342V18.691H53.2378V20.0078H54.5432V21.336H55.8449V22.6528H57.1465V23.9714H58.4538V25.3983H59.8658V26.7226H61.1712V27.973H62.4056V29.3315H63.7241V30.654H65.0295V31.9784H66.3349V33.3008H67.6721L67.6609 34.3273H69V35.8528H67.861Z" fill="white"/>
<path d="M33 39H32V40H33V39Z" fill="white"/>
<path d="M36 39V40H37L36.9736 38.9752L36 39Z" fill="white"/>
</svg>
