<svg width="70" height="70" viewBox="0 0 70 70" fill="none" xmlns="http://www.w3.org/2000/svg">
<path fill-rule="evenodd" clip-rule="evenodd" d="M61.1142 52.3837V55.2939C61.1142 58.4951 58.495 61.1143 55.2938 61.1143H14.5509C11.3206 61.1143 8.73047 58.4951 8.73047 55.2939V14.551C8.73047 11.3498 11.3206 8.73059 14.5509 8.73059H55.2938C58.495 8.73059 61.1142 11.3498 61.1142 14.551V17.4612H34.9223C31.692 17.4612 29.1019 20.0804 29.1019 23.2816V46.5633C29.1019 49.7645 31.692 52.3837 34.9223 52.3837H61.1142ZM34.9223 46.5633H64.0244V23.2816H34.9223V46.5633ZM48.0102 35.0433L47.9979 42H44.9979V35C43.3583 34.3723 42.1978 32.7859 42.1978 30.9225C42.1978 28.507 44.1477 26.5571 46.5632 26.5571C48.9786 26.5571 50.9285 28.507 50.9285 30.9225C50.9285 32.8304 49.7119 34.4479 48.0102 35.0433Z" fill="white"/>
</svg>
