<svg width="57" height="54" viewBox="0 0 57 54" fill="none" xmlns="http://www.w3.org/2000/svg">
<path fill-rule="evenodd" clip-rule="evenodd" d="M53.1142 44.3837V47.2939C53.1142 50.4951 50.495 53.1143 47.2938 53.1143H6.5509C3.3206 53.1143 0.73047 50.4951 0.73047 47.2939V6.551C0.73047 3.3498 3.3206 0.730591 6.5509 0.730591H47.2938C50.495 0.730591 53.1142 3.3498 53.1142 6.551V9.4612H26.9223C23.692 9.4612 21.1019 12.0804 21.1019 15.2816V38.5633C21.1019 41.7645 23.692 44.3837 26.9223 44.3837H53.1142ZM26.9223 38.5633H56.0244V15.2816H26.9223V38.5633ZM40.0102 27.0433L39.9979 34H36.9979V27C35.3583 26.3723 34.1978 24.7859 34.1978 22.9225C34.1978 20.507 36.1477 18.5571 38.5632 18.5571C40.9786 18.5571 42.9285 20.507 42.9285 22.9225C42.9285 24.8304 41.7119 26.4479 40.0102 27.0433Z" fill="white"/>
</svg>
