<svg width="48" height="59" viewBox="0 0 48 59" fill="none" xmlns="http://www.w3.org/2000/svg">
<path fill-rule="evenodd" clip-rule="evenodd" d="M12 7.33333C16.6863 5.25054 24 0 24 0C24 0 31.3137 5.25054 36 7.33333C40.6863 9.41613 48 10.6667 48 10.6667V26.6667C48 41.4667 37.76 55.3067 24 58.6667C10.24 55.3067 0 41.4667 0 26.6667V10.6667C0 10.6667 7.31371 9.41613 12 7.33333ZM31 25C31 27.7924 29.3649 30.2029 27 31.3264V42H21V31.3264C18.6351 30.2029 17 27.7924 17 25C17 21.134 20.134 18 24 18C27.866 18 31 21.134 31 25Z" fill="white"/>
</svg>
