<?xml version="1.0" encoding="UTF-8"?>
<svg id="Capa_2" data-name="Capa 2" xmlns="http://www.w3.org/2000/svg" xmlns:xlink="http://www.w3.org/1999/xlink" viewBox="0 0 400 400">
  <defs>
    <style>
      .cls-1 {
        fill: url(#Degradado_sin_nombre_55);
      }

      .cls-1, .cls-2, .cls-3, .cls-4, .cls-5, .cls-6, .cls-7, .cls-8, .cls-9, .cls-10, .cls-11, .cls-12, .cls-13, .cls-14, .cls-15, .cls-16, .cls-17, .cls-18, .cls-19, .cls-20, .cls-21, .cls-22 {
        stroke-width: 0px;
      }

      .cls-2 {
        fill: url(#Degradado_sin_nombre_40);
      }

      .cls-2, .cls-3, .cls-4, .cls-14, .cls-20, .cls-21, .cls-22 {
        opacity: .2;
      }

      .cls-3 {
        fill: url(#Degradado_sin_nombre_30);
      }

      .cls-4 {
        fill: url(#Degradado_sin_nombre_23-2);
      }

      .cls-5 {
        fill: url(#Degradado_sin_nombre_33);
      }

      .cls-6 {
        fill: url(#Degradado_sin_nombre_33-5);
      }

      .cls-7 {
        fill: url(#Degradado_sin_nombre_33-2);
      }

      .cls-8 {
        fill: url(#Degradado_sin_nombre_55-3);
      }

      .cls-9 {
        fill: url(#Degradado_sin_nombre_30-5);
      }

      .cls-9, .cls-12, .cls-15, .cls-17 {
        opacity: .1;
      }

      .cls-10 {
        fill: none;
      }

      .cls-11 {
        fill: url(#Degradado_sin_nombre_55-2);
      }

      .cls-12 {
        fill: url(#Degradado_sin_nombre_30-2);
      }

      .cls-13 {
        fill: url(#Degradado_sin_nombre_33-4);
      }

      .cls-14 {
        fill: url(#Degradado_sin_nombre_23);
      }

      .cls-15 {
        fill: url(#Degradado_sin_nombre_30-3);
      }

      .cls-16 {
        fill: url(#Degradado_sin_nombre_33-3);
      }

      .cls-17 {
        fill: url(#Degradado_sin_nombre_30-4);
      }

      .cls-18 {
        fill: url(#Degradado_sin_nombre_33-6);
      }

      .cls-19 {
        fill: #ffff32;
      }

      .cls-20 {
        fill: url(#Degradado_sin_nombre_22);
      }

      .cls-21 {
        fill: url(#Degradado_sin_nombre_41);
      }

      .cls-22 {
        fill: url(#Degradado_sin_nombre_22-2);
      }
    </style>
    <radialGradient id="Degradado_sin_nombre_30" data-name="Degradado sin nombre 30" cx="200" cy="201.36" fx="200" fy="201.36" r="158" gradientUnits="userSpaceOnUse">
      <stop offset="0" stop-color="#ffff32"/>
      <stop offset=".53" stop-color="#ccb307" stop-opacity="0"/>
    </radialGradient>
    <radialGradient id="Degradado_sin_nombre_30-2" data-name="Degradado sin nombre 30" cx="179.43" cy="107.83" fx="179.43" fy="107.83" r="104.23" xlink:href="#Degradado_sin_nombre_30"/>
    <radialGradient id="Degradado_sin_nombre_30-3" data-name="Degradado sin nombre 30" cx="213.06" cy="296.36" fx="213.06" fy="296.36" r="104.23" xlink:href="#Degradado_sin_nombre_30"/>
    <radialGradient id="Degradado_sin_nombre_30-4" data-name="Degradado sin nombre 30" cx="248.34" cy="178.58" fx="248.34" fy="178.58" r="104.23" xlink:href="#Degradado_sin_nombre_30"/>
    <radialGradient id="Degradado_sin_nombre_30-5" data-name="Degradado sin nombre 30" cx="152.55" cy="216.29" fx="152.55" fy="216.29" r="104.23" xlink:href="#Degradado_sin_nombre_30"/>
    <radialGradient id="Degradado_sin_nombre_22" data-name="Degradado sin nombre 22" cx="-235.96" cy="-792.27" fx="-235.96" fy="-792.27" r="157.41" gradientTransform="translate(570.94 369.44) scale(1.72 .36)" gradientUnits="userSpaceOnUse">
      <stop offset="0" stop-color="#ffff32"/>
      <stop offset=".4" stop-color="#ccb307" stop-opacity="0"/>
    </radialGradient>
    <radialGradient id="Degradado_sin_nombre_23" data-name="Degradado sin nombre 23" cx="-579.39" cy="646.69" fx="-627.16" fy="646.69" r="159.24" gradientTransform="translate(247.96 -905.59) rotate(-76.71) scale(1.72 .26)" gradientUnits="userSpaceOnUse">
      <stop offset="0" stop-color="#ffff32"/>
      <stop offset=".51" stop-color="#ccb307" stop-opacity="0"/>
    </radialGradient>
    <radialGradient id="Degradado_sin_nombre_22-2" data-name="Degradado sin nombre 22" cx="-654.96" cy="560.29" fx="-654.96" fy="560.29" r="157.41" gradientTransform="translate(1382.21 70.5) scale(1.72 .35)" xlink:href="#Degradado_sin_nombre_22"/>
    <radialGradient id="Degradado_sin_nombre_41" data-name="Degradado sin nombre 41" cx="-603.83" cy="-798.43" fx="-622.09" fy="-798.43" r="88.85" gradientTransform="translate(1648.73 163.08) rotate(-16.9) scale(2.27 .5) skewX(-.15)" gradientUnits="userSpaceOnUse">
      <stop offset="0" stop-color="#ffff32"/>
      <stop offset=".34" stop-color="#ccb307" stop-opacity="0"/>
    </radialGradient>
    <radialGradient id="Degradado_sin_nombre_40" data-name="Degradado sin nombre 40" cx="-346.36" cy="665.61" fx="-373.25" fy="665.61" r="88.85" gradientTransform="translate(-469.02 760.19) rotate(163.1) scale(2.2 .5) skewX(-.15)" gradientUnits="userSpaceOnUse">
      <stop offset="0" stop-color="#ffff32"/>
      <stop offset=".34" stop-color="#ccb307" stop-opacity="0"/>
    </radialGradient>
    <radialGradient id="Degradado_sin_nombre_23-2" data-name="Degradado sin nombre 23" cx="-160.63" cy="-1127.43" fx="-208.4" fy="-1127.43" r="159.24" gradientTransform="translate(-163.66 471.47) rotate(105.56) scale(1.72 .28)" xlink:href="#Degradado_sin_nombre_23"/>
    <linearGradient id="Degradado_sin_nombre_55" data-name="Degradado sin nombre 55" x1="202.53" y1="208.95" x2="194.99" y2="186.09" gradientUnits="userSpaceOnUse">
      <stop offset=".11" stop-color="#e5ce32"/>
      <stop offset=".27" stop-color="#ffff32"/>
      <stop offset=".54" stop-color="#ffff32"/>
      <stop offset=".7" stop-color="#ffff9c"/>
      <stop offset=".87" stop-color="#ffff32"/>
    </linearGradient>
    <linearGradient id="Degradado_sin_nombre_55-2" data-name="Degradado sin nombre 55" x1="203.1" y1="277.93" x2="229.98" y2="284.91" xlink:href="#Degradado_sin_nombre_55"/>
    <linearGradient id="Degradado_sin_nombre_55-3" data-name="Degradado sin nombre 55" x1="171.24" y1="118.43" x2="186.09" y2="122.43" xlink:href="#Degradado_sin_nombre_55"/>
    <linearGradient id="Degradado_sin_nombre_33" data-name="Degradado sin nombre 33" x1="172.3" y1="134.2" x2="144.19" y2="151.85" gradientUnits="userSpaceOnUse">
      <stop offset=".07" stop-color="#a7b0b8"/>
      <stop offset=".26" stop-color="#dbe4eb"/>
      <stop offset=".77" stop-color="#fff"/>
      <stop offset=".91" stop-color="#dbe4eb"/>
    </linearGradient>
    <linearGradient id="Degradado_sin_nombre_33-2" data-name="Degradado sin nombre 33" x1="198.8" y1="302.72" x2="199.26" y2="279.75" xlink:href="#Degradado_sin_nombre_33"/>
    <linearGradient id="Degradado_sin_nombre_33-3" data-name="Degradado sin nombre 33" x1="125.09" y1="277.27" x2="134.12" y2="279.29" xlink:href="#Degradado_sin_nombre_33"/>
    <linearGradient id="Degradado_sin_nombre_33-4" data-name="Degradado sin nombre 33" x1="197.24" y1="125.69" x2="197.43" y2="104.75" xlink:href="#Degradado_sin_nombre_33"/>
    <linearGradient id="Degradado_sin_nombre_33-5" data-name="Degradado sin nombre 33" x1="257.71" y1="124.38" x2="275" y2="127.43" xlink:href="#Degradado_sin_nombre_33"/>
    <linearGradient id="Degradado_sin_nombre_33-6" data-name="Degradado sin nombre 33" x1="245.46" y1="253.47" x2="217.14" y2="271.26" xlink:href="#Degradado_sin_nombre_33"/>
  </defs>
  <circle class="cls-3" cx="200" cy="201.36" r="158"/>
  <circle class="cls-12" cx="179.43" cy="107.83" r="104.23"/>
  <circle class="cls-15" cx="213.06" cy="296.36" r="104.23"/>
  <circle class="cls-17" cx="248.34" cy="178.58" r="104.23"/>
  <circle class="cls-9" cx="152.55" cy="216.29" r="104.23"/>
  <g>
    <rect class="cls-20" x="38.8" y="79.44" width="227.51" height="55.95" transform="translate(292.15 -16.36) rotate(103.29)"/>
    <polygon class="cls-14" points="243.69 17.62 193.33 191.14 150.77 222.79 203.64 8.16 243.69 17.62"/>
    <rect class="cls-22" x="127.89" y="260.36" width="227.51" height="54.91" transform="translate(-100.44 443.4) rotate(-74.44)"/>
    <polygon class="cls-21" points="158.26 174.47 322.74 115.11 332.43 146.87 137.78 219.85 158.26 174.47"/>
    <polygon class="cls-2" points="229.82 222.7 70.78 280.4 61.09 248.63 249.27 177.63 229.82 222.7"/>
    <polygon class="cls-4" points="146.72 373.43 204.41 202.18 250 172.74 188.55 385.08 146.72 373.43"/>
    <g>
      <polygon class="cls-1" points="137.66 232.93 220.82 205.06 236.38 196.7 261.34 166.62 165.83 194.65 142.78 221.35 137.66 232.93"/>
      <polyline class="cls-11" points="220.82 205.06 185.23 399.72 261.34 166.62"/>
      <polyline class="cls-8" points="137.66 232.93 204.8 3.93 168.83 193.65"/>
    </g>
    <path class="cls-19" d="m200.15,23.46l-31.6,170.03c-.22.33-.22.77,0,1.11.19.28.5.45.83.45.09,0,.19-.01.28-.04l90.07-26.55-70.92,217.2,32.93-180.07c.06-.35-.06-.7-.33-.94-.18-.16-.42-.24-.66-.24-.11,0-.21.02-.32.05l-81.34,27.25L200.15,23.46m4.58-19.19l-67.14,228.99,83.16-27.86-35.59,194.65,76.11-233.1-91.89,27.08.11-.13L204.74,4.27h0Zm56.54,162.69h0,0Z"/>
    <g>
      <polyline class="cls-5" points="206.82 182.62 174.5 129.04 168.06 125.19 112.54 101.63 169.45 193.7"/>
      <polygon class="cls-7" points="115.64 305.55 281.84 305.55 281.84 305.55 270.03 298.55 220.07 277.56 136.66 277.56 120.23 299.37 115.64 305.55"/>
      <polygon class="cls-16" points="136.66 277.56 133.04 248.65 115.64 305.55 134.59 281.44 136.66 277.56"/>
      <polygon class="cls-13" points="282.37 101.63 112.54 101.63 112.54 101.63 121.77 106.71 174.5 129.04 255.2 129.04 257.5 126.29 279.47 105.63 282.37 101.63"/>
      <polygon class="cls-6" points="254.68 129.04 266.03 152.95 282.37 101.63 254.68 129.04"/>
      <polyline class="cls-18" points="183.15 217.69 220.07 277.56 227.08 281.65 281.84 305.55 220.76 205.4"/>
    </g>
    <line class="cls-10" x1="204.8" y1="3.93" x2="115.64" y2="305.55"/>
  </g>
</svg>