<svg width="57" height="57" viewBox="0 0 57 57" fill="none" xmlns="http://www.w3.org/2000/svg">
<path d="M43.9613 13.9265C44.8948 14.5302 45.9169 14.6221 47.0046 14.0446C45.7412 12.3711 44.2381 10.8929 42.5438 9.65759C42.2435 12.066 42.6061 13.0553 43.9613 13.9265Z" fill="white"/>
<path d="M42.5603 44.6653C42.3404 45.4429 42.3962 46.26 42.5111 47.1705C44.2103 45.9322 45.7192 44.452 46.99 42.7769C44.89 41.7991 43.0164 43.0526 42.5603 44.6653Z" fill="white"/>
<path d="M13.492 14.3137C14.7766 13.9855 15.6248 13.1422 15.8594 11.8642C16.0563 10.806 15.9644 9.71006 15.8807 8.52881C13.7873 9.82395 11.9165 11.4482 10.3403 13.3391C11.2722 14.248 12.2976 14.6155 13.492 14.3137Z" fill="white"/>
<path d="M7.8562 31.1219C8.34859 29.3363 8.34405 27.4501 7.84307 25.6668C7.52807 24.5725 6.63229 23.89 5.33948 23.7325C4.66353 26.8225 4.66353 30.022 5.33948 33.112C6.61753 32.879 7.55268 32.249 7.8562 31.1219Z" fill="white"/>
<path d="M13.6968 42.5439C12.4778 42.1682 11.2736 42.516 10.4155 43.5447C11.9797 45.4253 13.8453 47.0331 15.9362 48.3025C15.9362 47.2164 15.9707 46.2747 15.9362 45.3379C15.8608 44.0812 14.9059 42.9163 13.6968 42.5439Z" fill="white"/>
<path d="M51.5873 24.2936C50.7358 24.9006 50.3306 25.6176 50.2994 26.4855C50.2502 27.7766 50.2469 29.0727 50.2994 30.3623C50.3355 31.2318 50.7538 31.9422 51.5873 32.4951C52.0237 29.7787 52.0237 27.01 51.5873 24.2936Z" fill="white"/>
<path d="M50.324 35.3006C48.5406 34.2145 47.5152 32.6362 47.2888 30.5641C47.1557 29.2061 47.1463 27.8387 47.2609 26.479C47.425 24.2936 48.4881 22.6202 50.3781 21.4783C50.4703 21.444 50.552 21.3863 50.6152 21.311C50.6785 21.2357 50.7211 21.1452 50.739 21.0485C50.2683 19.4815 49.5878 17.9854 48.7162 16.6008C48.3388 16.755 48.0419 16.8879 47.7318 16.9994C46.9293 17.295 46.0741 17.4207 45.2205 17.3684C44.3669 17.3161 43.5334 17.0871 42.773 16.6957C42.0125 16.3044 41.3417 15.7594 40.803 15.0951C40.2643 14.4309 39.8694 13.662 39.6435 12.8372C39.4599 12.1455 39.3748 11.4313 39.3908 10.7158C39.4089 9.68388 39.3908 8.65029 39.3908 7.63966C38.3376 7.08349 37.3565 6.60115 36.295 6.30912C36.0965 6.64872 36.1769 6.98013 36.1769 7.29349C36.1687 9.89224 36.1769 12.491 36.1769 15.0897C36.1996 15.479 36.167 15.8695 36.0801 16.2497C35.8848 16.9338 35.4435 17.3111 34.7676 17.3538C34.044 17.3997 33.524 17.0519 33.2549 16.3694C33.1171 16.0233 33.1384 15.6689 33.1384 15.3145C33.1384 12.9422 33.1384 10.5715 33.1384 8.20076C33.1384 7.89068 33.2254 7.56583 33.0515 7.2656C31.8194 8.11544 31.0827 8.19091 30.4576 7.53794C29.8326 6.88497 29.8933 6.29599 30.6955 5.1131C29.2912 4.80466 27.8737 4.78497 26.8565 5.04747C26.6711 5.3756 26.758 5.73818 26.7564 6.08763C26.7564 9.10802 26.7564 12.1284 26.7564 15.1488C26.7655 15.4732 26.7507 15.7978 26.7121 16.1201C26.6005 16.8518 26.1198 17.2898 25.4144 17.344C25.0889 17.3842 24.7594 17.3119 24.4807 17.1392C24.202 16.9664 23.9907 16.7034 23.882 16.394C23.7376 16.0479 23.7672 15.6918 23.7672 15.3375C23.7672 12.9668 23.7672 10.5961 23.7672 8.22372C23.7672 7.90544 23.8246 7.57896 23.6605 7.14912C23.1372 7.71349 22.5597 8.1499 21.7755 7.9481C20.9256 7.72826 20.6992 7.01787 20.568 6.25662C19.9966 6.41729 19.446 6.64414 18.9273 6.93255C18.9273 8.23193 18.9388 9.49521 18.9273 10.7569C18.9453 11.3413 18.9052 11.926 18.8076 12.5025C17.8642 16.8173 12.857 18.7697 9.20334 16.2759C8.9999 16.1365 8.84897 15.9084 8.58811 15.8592C7.66279 17.0683 6.59475 19.2766 6.22561 20.7483C6.4635 20.8352 6.70303 20.9271 6.94748 21.0091C9.59053 21.8885 11.1426 24.4807 11.095 26.6873C11.072 27.8243 11.0704 28.9612 11.095 30.0982C11.1426 32.231 9.71522 34.856 6.86873 35.8272C6.6292 35.9076 6.35193 35.9093 6.20264 36.2029C6.81295 37.8616 7.52662 39.4842 8.57498 40.9837L9.17709 40.5621C10.0078 39.9702 10.9719 39.5929 11.9837 39.4639C12.9955 39.3349 14.0235 39.458 14.9762 39.8225C15.9288 40.1869 16.7766 40.7813 17.4439 41.5526C18.1112 42.324 18.5774 43.2485 18.801 44.2436C18.9651 44.9426 18.9273 45.6628 18.9306 46.3765C18.9306 47.538 18.9306 48.7012 18.9306 49.8825C20.4571 50.5869 22.0644 51.101 23.7163 51.4132V44.7342C23.4948 44.7342 23.4112 44.8983 23.2897 44.9983C22.4694 45.671 21.7426 45.6989 21.1176 45.0787C20.4613 44.434 20.5023 43.6383 21.2291 42.8409C21.2947 42.7687 21.3653 42.7015 21.4342 42.6326C22.2627 41.8122 23.088 40.9755 23.923 40.1552C24.1223 39.9412 24.3497 39.7553 24.599 39.6023C24.797 39.4906 25.0187 39.4279 25.2459 39.4192C25.473 39.4106 25.699 39.4563 25.9049 39.5526C26.1108 39.6489 26.2907 39.7929 26.4297 39.9728C26.5687 40.1527 26.6627 40.3632 26.7039 40.5867C26.7573 40.9395 26.7771 41.2966 26.763 41.6531C26.763 44.6751 26.763 47.6955 26.763 50.7159C26.763 51.0654 26.6744 51.4312 26.9139 51.8332C28.9762 51.9119 31.063 51.9267 33.0876 51.3918V44.644C32.8736 44.845 32.6491 45.0345 32.4149 45.2116C32.2489 45.3421 32.0556 45.4335 31.8493 45.4789C31.6431 45.5244 31.4293 45.5227 31.2238 45.4741C30.1279 45.1886 29.6455 43.9582 30.4035 43.1182C31.4705 41.935 32.6009 40.8106 33.7897 39.75C34.6101 39.0232 35.7847 39.4842 36.0866 40.5375C36.1703 40.8853 36.2029 41.2434 36.1834 41.6006C36.1834 44.1993 36.1834 46.7981 36.1834 49.3969C36.1834 49.743 36.0883 50.1105 36.3475 50.5026C37.4138 50.1706 38.4366 49.7124 39.3941 49.1376C39.3941 48.4683 39.3941 47.8514 39.3941 47.2361C39.3941 46.2633 39.3679 45.292 39.5582 44.324C40.1521 41.2315 43.3169 39.0117 46.4357 39.476C47.2396 39.5958 47.9647 39.9403 48.7687 40.1667C49.6119 38.6901 50.3322 37.2136 50.7686 35.6025C50.5881 35.4794 50.4601 35.3826 50.324 35.3006ZM18.8912 34.7379C18.8076 35.5861 18.235 36.1324 17.4327 36.1357C17.0555 36.1302 16.6939 35.984 16.4189 35.7257C16.1439 35.4674 15.9753 35.1157 15.9463 34.7395C15.9285 34.4807 15.9247 34.2211 15.9348 33.9619C15.9348 31.6267 15.9348 29.2921 15.9348 26.958V25.9851C15.5493 26.0278 15.4164 26.3346 15.1752 26.4773C14.8762 26.6765 14.5167 26.7642 14.1595 26.7253C13.8024 26.6863 13.4703 26.523 13.2212 26.264C12.6929 25.6882 12.6224 24.9253 13.1819 24.3281C14.245 23.1911 15.3573 22.0985 16.4844 21.0239C16.681 20.8239 16.9375 20.6934 17.2149 20.6523C17.4923 20.6111 17.7755 20.6615 18.0217 20.7958C18.568 21.06 18.8781 21.4734 18.8978 22.0854C18.9076 22.3446 18.9126 22.6038 18.9126 22.863V33.9536C18.9109 34.2194 18.9158 34.4803 18.8912 34.7379ZM30.3904 29.2434V36.5786H26.361V29.2434C25.3803 28.785 24.5852 28.0059 24.1071 27.0346C23.629 26.0634 23.4963 24.9581 23.7311 23.9013C23.9659 22.8445 24.5541 21.8994 25.3985 21.222C26.2429 20.5446 27.2931 20.1754 28.3757 20.1754C29.4582 20.1754 30.5084 20.5446 31.3529 21.222C32.1973 21.8994 32.7855 22.8445 33.0202 23.9013C33.255 24.9581 33.1224 26.0634 32.6443 27.0346C32.1661 28.0059 31.3711 28.785 30.3904 29.2434ZM44.0076 22.7186V34.0209C44.0261 34.345 43.9968 34.6701 43.9206 34.9856C43.7155 35.6796 43.1905 36.1193 42.5212 36.134C41.8206 36.1537 41.2464 35.6927 41.0347 34.961C40.965 34.6439 40.9407 34.3186 40.9626 33.9947C40.9626 31.6573 40.9626 29.3189 40.9626 26.9794V25.849C40.6131 26.1476 40.454 26.3067 40.2702 26.4363C39.9812 26.6532 39.6245 26.7603 39.2638 26.7383C38.9032 26.7164 38.562 26.5669 38.3015 26.3165C37.7322 25.7423 37.6862 24.9647 38.244 24.3002C38.6394 23.8277 39.1021 23.4126 39.5369 22.9746C40.134 22.3758 40.7263 21.772 41.3415 21.1879C41.7845 20.763 42.2964 20.5054 42.933 20.7401C43.6253 20.9944 43.937 21.5243 44.0026 22.2281C44.0158 22.3938 44.0076 22.5562 44.0076 22.7186Z" fill="white"/>
<path d="M28.3755 55.7509C43.4945 55.7509 55.7509 43.4945 55.7509 28.3755C55.7509 13.2564 43.4945 1 28.3755 1C13.2564 1 1 13.2564 1 28.3755C1 43.4945 13.2564 55.7509 28.3755 55.7509Z" stroke="white" stroke-width="2" stroke-miterlimit="10"/>
</svg>
