<?xml version="1.0" encoding="utf-8"?>
<!-- Generator: Adobe Illustrator 24.0.0, SVG Export Plug-In . SVG Version: 6.00 Build 0)  -->
<svg version="1.1" id="Capa_1" xmlns="http://www.w3.org/2000/svg" xmlns:xlink="http://www.w3.org/1999/xlink" x="0px" y="0px"
	 viewBox="0 0 65.7 82.9" style="enable-background:new 0 0 65.7 82.9;" xml:space="preserve">
<style type="text/css">
	.st0{fill:#FFFFFF;}
	.st1{fill:#FFFFFF;filter:url(#Adobe_OpacityMaskFilter);}
	.st2{mask:url(#mask0_501_160_1_);}
</style>
<g>
	<path class="st0" d="M51.5,39.8c-0.3,0-0.5-0.1-0.7-0.4c-0.1-0.2-0.1-0.5,0-0.8l1.6-2.6c0.2-0.4,0.7-0.5,1-0.3
		c0.4,0.2,0.5,0.7,0.3,1l-0.8,1.4c4.7-0.7,8.4-4.7,8.4-9.7c0-0.4,0.3-0.8,0.8-0.8s0.8,0.3,0.8,0.8C62.8,34.7,57.7,39.8,51.5,39.8z
		 M32,20.3c-0.4,0-0.8-0.3-0.8-0.8c0-6.2,5-11.2,11.3-11.2c0.3,0,0.5,0.1,0.7,0.4c0.1,0.2,0.1,0.5,0,0.8L41.6,12
		c-0.2,0.4-0.7,0.5-1,0.3c-0.4-0.2-0.5-0.7-0.3-1l0.8-1.4c-4.7,0.7-8.4,4.7-8.4,9.7C32.8,19.9,32.4,20.3,32,20.3z"/>
</g>
<g>
	<path class="st0" d="M56.5,24.6c-4.4,0-8.1-3.1-8.1-6.9v-4c0-0.4,0.3-0.8,0.8-0.8s0.8,0.3,0.8,0.8c0,2.9,2.8,5,6.6,5s6.6-2.2,6.6-5
		c0-0.4,0.3-0.8,0.8-0.8s0.8,0.3,0.8,0.8v4C64.6,21.5,60.9,24.6,56.5,24.6z M49.9,17.6v0.1c0,3,2.9,5.4,6.6,5.4s6.6-2.4,6.6-5.4
		v-0.1c-1.4,1.6-3.8,2.6-6.6,2.6S51.4,19.2,49.9,17.6z"/>
</g>
<g>
	<path class="st0" d="M56.5,14.8c-3.1,0-5.8-1.3-7.2-3.5c-0.6-0.9-0.9-2-0.9-3.1c0-1.9,0.9-3.6,2.4-4.9c1.5-1.3,3.5-2,5.7-2
		c2.1,0,4.1,0.7,5.7,2c1.6,1.3,2.4,3.1,2.4,4.9c0,1.1-0.3,2.2-0.9,3.1C62.3,13.5,59.6,14.8,56.5,14.8z M56.5,2.9
		c-1.8,0-3.4,0.6-4.7,1.6c-1.2,1-1.9,2.3-1.9,3.7c0,0.8,0.2,1.6,0.7,2.3c1.1,1.7,3.3,2.8,5.9,2.8s4.8-1.1,5.9-2.8
		c0.4-0.7,0.7-1.5,0.7-2.3c0-1.4-0.7-2.7-1.9-3.8C59.9,3.5,58.3,2.9,56.5,2.9z"/>
</g>
<g>
	<path class="st0" d="M56.5,20.3c-4.6,0-8.1-2.8-8.1-6.5V8.3c0-3.8,3.6-6.9,8.1-6.9c2.1,0,4.1,0.7,5.7,2c1.6,1.3,2.4,3.1,2.4,4.9
		v5.4C64.6,17.4,61.1,20.3,56.5,20.3z M56.5,2.9c-3.6,0-6.6,2.4-6.6,5.4v5.4c0,2.9,2.8,5,6.6,5s6.6-2.2,6.6-5V8.3
		c0-1.4-0.7-2.7-1.9-3.8C59.9,3.5,58.3,2.9,56.5,2.9z"/>
</g>
<g>
	<g>
		<g>
			<path class="st0" d="M37.6,39.5L22,49.5l5-2.5h10.5v4.3c0,1.8-1.4,3.2-3.1,3.2H15.7c-2.4,0-4.3-2-4.3-4.5v-3L27,37l-5,2.5H11.4
				v-3.7c0-1.8,1.4-3.2,3.1-3.2h20c1.7,0,3.1,1.5,3.1,3.2V36c0,0.1,0.1,0.2,0.2,0.2H47C46.9,29.5,42.8,24,36.3,24H12.7
				C6.8,24,2,29,2,35.1v15.4C2,57.4,7.4,63,13.9,63h22.4C42.2,63,47,58,47,51.9V39.5H37.6z"/>
		</g>
	</g>
</g>
<defs>
	<filter id="Adobe_OpacityMaskFilter" filterUnits="userSpaceOnUse" x="1" y="69" width="63" height="12">
		<feColorMatrix  type="matrix" values="1 0 0 0 0  0 1 0 0 0  0 0 1 0 0  0 0 0 1 0"/>
	</filter>
</defs>
<mask maskUnits="userSpaceOnUse" x="1" y="69" width="63" height="12" id="mask0_501_160_1_">
	<path class="st1" d="M44.4,90c2.5,0,4.9,0,7.4,0c0.2-0.6,0.5-1,0.8-1.5c0.5-0.9,1.1-1.7,1.7-2.5c0.6-0.9,1.2-1.9,1.8-2.8
		c0.7-1,1.3-2.1,2.1-3c0.2-0.2,0.3-0.6,0.3-0.9l0,0c-0.1-0.1-0.3,0-0.4-0.2c0.1-0.3,0.2-0.6,0.5-0.8c0.3-0.3,0.3-0.7,0.2-1.1
		c-0.2-0.5-0.4-1.1-0.7-1.5c-0.9-1.1-1.8-2.1-2.8-3.1c-1-1-2.1-2-3.2-3c-0.7-0.6-1.4-1.3-2.2-1.9c-1.4-1.2-2.9-2.3-4.6-3.2
		c-0.7-0.4-1.4-0.8-2.2-0.8c-0.2,0.4-0.2,0.7-0.3,1.1c-0.6,2.4-1.2,4.9-1.9,7.3c-0.2,0.8-0.5,1.7-0.8,2.5c-0.5,1.6-1.1,3.2-1.7,4.7
		c-0.4,1-0.9,1.9-1.1,3.1c0.9-0.4,1.9-0.5,2.8-0.6c2.7-0.2,5.3-0.6,8-1.1c2.5-0.4,5.1-0.7,7.6-1.2c0.4-0.1,0.9-0.3,1.3-0.1
		c-1.3,0.4-2.6,0.7-4,0.9c-0.8,0.1-1.5,0.1-2.3,0.3c-3,0.6-5.9,1.1-9,1.3c-1.5,0.1-2.9,0.5-4.4,0.9c0,0.2,0,0.3,0,0.3
		c0.3,1.1,1.3,1.7,2.1,2.3c0.6,0.5,1.3,1.1,1.9,1.6c0.8,0.8,1.6,1.5,2.4,2.2C44.1,89.5,44.3,89.7,44.4,90z M42.8,84.2L42.8,84.2
		L42.8,84.2L42.8,84.2L42.8,84.2z M39.3,80.6C39.4,80.6,39.4,80.5,39.3,80.6c0.1-0.1,0.1-0.1,0.1-0.1C39.5,80.6,39.5,80.6,39.3,80.6
		C39.4,80.7,39.4,80.6,39.3,80.6z M43.8,87.1c0.1,0,0.1,0,0.1,0.1c0,0,0,0-0.1,0C43.7,87.2,43.7,87.2,43.8,87.1
		C43.7,87.1,43.8,87.1,43.8,87.1z M45.6,82.6C45.7,82.6,45.7,82.6,45.6,82.6c0,0.1,0,0.1,0,0.1C45.6,82.7,45.5,82.7,45.6,82.6
		C45.6,82.6,45.6,82.6,45.6,82.6z M45.4,87.2C45.4,87.2,45.4,87.1,45.4,87.2c0.1-0.1,0.1-0.1,0.1,0C45.5,87.2,45.5,87.2,45.4,87.2
		C45.4,87.2,45.4,87.2,45.4,87.2z M44.4,86.1C44.4,86.1,44.5,86,44.4,86.1C44.6,86.1,44.6,86.1,44.4,86.1
		C44.5,86.2,44.5,86.2,44.4,86.1C44.4,86.1,44.4,86.1,44.4,86.1z M46.4,86.1C46.4,86.1,46.3,86.2,46.4,86.1c-0.2,0-0.2,0-0.1-0.1
		C46.3,86,46.3,86,46.4,86.1C46.4,86.1,46.4,86.1,46.4,86.1z M42.1,83.1L42.1,83.1l-0.1,0L42.1,83.1z M41.4,84.7L41.4,84.7
		L41.4,84.7L41.4,84.7z"/>
	<path class="st0" d="M21.2,90c0.2-0.4,0.6-0.5,0.9-0.7c0.5-0.3,1-0.5,1.5-0.7c1.5-0.6,3-1.5,4.6-2c0.1,0,0.2,0,0.3-0.1
		c1.6-0.9,3.3-1.5,5-2.4c0.5-0.2,0.7-0.6,1-1c0-0.6-0.4-1.1-0.7-1.5c-0.6-0.9-1.4-1.6-2.1-2.4c-1-1.1-2.1-2.2-3.1-3.2
		c-1.3-1.3-2.7-2.6-4.2-3.8c-0.4-0.3-0.8-0.3-1.3-0.3c-1.3,0.2-2.4,0.7-3.5,1.6c-1.8,1.5-3.5,3.1-5.2,4.6c-1.7,1.5-3.3,3.2-4.9,4.8
		c-2.1,2.1-4,4.3-6,6.4C3.3,89.5,3.1,89.7,3,90c4.7,0,9.3,0,14,0c0-0.1,0-0.1,0-0.2c-0.1,0-0.3,0-0.3-0.2c0.2-0.1,0.2,0.1,0.3,0.2
		c0.1,0.1,0.1,0.1,0.2,0.2C18.6,90,19.9,90,21.2,90z M22.4,81.4c-0.1,0-0.1,0-0.1,0S22.4,81.4,22.4,81.4z M15.2,80.8
		c-0.1-0.1-0.2-0.1-0.2-0.3C15.2,80.5,15.2,80.7,15.2,80.8L15.2,80.8L15.2,80.8z M13.6,80.4c0.2-0.2,0.3,0,0.5,0
		c0.1,0,0.3,0.1,0.3,0.3C14,80.8,13.8,80.7,13.6,80.4z M12.5,82.7c-0.4-0.1-0.7-0.3-1-0.7C12.1,82.1,12.3,82.4,12.5,82.7z
		 M13.2,83.1c0.1,0,0.2,0,0.2,0.1c0,0,0,0.1-0.1,0C13.3,83.3,13.2,83.2,13.2,83.1z M30.1,83.4c0,0-0.1-0.1-0.1-0.1
		c0-0.1,0-0.1,0.1-0.1c0,0,0,0,0.1,0.1C30.1,83.3,30.1,83.4,30.1,83.4z M15.4,79.8c-0.1,0-0.1,0-0.1-0.1c0,0,0-0.1,0.1-0.1
		c0.1,0,0.1,0,0.1,0.1C15.5,79.7,15.4,79.8,15.4,79.8z M17,78.1c-0.1,0.1-0.2,0-0.2-0.1c0,0,0-0.1,0-0.1C16.9,77.9,17,77.9,17,78.1z
		 M27.2,76.2c0.1-0.1,0.2,0,0.2,0.1c0,0,0,0.1,0,0.1C27.3,76.3,27.2,76.3,27.2,76.2z M20.5,75.5C20.5,75.5,20.5,75.5,20.5,75.5
		C20.5,75.5,20.5,75.4,20.5,75.5C20.5,75.4,20.6,75.5,20.5,75.5C20.6,75.5,20.6,75.5,20.5,75.5z M27,86.1C27,86.1,27,86.1,27,86.1
		C26.9,86,27,86,27,86C27,86,27,86,27,86.1C27,86,27,86.1,27,86.1z M32.2,83.9C32.2,83.9,32.2,83.9,32.2,83.9
		c0.1-0.1,0.1-0.1,0.1-0.1C32.4,83.9,32.3,84,32.2,83.9C32.3,84,32.2,83.9,32.2,83.9z M14.3,79.3L14.3,79.3L14.3,79.3L14.3,79.3z
		 M30.6,84.3L30.6,84.3L30.6,84.3L30.6,84.3z"/>
	<path class="st0" d="M48,59.6c-0.4,0.6-1.1,0.9-1.7,1.2c-0.7,0.4-1.2,0.9-1.7,1.3c0,0.6,0.4,1,0.8,1.3c0.6,0.6,1.2,1.1,2,1.5
		c0.6,0.3,1.1,0.8,1.6,1.3c1.8,1.6,3.6,3.2,5.3,4.8c1.7,1.5,3.2,3.3,4.7,5c0.8,0.9,1.8,0.7,2.3-0.4c0.7-1.6,1.5-3.2,2.1-4.8
		c0.1-0.3,0.2-0.6,0.5-0.8c0-5.9,0-11.9,0-17.8c-1.1,0.3-2.2,0.7-3.1,1.2c-1.5,0.7-3,1.3-4.4,2c-1.7,0.8-3.4,1.6-5,2.4
		c-0.3,0.2-0.6,0.4-1,0.4l0,0c-0.5,0.4-1.1,0.8-1.6,1.2C48.6,59.5,48.3,59.7,48,59.6L48,59.6z"/>
	<path class="st0" d="M46.6,28.8c-0.5,0.6-1.1,0.8-1.7,1.1c-0.5,0.2-1,0.3-1.5,0.7c0.4,0.6,1,0.9,1.5,1.3c1.1,1,2.3,1.9,3.3,3
		c0.4,0.4,1.1,0.6,1.2,1.4l0,0c0.5,0.1,0.8,0.3,1.1,0.7c0.2,0.4,0.6,0.6,0.9,0.9c0.6,0.5,1.1,1,1.6,1.6c0.7,0.7,1.4,1.3,2,2
		c0.6,0.6,1,1.4,1.7,1.9c0.2,0.2,0.3,0.5,0.3,0.7l0,0c0.6,0.3,1.1,0.7,1.2,1.4l0,0c0.1,0.1,0.2,0.2,0.2,0.2l0,0
		c0.6,0.2,0.9,0.7,1,1.2l0,0c0.1,0.1,0.2,0.2,0.2,0.2l0,0c0.4,0.4,0.9,0.7,1,1.2l0,0c0.2,0.1,0.2,0.3,0.2,0.4l0,0
		c0.3,0.2,0.5,0.5,0.6,0.8l0,0c0.3,0,0.4,0.2,0.4,0.4l0,0c0.5,0.7,1,1.4,1.5,2.2c0.3-0.1,0.5-0.1,0.7-0.2C64,43.9,64,36,64,28
		c-5.3,0-10.7,0-16,0c-0.1,0.3-0.3,0.4-0.6,0.4l0,0c-0.1,0.2-0.3,0.2-0.4,0.2l0,0C46.9,28.8,46.7,28.8,46.6,28.8L46.6,28.8z"/>
	<path class="st0" d="M0,77.8c0.5,0,1-0.2,1.4-0.4c2.5-1.1,5.1-1.8,7.7-2.7c2-0.7,4-1.2,6-1.9c1.8-0.7,3.8-1.1,5.6-1.6
		c0.9-0.2,1.1-0.4,1.6-1.1c0.1-0.4-0.2-0.8-0.5-1c-0.9-0.9-1.7-1.7-2.7-2.5c-1.4-1.3-2.8-2.5-4.2-3.8c-1.6-1.4-3.2-2.7-4.9-3.9
		c-0.8-0.6-1.3-0.6-2.2,0c-0.9,0.6-1.6,1.5-2.2,2.4c-0.6,0.8-1.2,1.7-1.8,2.5c-0.7,0.9-1.3,1.9-2,2.9c-0.6,0.9-1.2,1.8-1.9,2.7
		c0,2.1,0,4.3,0,6.4c0.1,0,0.2,0.1,0.2,0.2C0.3,76,0.1,76,0,76C0,76.6,0,77.2,0,77.8z M11.2,62L11.2,62L11.2,62L11.2,62z M5.2,62.8
		L5.2,62.8L5.2,62.8c0.1,0,0.1,0,0.1,0C5.3,62.8,5.3,62.8,5.2,62.8z M8.4,61.8c0,0-0.2,0.1-0.2-0.1C8.3,61.7,8.3,61.8,8.4,61.8
		c0,0,0.1,0,0.2,0.1C8.5,61.9,8.5,61.8,8.4,61.8z M2.8,72.2c-0.1,0-0.1,0-0.1-0.1C2.7,72.2,2.7,72.2,2.8,72.2
		c0.1,0.1,0.3,0.1,0.4,0.2c0.3,0,0.6,0.1,1,0.3c-0.5,0.3-0.7-0.1-0.9-0.3C3.1,72.4,2.9,72.3,2.8,72.2z M7.8,70.8
		c-0.1,0-0.2,0.1-0.2-0.1C7.7,70.7,7.7,70.7,7.8,70.8L7.8,70.8z M10.8,70c-0.1,0-0.1,0-0.1,0C10.7,70,10.8,70,10.8,70L10.8,70z
		 M12.8,65.6c-0.1,0-0.3,0.1-0.4-0.1C12.6,65.4,12.7,65.5,12.8,65.6L12.8,65.6z M11.6,66.8c-0.1,0-0.2,0-0.3-0.2
		C11.5,66.6,11.5,66.7,11.6,66.8L11.6,66.8L11.6,66.8z M12.8,63.6c-0.1,0-0.2,0-0.4-0.1C12.6,63.4,12.7,63.5,12.8,63.6
		C12.8,63.6,12.9,63.6,12.8,63.6C12.9,63.7,12.8,63.6,12.8,63.6z M9.6,68.8c0.1,0.1,0.2,0.1,0.2,0.3C9.6,69,9.7,68.9,9.6,68.8
		L9.6,68.8L9.6,68.8z M6,65.6c0.1,0,0.2,0,0.2,0.2C6.1,65.8,6.1,65.7,6,65.6C6,65.6,5.9,65.6,6,65.6C5.9,65.5,6,65.6,6,65.6z
		 M3.2,66.6c-0.2,0.1-0.4,0.2-0.6,0.2c-0.1,0-0.1,0.1-0.1,0c0,0,0,0,0.1,0C2.7,66.4,2.9,66.4,3.2,66.6c0,0.1,0.2,0,0.1,0.3
		C3.3,66.7,3.3,66.7,3.2,66.6z M10.6,66.8c-0.3,0-0.6,0-0.8-0.3C10.2,66.4,10.4,66.6,10.6,66.8c0,0.1,0.2,0.1,0.1,0.3
		C10.6,67,10.7,66.9,10.6,66.8z M0.6,70.6c0.3,0.1,0.4,0.2,0.1,0.5C0.5,70.9,0.6,70.8,0.6,70.6L0.6,70.6z M6.4,74.2L6.4,74.2
		c-0.1,0.4-0.1,0.4-0.4,0.4C6.1,74.3,6.3,74.3,6.4,74.2z M8.2,69.4c-0.3,0-0.7,0-0.8-0.5C7.8,69,8,69.2,8.2,69.4
		c0.1,0.1,0.4,0,0.3,0.3C8.3,69.7,8.3,69.5,8.2,69.4z M4.8,68.6c0.3,0,0.7,0,0.9,0.3C5.4,68.8,5.1,68.8,4.8,68.6
		c0-0.1-0.2,0-0.2-0.1C4.7,68.5,4.8,68.6,4.8,68.6z M8.2,67c-0.3,0.2-0.6,0-0.9-0.3C7.7,66.7,8,66.8,8.2,67c0,0,0.1,0,0.2,0.1
		C8.3,67.1,8.3,67,8.2,67z M16,70.4c0.3,0,0.6,0.1,0.9,0.5C16.4,70.9,16.2,70.7,16,70.4L16,70.4L16,70.4z M10.8,73.2
		c-0.2,0.1-0.5,0.3-0.7-0.1C10.4,72.9,10.6,72.7,10.8,73.2C10.8,73.2,10.9,73.2,10.8,73.2C10.9,73.3,10.9,73.2,10.8,73.2z
		 M14.6,69.6c-0.8-0.1-1.5-0.2-2.1-0.7C13.1,69.3,14.1,68.5,14.6,69.6z M8.6,70.4c0.8,0,1.2,0.4,1.7,0.8C9.5,71.5,9.3,70.8,8.6,70.4
		z M12.4,61.8c-0.5-0.3-1.1-0.3-1.6-0.8C11.5,61.1,12,61,12.4,61.8z M8.5,73c0.6,0.1,0.7,0.4,0.7,0.9C8.8,73.8,8.7,73.4,8.5,73z
		 M5.8,67.1c-0.5,0-0.5,0-0.9-0.3C5.2,66.7,5.5,66.7,5.8,67.1z M18.2,69.6c-0.6,0.1-0.6,0.1-0.9-0.3C17.5,69.4,17.8,69.5,18.2,69.6z
		 M11.4,72.1c-0.3,0.3-0.5,0.2-0.8,0C10.9,71.9,11.1,71.8,11.4,72.1z M6.9,67.9c-0.3,0-0.4-0.1-0.5-0.4C6.7,67.5,6.9,67.5,6.9,67.9z
		 M6.2,69.6c0.4,0.1,0.6,0.2,0.7,0.6C6.6,70,6.4,69.9,6.2,69.6z M11.9,68.3c-0.3,0-0.5,0-0.6-0.2C11.5,67.9,11.7,67.9,11.9,68.3z
		 M5.2,70.5c0.3,0,0.4,0.1,0.2,0.4C5.3,70.8,5.1,70.8,5.2,70.5z M0.4,72.6c0.4,0.3,0.4,0.3,0.5,0.6C0.6,73.1,0.5,73,0.4,72.6z
		 M15.2,72c0,0,0.1-0.1,0.1-0.1c0,0,0.1,0,0.1,0.1c0,0.1-0.1,0.2-0.2,0.1C15.3,72.1,15.2,72,15.2,72z M8.6,65.2
		C8.8,65,8.9,65.1,9,65.3C8.8,65.4,8.6,65.4,8.6,65.2z M7.8,73.9c-0.1,0.3-0.2,0.3-0.4,0.1C7.5,73.8,7.6,73.7,7.8,73.9z M19.2,67.9
		c0.2-0.2,0.3-0.1,0.4,0.2C19.4,68.2,19.3,68.2,19.2,67.9z M9.6,61.9c0.2-0.1,0.4-0.1,0.4,0.2C9.8,62.2,9.7,62.2,9.6,61.9z
		 M13.8,62.7c-0.2,0.1-0.3,0.1-0.4-0.3C13.6,62.5,13.8,62.4,13.8,62.7z M6.5,73.3c-0.1,0-0.1-0.1-0.2-0.1c0,0,0-0.1,0.1-0.1
		c0.1,0,0.2,0,0.2,0.1C6.6,73.2,6.6,73.3,6.5,73.3z M8.6,60.7c-0.3,0.1-0.4,0.1-0.4-0.2C8.4,60.4,8.5,60.5,8.6,60.7z M17.5,70.3
		c0,0,0.1,0.1,0.1,0.1c0,0-0.1,0.1-0.1,0.1c-0.1,0-0.2-0.1-0.1-0.2C17.4,70.3,17.5,70.3,17.5,70.3z M18.7,70.9
		c0.1-0.1,0.3-0.1,0.3,0.1C18.8,71.1,18.7,71,18.7,70.9z M14,71.1c-0.2,0.1-0.4,0.1-0.5,0C13.7,71,13.8,71,14,71.1z M2.2,71.3
		c0.2,0,0.3,0,0.3,0.2C2.4,71.5,2.3,71.5,2.2,71.3z M6.4,71.8c0-0.1,0-0.1,0.1-0.1c0.1,0,0.1,0,0.2,0.1c0,0,0,0.1-0.1,0.1
		C6.5,71.9,6.5,71.8,6.4,71.8z M11.6,63.5c-0.2,0-0.3,0-0.4-0.2C11.4,63.3,11.5,63.3,11.6,63.5z M8.4,63.7c0.2,0,0.4,0,0.3,0.2
		C8.6,63.9,8.5,63.9,8.4,63.7z M3.8,64.9c0-0.2,0.2-0.2,0.3-0.1C4.1,64.9,4,64.9,3.8,64.9z M10.4,68.4c0,0.1,0,0.1-0.1,0.1
		c0,0-0.1,0-0.1,0c-0.1-0.1,0-0.1,0-0.1C10.3,68.3,10.3,68.4,10.4,68.4z M16.3,68.7c-0.2-0.1-0.4,0-0.4-0.2
		C16,68.4,16.1,68.5,16.3,68.7z M12.6,71.9C12.6,71.9,12.6,71.9,12.6,71.9c-0.1-0.1-0.1-0.1-0.1-0.1C12.6,71.7,12.7,71.7,12.6,71.9
		C12.7,71.8,12.7,71.9,12.6,71.9z M3.4,66c-0.1,0.1-0.2,0-0.2-0.1c0,0,0-0.1,0-0.1C3.4,65.9,3.4,65.9,3.4,66z M1,75.8
		C1,75.8,1,75.8,1,75.8C1,75.8,1.1,75.8,1,75.8C1.1,75.8,1.1,75.9,1,75.8C1,75.9,1,75.8,1,75.8z M18.4,67.5c-0.1,0-0.1,0-0.1,0
		c-0.1,0-0.1-0.1,0-0.2C18.4,67.3,18.4,67.4,18.4,67.5z M6.6,63C6.6,62.9,6.6,62.9,6.6,63c0.1-0.1,0.2-0.1,0.2-0.1
		c0.1,0.1,0.1,0.1,0,0.1C6.7,63.1,6.7,63,6.6,63z M1.6,73.9c-0.1-0.1-0.2,0-0.2-0.2C1.6,73.7,1.6,73.8,1.6,73.9z M10.6,67.7
		c-0.1,0-0.1,0-0.1-0.1c0-0.1,0-0.1,0.1-0.1c0,0,0.1,0,0.1,0C10.6,67.6,10.6,67.7,10.6,67.7z M14.2,64.7c-0.1,0-0.1-0.1-0.1-0.2
		c0,0,0.1,0,0.1,0C14.2,64.5,14.3,64.6,14.2,64.7z M10.4,64.6c-0.1-0.1-0.1-0.1,0-0.1c0,0,0.1,0,0.1,0c0,0,0,0.1,0,0.1
		C10.6,64.7,10.5,64.6,10.4,64.6z M5,72.1c-0.1,0.1-0.2,0-0.2,0c0,0,0-0.1,0-0.1C4.9,72,5,72,5,72.1z M15,65.2
		c-0.1-0.1-0.1-0.1,0-0.2c0,0,0.1,0,0.1,0C15.1,65,15,65.1,15,65.2z M7.6,71.4C7.6,71.4,7.6,71.4,7.6,71.4
		C7.6,71.5,7.6,71.5,7.6,71.4C7.6,71.5,7.6,71.4,7.6,71.4C7.6,71.4,7.6,71.4,7.6,71.4z M16.4,65.2C16.4,65.2,16.4,65.2,16.4,65.2
		C16.4,65.3,16.4,65.3,16.4,65.2C16.4,65.3,16.4,65.2,16.4,65.2C16.4,65.2,16.4,65.2,16.4,65.2z M17.3,71.2
		C17.4,71.1,17.4,71.2,17.3,71.2C17.4,71.2,17.4,71.3,17.3,71.2C17.4,71.3,17.3,71.2,17.3,71.2z M7.3,66.1C7.3,66,7.4,66,7.3,66.1
		C7.4,66,7.4,66.1,7.3,66.1C7.4,66.1,7.4,66.1,7.3,66.1z M12.7,62.3C12.7,62.3,12.7,62.2,12.7,62.3c0.2,0,0.2,0,0.1,0.1
		C12.8,62.4,12.7,62.3,12.7,62.3C12.7,62.3,12.7,62.3,12.7,62.3z M13.1,70.3C13.1,70.3,13.2,70.3,13.1,70.3
		C13.2,70.3,13.2,70.3,13.1,70.3C13.1,70.3,13.1,70.3,13.1,70.3C13.1,70.3,13.1,70.3,13.1,70.3z M0.3,74.8
		C0.3,74.8,0.4,74.8,0.3,74.8c0.1,0,0.1,0,0.1,0C0.5,74.9,0.4,74.9,0.3,74.8C0.3,74.9,0.3,74.8,0.3,74.8z M4.4,74.7
		c-0.1-0.1,0-0.1,0-0.1C4.5,74.6,4.5,74.6,4.4,74.7C4.5,74.7,4.5,74.7,4.4,74.7z M3.6,74.2C3.6,74.2,3.6,74.2,3.6,74.2
		c0-0.1,0-0.1,0-0.1C3.7,74.1,3.7,74.2,3.6,74.2C3.7,74.2,3.7,74.2,3.6,74.2z M5.3,73.2c0.1,0.1,0,0.1,0,0.1
		C5.2,73.3,5.2,73.2,5.3,73.2C5.2,73.2,5.2,73.2,5.3,73.2z M7.8,72.7C7.8,72.7,7.9,72.7,7.8,72.7c0.1,0.1,0.1,0.1,0.1,0.1
		C7.9,72.8,7.8,72.8,7.8,72.7C7.8,72.8,7.8,72.7,7.8,72.7z M1.3,70.1C1.3,70.1,1.4,70.1,1.3,70.1C1.3,70.2,1.3,70.2,1.3,70.1
		C1.3,70.1,1.3,70.1,1.3,70.1z M12.3,72.9C12.3,72.9,12.3,72.9,12.3,72.9c-0.1,0-0.1,0-0.1,0C12.2,72.8,12.3,72.8,12.3,72.9
		C12.3,72.8,12.3,72.8,12.3,72.9z M13.2,72.7C13.2,72.7,13.3,72.7,13.2,72.7c0.1,0.1,0.1,0.1,0,0.1c0,0-0.1,0-0.1,0
		C13.2,72.8,13.2,72.7,13.2,72.7z M8.6,70.1C8.7,70.1,8.7,70.1,8.6,70.1c0.1-0.1,0.1-0.1,0.1-0.1C8.8,70.1,8.8,70.1,8.6,70.1
		C8.7,70.2,8.7,70.1,8.6,70.1z M15.4,69.7L15.4,69.7L15.4,69.7L15.4,69.7z M3.8,67.7L3.8,67.7L3.8,67.7L3.8,67.7z"/>
	<path class="st0" d="M2.4,90c0.1-0.6,0.7-1,1-1.4c0.5-0.6,1-1.1,1.5-1.7c0.8-0.9,1.6-1.7,2.4-2.5c0.4-0.5,0.9-1,1.4-1.4
		c0.7-0.6,1.3-1.3,2-1.9c0.8-0.7,1.5-1.5,2.3-2.2c0.7-0.6,1.4-1.3,2-1.9c1.6-1.4,3.1-3,4.8-4.2c0.1-0.1,0.4-0.1,0.4-0.4
		c-0.2-0.2-0.4-0.1-0.7-0.1c-0.8,0.2-1.6,0.3-2.4,0.5c-2,0.6-4,1.3-6,1.9C9,75.2,7,76,5,76.7c-1.7,0.6-3.4,1.1-5,1.9
		c0,0.3,0,0.5,0,0.8c0.1,0,0.3,0,0.4,0.1c0,0.3-0.2,0.3-0.4,0.5c0,1.1,0,2.3,0,3.4c0,0.1,0,0.1,0,0.2c0,1.7,0,3.5,0,5.2
		c0.1,0.1,0.4,0,0.4,0.3c-0.1,0-0.3-0.1-0.4-0.1c0,0.2,0,0.4,0,0.6c0.4-0.1,0.7,0,0.8,0.4C1.4,90,1.9,90,2.4,90z M8,82.8L8,82.8
		L8,82.8L8,82.8z M12.6,77.8L12.6,77.8L12.6,77.8L12.6,77.8L12.6,77.8z M3,81.6c-0.1,0-0.1,0-0.1,0C2.9,81.6,3,81.6,3,81.6L3,81.6z
		 M8.8,81.6c-0.1,0-0.2,0.1-0.2-0.1C8.7,81.5,8.8,81.5,8.8,81.6L8.8,81.6L8.8,81.6z M8,76.8c0,0-0.1-0.1,0-0.2C8,76.7,8,76.8,8,76.8
		c0,0,0.1,0,0.2,0.1C8.1,76.9,8.1,76.8,8,76.8z M9.6,77c-0.2-0.1-0.4-0.1-0.2-0.4C9.6,76.7,9.6,76.9,9.6,77L9.6,77z M10.4,79
		c-0.2-0.2-0.6-0.1-0.7-0.4C10.2,78.4,10.3,78.7,10.4,79c0,0.1,0.2,0.1,0.1,0.3C10.5,79.2,10.5,79.1,10.4,79z M0.9,79.3
		c0.4-0.2,0.6,0,0.8,0.4C1.3,79.9,1.1,79.8,0.9,79.3z M7,80.1c0,0.2-0.1,0.2-0.3,0.2c-0.1,0-0.4,0-0.3-0.3C6.7,79.8,6.9,79.8,7,80.1
		z M7.1,83.2c-0.5,0-0.8-0.2-1-0.5C6.4,82.7,6.7,82.8,7.1,83.2z M13.4,77.5c-0.4-0.1-0.6,0-0.8-0.2C12.9,77.1,13.1,77,13.4,77.5z
		 M8.5,78.1c0.4-0.1,0.5,0,0.6,0.3C8.8,78.5,8.7,78.4,8.5,78.1z M14.7,75.9c0.2-0.3,0.4-0.3,0.7-0.3C15.3,75.8,15.1,75.9,14.7,75.9z
		 M8.1,81.3c-0.2,0-0.4,0-0.4-0.2c0,0,0.1-0.1,0.1-0.1C8,80.9,8,81.1,8.1,81.3z M12.6,76.4c0-0.2,0.1-0.2,0.2-0.2
		c0.1,0,0.2,0.1,0.2,0.2c0,0.1-0.1,0.2-0.2,0.2C12.7,76.5,12.6,76.4,12.6,76.4z M3.5,78.2c-0.1,0-0.2-0.1-0.2-0.2
		c0-0.1,0.1-0.2,0.2-0.2c0.1,0,0.2,0.1,0.2,0.2C3.7,78.2,3.6,78.2,3.5,78.2z M11.3,76.3c0,0.1,0,0.1-0.1,0.2c0,0-0.1,0-0.2-0.1
		c-0.1-0.1,0-0.2,0.1-0.2C11.2,76.2,11.3,76.3,11.3,76.3z M2.9,79c-0.2,0.1-0.3,0-0.3-0.1c0,0,0.1-0.1,0.1-0.1
		C2.9,78.8,2.9,78.8,2.9,79z M5.2,79.9c-0.1,0-0.1-0.1-0.1-0.1c0,0,0-0.1,0.1-0.1c0.1,0,0.2,0,0.2,0.1C5.3,79.8,5.2,79.9,5.2,79.9z
		 M9,80.4c0.1,0.1,0.2,0.2,0.3,0.3c0,0-0.1,0.1-0.1,0.1C9,80.8,9,80.7,9,80.4z M1.5,81.2c0,0,0.1-0.1,0.1-0.1c0,0,0.1,0,0.1,0.1
		c0,0.1,0,0.2-0.1,0.1C1.6,81.3,1.6,81.2,1.5,81.2z M1.7,84.2c0,0.2-0.1,0.2-0.3,0.1C1.5,84.1,1.5,84.1,1.7,84.2z M6.2,81
		c0,0,0.1-0.1,0.1-0.1c0,0,0.1,0.1,0.1,0.1c0,0-0.1,0.1-0.1,0.1C6.3,81.1,6.2,81.1,6.2,81z M7.9,79C7.9,79,7.9,79,7.9,79
		c-0.1,0.1-0.1,0.1-0.1,0C7.8,79,7.8,78.9,7.9,79C7.8,78.9,7.9,79,7.9,79z M11.5,78.7c-0.2,0.1-0.3,0.1-0.2-0.2
		C11.4,78.5,11.4,78.5,11.5,78.7z M5.6,77.9C5.6,77.9,5.6,77.9,5.6,77.9C5.7,78,5.7,78,5.6,78C5.6,78,5.6,78,5.6,77.9
		C5.6,78,5.6,78,5.6,77.9z M10,79.4C10,79.3,10,79.3,10,79.4C10.1,79.3,10.1,79.4,10,79.4C10.1,79.4,10,79.4,10,79.4z M9.9,76
		C9.9,75.9,10,75.9,9.9,76C10.1,75.9,10.1,76,9.9,76C10,76,10,76,9.9,76C9.9,76,9.9,76,9.9,76z M9.5,80C9.5,80,9.6,80,9.5,80
		c0.1,0,0.1,0,0.1,0.1C9.6,80.1,9.6,80.1,9.5,80C9.5,80.1,9.5,80,9.5,80z M5.8,84.1C5.9,84.1,5.9,84.2,5.8,84.1
		C5.8,84.2,5.8,84.2,5.8,84.1C5.7,84.2,5.8,84.1,5.8,84.1z M4.4,82.8C4.4,82.8,4.4,82.8,4.4,82.8c0,0.1,0,0.1,0,0.1
		C4.3,82.9,4.3,82.9,4.4,82.8C4.4,82.8,4.4,82.8,4.4,82.8z M4.2,78.7L4.2,78.7L4.2,78.7L4.2,78.7z"/>
	<path class="st0" d="M15.2,44.2c0.3,0,0.5-0.1,0.7-0.4c-0.2-0.4-0.7-0.2-0.8-0.5c0.4-0.4,0.8,0.2,1.2-0.2c-0.3-0.6-0.9-0.3-1.4-0.6
		c0.6-0.3,1.1,0.2,1.7,0.2c0.8-1.2,1.6-2.5,2.5-3.8c-0.1-0.3-0.3-0.2-0.5-0.2c-1.8,0.1-3.5,0.6-5.2,1.2c-1.9,0.6-3.6,1.4-5.4,2.2
		c-1.8,0.7-3.5,1.6-5.3,2.5c-0.9,0.4-1.6,1-2.6,1.2c0,0.8,0,1.6,0,2.4c0,0.1,0,0.1,0,0.2c0,0.3,0,0.7,0,1c0.8-0.1,0.8-0.1,1,0.3
		c-0.3,0.2-0.6,0-1,0.1c0,0.1,0,0.3,0,0.4C0.7,50.3,1,51,1.7,51l0,0c-0.1-0.2-0.3-0.4-0.3-0.6c0.1-0.1,0.2-0.2,0.4-0.2
		c0.3,0.3,0.5,0.6,0.9,0.7c0.2,0,0.3,0.3,0.4,0.5l0,0c0.6,0.6,1.4,0.6,2.1,0.8c0.1-0.4-0.2-0.4-0.3-0.6c-0.1,0-0.1,0-0.1,0
		c0,0,0,0,0.1,0c0.2-0.1,0.3-0.1,0.5-0.1c0.3,0.2,0.3,0.6,0.7,0.9c0.4,0,0.8,0.3,1.3,0.5c0.6,0.3,1.3,0.4,2,0.6
		c0.2,0.1,0.4,0.1,0.5,0.5c-0.8,0.1-1.4-0.2-2.1-0.5c-0.7-0.3-1.3-0.7-2.1-0.9c-0.4-0.1-0.7-0.2-1.1-0.1c-0.4,0.2-0.7-0.4-1.1-0.2
		c-0.2,0.2-0.2,0.4-0.1,0.5c0.7,0.4,1.2,1,1.8,1.4c0.1,0.1,0.4,0.1,0.6,0.2c0-0.1,0-0.2,0-0.2l0,0c0,0,0,0,0,0.1c0,0,0,0.1,0,0.1
		c0.1,0.3,0.3,0.5,0.6,0.6c0-0.3,0-0.6,0.4-0.5c0.2,0,0.3,0.1,0.2,0.3C6.7,55.1,6.5,55,6.2,55c0.2,0.5,0.6,0.7,1.2,0.4
		c0.1,0.3-0.1,0.8,0.4,0.8c0.4,0,0.8,0.1,1.1,0c0.2,0,0.4-0.4,0.7-1c-0.6-0.4-1.3-0.5-1.9-0.8C7,54.2,6.4,54,5.8,53.6
		c-0.4,0-0.7-0.3-1-0.6c0.6,0.1,0.9,0.2,1,0.7c0.8-0.3,1.3,0,1.8,0.8c0.3-0.1,0.6-0.3,0.9-0.1c0.4,0.2,0.8,0.3,1.3,0.4
		c0.5-0.5,0.7-1.1,0.9-1.7c-0.3-0.4-0.9-0.3-1.1-0.6c-0.3-0.2-0.6-0.3-1-0.5c0.6-0.1,0.9,0,1,0.6c0.4-0.2,0.8,0.1,1.3,0
		c0.5-0.4,0.7-1.1,1-1.6c-0.1-0.4-0.6-0.1-0.7-0.5c0.2-0.4,0.7-0.2,1-0.4c0.1-0.1,0.1-0.2,0-0.4c-0.4-0.2-0.9-0.1-1.3-0.7
		c0.5,0.1,0.9,0.4,1.2,0.3l0,0l0,0c0,0.1,0,0.3,0,0.4c0.7-0.4,1-1.1,1.1-1.8c-0.1,0-0.2,0-0.2-0.1c0.1,0,0.1,0.1,0.2,0.1
		c0.2-0.1,0.4-0.2,0.5-0.4c0.1-0.4-0.4-0.3-0.5-0.6c0.3,0,0.5,0,0.7,0c0.5-0.4,0.6-1,1-1.6c-0.7-0.2-1.3-0.4-2.1-0.6
		c0.9-0.8,1.6,0.2,2.3,0.1C15.5,44.6,15.3,44.4,15.2,44.2c-0.1,0-0.2,0-0.4,0C15,44,15.1,44.2,15.2,44.2z M8.2,51.6L8.2,51.6
		L8.2,51.6L8.2,51.6L8.2,51.6z M9,50.6L9,50.6L9,50.6c-0.1,0.1-0.3,0.1-0.4,0c-0.1,0-0.2,0.1-0.2-0.1c0.1,0,0.1,0.1,0.2,0.1
		C8.8,50.6,8.9,50.6,9,50.6z M13.8,45.8c0,0,0.2,0,0.1,0.1C13.9,45.9,13.9,45.8,13.8,45.8c0-0.1-0.2,0-0.1-0.1
		C13.7,45.8,13.8,45.8,13.8,45.8z M3.2,49c-0.2,0-0.5,0.1-0.6-0.3C2.9,48.7,3.1,48.8,3.2,49L3.2,49L3.2,49z M9.4,44
		C9.3,44,9,44,9.1,43.7C9.3,43.7,9.4,43.9,9.4,44c0.1,0.1,0.2,0,0.3,0.2C9.5,44.2,9.5,44.1,9.4,44z M12,48c0.2,0.1,0.5,0,0.6,0.3
		C12.3,48.4,12.1,48.3,12,48c-0.2,0.1-0.4,0.2-0.6,0C11.7,47.7,11.8,47.9,12,48z M5.6,48L5.6,48c-0.3,0.6-0.6,0.2-0.9,0
		C5.1,47.8,5.3,48,5.6,48z M4.8,45.8c0.9-0.3,0.9-0.3,1.2,0.2C5.6,45.8,5.2,46.1,4.8,45.8c0,0-0.2,0-0.2-0.1
		C4.7,45.7,4.8,45.8,4.8,45.8z M9.6,50c0.4,0,0.7-0.1,1.1-0.3C10.4,50.5,10.4,50.5,9.6,50c-0.2-0.4-0.2-0.4,0.3-0.5
		C9.9,49.8,9.7,49.9,9.6,50z M4.4,49.8c0.3,0.1,0.8,0.1,0.9,0.6C4.7,50.4,4.7,50.4,4.4,49.8c0-0.1-0.2,0.1-0.2-0.1
		C4.3,49.7,4.4,49.8,4.4,49.8z M8,52.2c0.6,0,0.6,0.5,0.8,0.8c0.1-0.1,0.2-0.3,0.5-0.3c0.2,0.2,0.4,0.3,0.7,0.5c0,0,0,0.1-0.1,0.1
		c-0.4-0.1-0.8-0.2-1.1-0.3c-0.5-0.1-1-0.2-1.5-0.6C7.6,52.3,7.9,52.4,8,52.2L8,52.2z M2,49c-0.6,0-0.9-0.2-1.3-0.7
		c-0.1-0.2-0.2-0.4,0.1-0.6c0.1,0.4,0.5,0.5,0.8,0.6C2.1,48.4,2.1,48.7,2,49c0.1,0.1,0.2,0,0.2,0.2C2,49.3,2.1,49.1,2,49z M4.8,49
		c0.8,0.3,1.7,0.3,2.3,1.2C5.6,49.9,5.4,49.7,4.8,49c-0.2,0.1-0.4,0.3-0.6,0C4.5,48.7,4.6,48.9,4.8,49z M8,47.6
		C7,47.7,6,47,4.9,47.1c0.3-0.5,0.6-0.4,0.9-0.4c0.8,0.1,1.5,0.5,2.3,0.7l0,0C8,47.5,8,47.6,8,47.6c0.3,0,0.6-0.1,0.8,0.3
		C8.4,48.1,8.2,47.9,8,47.6z M8.2,49.7c-0.1-0.6-0.5-0.8-1.1-0.8c-0.4,0-0.8,0-1-0.4c0.5-0.4,0.7-0.5,1.1-0.1
		C7.6,48.7,8,48.8,8.4,49c0.2,0.1,0.3,0.2,0.3,0.4C8.7,49.5,8.6,49.6,8.2,49.7z M3.3,50.8c0.7-0.1,0.7-0.1,1,0.4
		C4,51.2,3.7,51.3,3.3,50.8z M13.5,41.1c-0.2,0.3-0.4,0.3-0.7,0.1c-0.2-0.1-0.2-0.3,0-0.5C13.1,40.7,13.3,40.9,13.5,41.1z M4.1,44.1
		c0.5,0.3,0.9,0.3,1.1,0.8C4.6,45.1,4.4,44.8,4.1,44.1z M15.9,40.9c-0.3-0.3-0.8-0.3-0.9-0.8C15.4,40.2,15.7,40.4,15.9,40.9z
		 M2.6,49.8c0.4,0,0.8-0.1,1.1,0.2C3.2,50.5,2.9,50,2.6,49.8z M1.4,45.7c0.3,0.1,0.5,0.3,0.5,0.6c-0.3,0.2-0.5,0.1-0.7-0.2
		C1,45.9,1.1,45.8,1.4,45.7z M4.2,46.7c-0.4,0.4-0.4,0.4-0.8-0.2C3.9,46.5,3.9,46.5,4.2,46.7z M1.2,47.3c0.5-0.2,0.5-0.2,0.6,0.1
		c0,0.2,0,0.3-0.2,0.4C1.3,47.7,1.2,47.6,1.2,47.3z M9.8,47.3c0.3,0.2,0.5,0.3,0.8,0.5C10.3,47.8,9.8,48,9.8,47.3z M11.6,41.2
		c0.2-0.1,0.3-0.1,0.4,0c0.1,0.1,0.3,0.2,0.3,0.4C12,41.6,11.8,41.5,11.6,41.2z M7.5,46.4c0-0.2,0-0.4,0-0.5
		c0.1-0.1,0.2-0.2,0.5-0.2C8.1,46.1,8.1,46.3,7.5,46.4z M3.7,44.6c0.2,0.3,0.1,0.5-0.2,0.6c-0.1,0-0.2,0-0.2-0.1
		C3.2,44.8,3.3,44.6,3.7,44.6z M2.3,46.4c0.3-0.7,0.7-0.6,1.1-0.6C3.1,46,2.8,46.2,2.3,46.4z M5.7,44.8C6,44.6,6.2,44.6,6.4,45
		C6.1,45.2,5.9,45.2,5.7,44.8z M14.6,40.8c-0.3,0.1-0.5,0.2-0.7,0c-0.1-0.1-0.1-0.2,0.1-0.4C14.2,40.3,14.4,40.5,14.6,40.8z
		 M11.2,46.6c-0.4,0.2-0.6,0.1-0.6-0.3C10.9,46.3,11.1,46.3,11.2,46.6z M12.5,47c-0.3,0.1-0.5,0-0.6-0.3
		C12.3,46.6,12.4,46.7,12.5,47z M11,42.3c-0.1-0.1-0.1-0.2,0-0.2c0.3,0,0.5,0,0.9,0C11.6,42.4,11.3,42.4,11,42.3z M3.1,48.2
		c-0.2,0.1-0.3,0.1-0.4,0c-0.1-0.1-0.3-0.1-0.2-0.4C2.7,48,2.9,48,3.1,48.2z M10.8,51.8c-0.2,0.1-0.3,0.1-0.4,0
		c-0.1,0-0.3-0.1-0.2-0.3C10.5,51.5,10.7,51.6,10.8,51.8z M2.4,46.9c0.3-0.2,0.5-0.2,0.7,0.1C2.8,47.3,2.6,47.2,2.4,46.9z M3.5,47.7
		c0.3,0,0.5,0,0.6,0.3C3.8,48.1,3.6,48.1,3.5,47.7z M2.8,45.5c-0.3,0.1-0.5,0.1-0.7-0.2C2.5,45.2,2.7,45.3,2.8,45.5z M13,42.6
		c0.1-0.1,0.2-0.1,0.4-0.1c0.1,0.1,0.3,0,0.3,0.2C13.4,42.8,13.2,42.8,13,42.6z M9.3,46.5c-0.2,0.2-0.4,0.2-0.6,0
		C8.8,46.4,9,46.2,9.3,46.5z M0.5,46.5c0.2,0.1,0.3,0.2,0.2,0.4c0,0.1-0.2,0.1-0.2,0C0.3,46.8,0.3,46.6,0.5,46.5z M7.5,43.7
		c-0.4,0-0.6-0.1-0.6-0.6C7.2,43.3,7.4,43.4,7.5,43.7z M10.6,44.9c-0.1-0.1-0.4,0-0.3-0.3C10.5,44.5,10.6,44.6,10.6,44.9z M5.3,44
		c0-0.1,0.1-0.2,0.2-0.2c0,0,0.1,0.1,0.1,0.1c0,0.1,0,0.2-0.1,0.2C5.4,44.2,5.4,44.1,5.3,44z M9.7,50.8c0.3-0.2,0.4-0.1,0.4,0.2
		C9.9,51.1,9.8,51,9.7,50.8z M11,51c0,0,0.1-0.1,0.1-0.1c0,0,0.1,0.1,0.1,0.1c0,0.1-0.1,0.1-0.2,0.1C11,51.1,11,51,11,51z
		 M11.5,45.9c-0.1,0-0.2-0.1-0.2-0.2c0,0,0.1-0.1,0.1-0.1c0.1,0,0.2,0,0.2,0.1C11.7,45.8,11.6,45.9,11.5,45.9z M9.9,42.8
		c-0.1,0-0.1,0-0.2-0.1c0-0.1,0-0.1,0.1-0.1c0.1,0,0.1,0,0.2,0.1C10,42.7,10,42.7,9.9,42.8z M13.9,43.8c0,0-0.1,0.1-0.1,0.1
		c-0.1,0-0.1-0.1-0.1-0.1c0-0.1,0-0.1,0.1-0.1C13.8,43.7,13.8,43.7,13.9,43.8z M11.2,44c0,0,0.1-0.1,0.1-0.1c0,0,0.1,0.1,0.1,0.1
		c0,0.1,0,0.1-0.1,0.1C11.2,44.1,11.2,44.1,11.2,44z M7.8,45.2c0,0,0.1-0.1,0.1-0.1c0,0,0.1,0.1,0.1,0.1c0,0-0.1,0.1-0.1,0.1
		C7.8,45.3,7.8,45.3,7.8,45.2z M6.6,51.7c0.2,0,0.4,0,0.3,0.2C6.8,51.9,6.7,51.9,6.6,51.7z M9.8,45.4C9.9,45.4,9.9,45.3,9.8,45.4
		c0.1-0.1,0.2-0.1,0.2,0c0,0-0.1,0.1-0.1,0.1C9.9,45.5,9.9,45.4,9.8,45.4z M6,51.1C6,51.1,6,51.1,6,51.1C6,51,6,51,6,50.9
		c0,0,0,0,0.1,0C6.1,51,6,51.1,6,51.1z M9.6,41.9c0,0,0.1-0.1,0.1-0.1c0,0,0,0,0.1,0.1C9.8,42,9.7,42,9.6,41.9
		C9.6,42,9.6,42,9.6,41.9z M12.8,46C12.8,46,12.8,46,12.8,46c0.1-0.1,0.1-0.1,0.1,0C12.9,46.1,12.9,46.1,12.8,46
		C12.8,46.1,12.8,46.1,12.8,46z M17,40.3c-0.1,0.1-0.2,0.1-0.3,0C16.7,40.2,16.8,40.1,17,40.3z M9.2,45.5
		C9.2,45.5,9.1,45.4,9.2,45.5c0.1-0.1,0.1-0.1,0.1,0C9.3,45.5,9.3,45.5,9.2,45.5C9.2,45.5,9.2,45.5,9.2,45.5z M12.2,44.3
		C12.2,44.2,12.1,44.2,12.2,44.3c0.1-0.1,0.1-0.1,0.1,0C12.3,44.2,12.3,44.3,12.2,44.3C12.2,44.3,12.2,44.3,12.2,44.3z M7,44.8
		c0.1-0.1,0.2,0,0.2,0.1c0,0,0,0.1,0,0.1C7.1,44.9,7,44.9,7,44.8z M10,46.4C9.9,46.4,9.9,46.4,10,46.4C9.8,46.3,9.9,46.3,10,46.4
		C9.9,46.3,10,46.3,10,46.4C10,46.3,10,46.3,10,46.4z M14.3,42.3C14.3,42.3,14.3,42.3,14.3,42.3c0-0.1,0-0.1,0-0.1
		C14.5,42.2,14.5,42.3,14.3,42.3C14.4,42.3,14.4,42.3,14.3,42.3z M9.1,42.7c-0.1,0-0.1,0,0-0.1C9,42.6,9.1,42.6,9.1,42.7
		C9.1,42.7,9.1,42.7,9.1,42.7z M10.4,43.3c-0.1-0.1,0-0.1,0-0.1C10.5,43.2,10.5,43.3,10.4,43.3C10.5,43.3,10.5,43.3,10.4,43.3z
		 M7.3,51.4C7.3,51.4,7.3,51.4,7.3,51.4c0-0.1,0-0.1,0-0.1C7.4,51.3,7.4,51.3,7.3,51.4C7.4,51.4,7.3,51.4,7.3,51.4z M11.8,45
		C11.8,45,11.9,45,11.8,45c0.1,0.1,0.1,0.1,0,0.1C11.8,45.1,11.8,45.1,11.8,45C11.8,45.1,11.8,45,11.8,45z M12.4,45.3L12.4,45.3
		L12.4,45.3L12.4,45.3z M8.1,42.6L8.1,42.6L8.1,42.6L8.1,42.6z M17.8,39.8L17.8,39.8L17.8,39.8L17.8,39.8z"/>
	<path class="st0" d="M6.4,41.6c0.2,0,0.5,0.1,0.7,0.1c0.3,0,0.6,0,0.8-0.3c0.3-0.6,0.7-0.5,1.2-0.3C9,40.5,8.4,40.4,8.2,40
		c-0.1,0-0.1,0-0.1,0c0,0,0,0,0.1,0c0.6-0.2,0.9,0.6,1.5,0.6c0.2-0.1,0.6-0.2,0.9-0.3c0.2-0.6-0.5-0.7-0.5-1.2
		c0.6,0.1,0.8,0.7,1.2,1c0.6-0.1,1.1-0.4,1.5-0.7c0.1-0.6-0.5-0.7-0.6-1c0.6-0.1,0.6-0.1,1.3,0.7c1.1-0.2,2.3-0.5,3.4-0.7
		c0.5-0.1,0.7-0.4,0.9-0.8c0-0.2,0-0.4,0-0.6c-0.1-0.1-0.2-0.1-0.2-0.3c0.2,0,0.1,0.2,0.2,0.3c0.4,0.2,0.3,0.4,0,0.6
		c0.8,0.4,1.1,0.3,2-0.3c-0.7-0.8-1.8-0.9-2.6-1.5c-0.8-0.6-1.6-1.2-2.5-1.8c-0.9-0.6-1.5-1.3-2.4-1.9c-0.8-0.6-1.7-1.2-2.3-2
		c-1.5,0.9-3.1,1.5-4.6,2.2c-1.4,0.6-2.7,1.5-4.2,1.9c-0.4,0.1-0.7,0.5-1.2,0.5c0,0.4,0,0.8,0,1.2C0,35.9,0,36,0,36
		c0,0.1,0,0.1,0,0.2c0.3,0.1,0.5,0.2,0.8,0.2c0-0.2-0.2-0.4-0.1-0.6c0.3,0,0.5,0.4,0.8,0.3c1.1-0.4,1.1-0.4,1.3,0.2
		c-0.2,0.3-0.6-0.1-0.8,0.1C1.9,36.7,2,37,1.6,37c-0.4,0-0.5-0.4-0.8-0.6c0,0.6,0.3,1,0.9,1.1c0.8,0.2,1.5,0.7,2.3,1.2
		c-0.5,0.4-0.9,0.1-1.1,0c-0.9-0.6-2-1-2.8-1.8c0,0.3,0,0.5,0,0.8c0.1,0,0.1,0,0.2,0.1c0,0.1-0.1,0.1-0.2,0.1c0,0.7,0,1.5,0,2.2
		c0.2-0.1,0.3-0.2,0.5-0.3c0.3,0.1,0.2,0.5,0.4,0.5c0.3,0.2,0.5,0,0.8-0.1c0.2,0.7,0.7,0.8,1.3,0.6l0,0c0-0.1,0-0.1,0-0.2
		c0.9,0.1,1.4,0.4,1.9,1.1c0.6-0.2,1,0.1,1.1,0.7l0,0c0.2,0,0.4,0,0.5-0.2C6.7,42,6.2,41.9,6.4,41.6c-0.3-0.1-0.6-0.2-0.9-0.4
		c-0.6-0.5-1.3-0.8-2-1c-1.1-0.3-2-1-3.1-1.5c0,0,0-0.1,0-0.3c1.9,0.6,3.5,1.5,5.4,2c-0.2,0.5-0.1,0.7,0.4,0.8c0-0.3,0-0.5,0.2-0.7
		c0.3,0,0.4,0.1,0.4,0.4c-0.2,0.1-0.5,0.1-0.7,0.2C6.3,41.4,6.4,41.5,6.4,41.6z M0.8,38C0.9,38.1,1,38.2,1,38.2c0,0,0.2-0.1,0.1,0.1
		c0,0-0.1-0.1-0.1-0.1C1,38.2,0.9,38.1,0.8,38L0.8,38z M12.8,37.6c-0.2,0-0.3-0.1-0.4-0.2c-0.2,0-0.4,0-0.4-0.3
		c0.3-0.1,0.3,0.1,0.4,0.3C12.5,37.4,12.7,37.4,12.8,37.6L12.8,37.6L12.8,37.6z M9.6,36C9.6,36,9.6,36.1,9.6,36
		C9.6,36.1,9.6,36.1,9.6,36c0.1,0,0-0.1,0.1-0.2C9.7,35.9,9.7,36,9.6,36z M11,37.6c0.1,0,0.3-0.1,0.3,0.1
		C11.2,37.8,11.1,37.7,11,37.6L11,37.6L11,37.6z M7,39.2c0.1,0.1,0.4,0.1,0.2,0.4C7.1,39.5,7.1,39.4,7,39.2L7,39.2z M7.2,37.2
		c0,0.1,0,0.3-0.3,0.2C7,37.3,7.1,37.2,7.2,37.2c0.1-0.1,0.2-0.3,0.4-0.2C7.5,37.2,7.4,37.2,7.2,37.2z M9.4,31.4
		c-0.2-0.1-0.5,0-0.4-0.5C9.1,31.1,9.3,31.3,9.4,31.4L9.4,31.4L9.4,31.4z M8.8,36.6c-0.2,0-0.4,0.1-0.4-0.3
		C8.6,36.3,8.7,36.4,8.8,36.6c0.1,0.1,0.2,0,0.2,0.2C8.9,36.8,8.9,36.7,8.8,36.6z M16,36c-0.3,0-0.7,0.1-0.9-0.4
		C15.7,35.3,15.8,35.7,16,36L16,36L16,36z M17,37.2c-0.6,0.1-1,0-1.2-0.7C16.2,36.8,16.8,36.8,17,37.2L17,37.2L17,37.2z M14.4,37.4
		c-0.9-0.1-0.9-0.1-1.3-0.7C13.6,37,14.1,36.9,14.4,37.4c0.1,0.2,0.4,0.2,0.3,0.6C14.4,37.9,14.4,37.6,14.4,37.4z M12.8,36
		c-0.5,0-0.8-0.1-1.1-0.6C12.3,35.4,12.7,35.4,12.8,36L12.8,36L12.8,36z M4.8,37.8c-0.8,0.1-1.5-0.2-2.2-0.9
		C3.6,36.9,4.1,37.6,4.8,37.8c0,0.1,0.2,0.1,0.2,0.3C4.8,38,4.9,37.9,4.8,37.8z M9.8,37.6c0.6,0.5,1.3,0.9,2,1.2
		c-0.2,0.3-0.5,0.3-0.7,0.1C10.7,38.5,9.9,38.4,9.8,37.6c-0.2-0.1-0.4,0.1-0.6-0.2C9.5,37.2,9.7,37.4,9.8,37.6z M7.2,40.2
		c-1.1-0.1-2.3-0.7-2.9-1.5C5.4,39.1,6.5,39.2,7.2,40.2c0.2,0.2,0.7,0.1,0.9,0.6C7.6,40.8,7.3,40.6,7.2,40.2z M5.6,37.6
		c0.6-0.1,1,0.1,1.2,0.7c0.6,0,0.9,0.5,1.2,0.9c-0.6-0.1-1.1-0.7-1.8-0.5C6,38.3,5.8,38,5.6,37.6c-0.8,0-1-0.8-1.8-1.1
		C4.9,36.4,5.4,36.8,5.6,37.6z M0.6,35c0.7-0.1,0.8-0.1,1.1-0.4c0,0.5,0.5,0.5,0.7,0.9C1.8,35.7,1.8,35.7,0.6,35z M12.5,34.8
		c-0.7,0.1-1.4-0.1-2-0.6C11.4,33.9,11.8,34.6,12.5,34.8z M12.9,33c-0.1,0.3-0.2,0.5-0.4,0.8c-0.1-0.2-0.4,0.1-0.6-0.2
		C12.1,33.2,12.4,33,12.9,33z M11.5,36.3c-0.9-0.2-1.1-0.3-1.4-1C10.7,35.5,11.1,35.9,11.5,36.3z M5.2,32.8c0.7,0.6,0.7,0.7,0,0.9
		C5.2,33.4,5,33.1,5.2,32.8z M2.1,34.2c0.6-0.3,0.8,0,1.1,0.5C2.7,34.7,2.4,34.6,2.1,34.2z M4.1,34.1c-0.8,0.1-0.8,0.1-0.7-0.4
		C3.7,33.5,4,33.7,4.1,34.1z M8.4,34.8C9,34.2,9.3,34.9,9.6,35C9.3,35,8.9,35.1,8.4,34.8z M14.2,36.2c0.3,0.1,0.8,0.2,0.9,0.7
		C14.6,36.8,14.4,36.5,14.2,36.2z M9.9,36.8c0.4-0.2,0.7-0.2,0.8,0.3C10.4,37.3,10.1,37.2,9.9,36.8z M3.2,35.3
		c0.7,0.1,0.7,0.1,0.4,0.6C3.3,35.8,3.1,35.7,3.2,35.3z M7.3,31.6c0.5,0.1,0.6,0.3,0.4,0.7C7.3,32.3,7,32.2,7.3,31.6z M4.7,35
		c-0.6,0-0.6,0-1-0.4C4.2,34.5,4.4,34.7,4.7,35z M6.1,33c-0.1-0.2-0.3-0.5,0.1-0.7c0.3,0.1,0.4,0.2,0.4,0.5C6.4,32.9,6.3,33,6.1,33z
		 M6.6,36.7c-0.3,0.2-0.5,0.1-0.7-0.2c0,0,0-0.1,0-0.2C6.3,36.2,6.5,36.4,6.6,36.7z M10.1,40.1C9.6,40,9.6,40,9.3,39.4
		C9.6,39.8,10,39.7,10.1,40.1z M8.8,32.7c0.4,0.3,0.4,0.5,0.1,0.7C8.6,33.2,8.6,33,8.8,32.7z M7.3,34.3c0.4,0,0.6,0,0.6,0.4
		C7.5,34.8,7.4,34.7,7.3,34.3z M4.7,35.8c0.2-0.2,0.4-0.2,0.5,0C5.1,36.1,5,36,4.7,35.8z M14.1,38.6c-0.4,0.1-0.5-0.2-0.6-0.4
		c-0.1-0.1,0-0.1,0.1-0.1C13.7,38.2,14,38.3,14.1,38.6z M9.5,32.3c0.2,0.2,0.3,0.4,0.5,0.7C9.6,32.9,9.4,32.7,9.5,32.3z M13,34.9
		c-0.2-0.2-0.2-0.3,0-0.6C13.1,34.5,13.3,34.7,13,34.9z M6.9,35.3c0.2,0.1,0.5,0.1,0.4,0.5C7.1,35.7,6.9,35.7,6.9,35.3z M8,37.7
		c0.2,0.1,0.4,0.2,0.2,0.5C8.1,38,7.9,38,8,37.7z M5.8,34.8c0-0.1,0-0.2,0.2-0.2c0.1,0,0.1,0.1,0.1,0.1c0,0.1,0,0.2-0.1,0.2
		C5.9,34.9,5.8,34.9,5.8,34.8z M13.9,34.9c0.1,0,0.1,0,0.2,0.1c0,0,0,0.1,0,0.2c-0.1,0.1-0.2,0-0.2-0.1C13.8,35,13.8,34.9,13.9,34.9
		z M10.6,31.9c0.2,0.2,0.2,0.4-0.1,0.5C10.3,32.2,10.4,32,10.6,31.9z M6.9,33.8c0,0,0.1-0.1,0.1-0.1c0.1,0,0.2,0.1,0.1,0.2
		c0,0-0.1,0.1-0.1,0.1S6.9,33.8,6.9,33.8z M9.4,38.3c0,0,0.1,0.1,0.1,0.1c0,0-0.1,0.1-0.1,0.1c0,0-0.1-0.1-0.1-0.1
		C9.3,38.4,9.3,38.4,9.4,38.3z M11.2,32.7c0.1-0.1,0.2-0.1,0.3-0.1c0.1,0.1,0.2,0.1,0.1,0.3C11.4,32.9,11.3,32.9,11.2,32.7z
		 M4.5,33.6c0,0-0.1-0.1-0.1-0.1c0,0,0.1-0.1,0.1-0.1c0,0,0.1,0.1,0.1,0.1C4.6,33.5,4.5,33.6,4.5,33.6z M12.2,36.6
		c0,0.1,0,0.1-0.1,0.1c0,0-0.1,0-0.1,0c-0.1-0.1-0.1-0.1,0-0.1C12.1,36.5,12.2,36.6,12.2,36.6z M8,33.2c0.2,0,0.2,0.1,0.1,0.2
		C8,33.4,7.9,33.3,8,33.2z M8.2,35.3c-0.2,0-0.3-0.1-0.2-0.2C8.1,35.1,8.2,35.1,8.2,35.3z M14.4,35.5c0,0,0.1-0.1,0.1-0.1
		c0,0,0.1,0.1,0.1,0.1c0,0,0,0.1,0,0.1C14.5,35.6,14.4,35.6,14.4,35.5z M10.1,31.3C10.1,31.3,10.1,31.3,10.1,31.3
		C10.2,31.3,10.1,31.4,10.1,31.3C10.1,31.3,10.1,31.3,10.1,31.3z M15.7,37.8C15.6,37.7,15.7,37.7,15.7,37.8
		C15.8,37.7,15.8,37.7,15.7,37.8C15.7,37.8,15.7,37.8,15.7,37.8z M11.3,31.7L11.3,31.7L11.3,31.7L11.3,31.7z M9.7,33.9L9.7,33.9
		L9.7,33.9L9.7,33.9z M16.8,36.3L16.8,36.3L16.8,36.3L16.8,36.3z"/>
	<path class="st0" d="M25.8,28c-0.6,1.1-1.2,2.1-1.7,3.2c-0.6,1.2-1.3,2.3-1.7,3.6c-0.1,0.5-0.4,0.9-0.7,1.3
		c-0.1,0.2-0.2,0.3-0.1,0.6c0.7-0.1,1.5-0.4,2.2-0.7c1.8-0.8,3.8-1.4,5.7-2.1c3.2-1,6.5-1.9,9.7-2.7c0.5-0.1,1-0.3,1.5-0.4
		c0.3-0.1,0.5-0.2,0.6-0.6c-0.3-0.7-0.8-1.3-1.5-1.6c-0.3-0.2-0.7-0.3-0.8-0.7c-0.7,0-1.3,0-2,0c-0.1,0.1-0.1,0.1-0.2,0
		c-0.5,0-0.9,0-1.4,0c-0.1,0.1-0.1,0.1-0.2,0c-1.7,0-3.5,0-5.2,0c-0.1,0.1-0.1,0.1-0.2,0.2l0,0c0-0.1,0-0.1,0-0.2
		c-0.1,0-0.3,0-0.4,0c-0.1,0.1-0.3,0.1-0.4,0C28,28,26.9,28,25.8,28z M28.8,32.8c0.1,0,0.1,0,0.1,0C28.9,32.9,28.9,32.8,28.8,32.8
		C28.8,32.8,28.8,32.8,28.8,32.8z M34.4,28.8c0.1,0,0.2-0.1,0.2,0.1C34.5,28.9,34.5,28.9,34.4,28.8L34.4,28.8z M31.8,30
		c0,0,0.1-0.1,0.1-0.1c0.1,0,0.2,0.1,0.1,0.2c0,0-0.1,0.1-0.2,0.1C31.8,30.1,31.8,30,31.8,30z M30.9,29.3c0.1-0.1,0.2,0,0.2,0
		C31,29.5,30.9,29.4,30.9,29.3z M30.4,30.4C30.4,30.4,30.4,30.4,30.4,30.4c0,0.1,0,0.1,0,0.1C30.3,30.5,30.3,30.4,30.4,30.4
		C30.3,30.4,30.4,30.4,30.4,30.4z M26.9,28.5C26.9,28.4,26.9,28.4,26.9,28.5C27,28.4,27,28.4,26.9,28.5C27.1,28.5,27,28.5,26.9,28.5
		C27,28.5,26.9,28.5,26.9,28.5z M27.1,33.6C27.1,33.6,27.1,33.6,27.1,33.6c0.1,0.2,0,0.2-0.1,0.1C27,33.7,27,33.6,27.1,33.6
		C27,33.6,27.1,33.6,27.1,33.6z M35.4,29L35.4,29L35.4,29L35.4,29z M34.7,31.6L34.7,31.6L34.7,31.6L34.7,31.6z M23.2,34.3
		c0-0.1,0.1-0.1,0.1,0C23.3,34.3,23.3,34.3,23.2,34.3C23.2,34.4,23.2,34.3,23.2,34.3z"/>
	<path class="st0" d="M64,80.4c-0.4,0-0.7-0.3-0.9-0.5c-0.5-0.4-1-0.8-1.6-1c-1-0.3-1.7-0.1-2.3,0.8c-1.1,1.6-2.2,3.1-3.2,4.7
		c-0.5,0.9-1.2,1.7-1.7,2.6c-0.5,0.9-1.1,1.7-1.6,2.5c-0.1,0.2-0.3,0.4-0.3,0.6c3.9,0,7.7,0,11.6,0C64,86.8,64,83.6,64,80.4z"/>
	<path class="st0" d="M24.2,29.8c0.2-0.1,0.4-0.2,0.4-0.5c0-0.4-0.5-0.3-0.6-0.6c0.3-0.2,0.5,0.1,0.8,0c0.3-0.1,0.3-0.4,0.4-0.7
		c-0.7,0-1.5,0-2.2,0c-0.3,0.4-0.3,0.4-0.6,0c-1.3,0-2.7,0-4,0c0,0.1,0,0.1,0,0.2l0,0c-0.2,0-0.4,0-0.6-0.2c-0.2,0-0.4,0-0.6,0
		c0,0.1,0.2,0.3,0,0.4c-0.3,0-0.5,0-0.4-0.4c-0.3,0-0.5,0-0.8,0c-0.1,0.1-0.1,0.1-0.2,0c-0.5,0-0.9,0-1.4,0
		c-0.4,0.4-0.9,0.6-1.4,0.7c-0.8,0.2-1.6,0.6-2.4,1.1c0.7,0.9,1.7,1.6,2.5,2.3c1.5,1.3,3.2,2.4,4.9,3.5c0.5,0.3,1.1,0.5,1.7,0.8
		c0.5,0.2,0.8,0.1,1.2-0.2c0.2-0.2,0-0.5,0.1-0.7c0.1-0.2,0.4-0.2,0.5-0.5c0-0.1,0-0.2-0.1-0.2c-0.5-0.3-1.2-0.4-1.8-0.8
		c0.9-0.2,1.5,0.4,2.4,0.4c-0.2-0.6-0.9-0.4-1-1c0.4,0,0.7,0.5,1.1,0.4c0.2-0.1,0.2-0.4,0.2-0.5c-0.1-0.1-0.3-0.1-0.4-0.2
		c0,0-0.1,0-0.1-0.1c0,0,0.1,0.1,0.1,0.1c0.2,0,0.3,0.1,0.4,0.2c0.2-0.3,0.2-0.6,0-0.8c-0.4,0-0.7,0-1.2-0.3
		c0.5,0.1,0.9,0.1,1.1,0.4c0.2,0,0.5,0.1,0.7-0.2c-0.1-0.5-0.7-0.5-1.1-0.9c0.5,0,0.9,0.4,1.4,0.3C23.8,31.1,24,30.4,24.2,29.8
		c-0.2,0-0.5,0-0.8-0.3C23.8,29.5,24,29.6,24.2,29.8z M16,31.3L16,31.3L16,31.3L16,31.3L16,31.3z M16.2,28.6L16.2,28.6L16.2,28.6
		L16.2,28.6L16.2,28.6z M19,31.8c-0.1-0.1-0.3-0.1-0.4-0.2c-0.4-0.1-0.8-0.2-1.2-0.3c-0.3-0.1-0.5-0.3-0.6-0.6
		c0.5,0.5,1.2,0.4,1.7,0.9C18.7,31.6,18.9,31.7,19,31.8C19,31.8,19,31.8,19,31.8z M17.8,30.6C17.8,30.6,17.7,30.6,17.8,30.6
		C17.7,30.6,17.7,30.6,17.8,30.6C17.8,30.7,17.9,30.7,17.8,30.6C17.9,30.7,17.8,30.6,17.8,30.6z M19.2,29.8c-0.3-0.2-0.1-0.3,0-0.5
		C19.4,29.6,19.2,29.7,19.2,29.8C19.2,29.8,19.3,29.9,19.2,29.8C19.3,29.9,19.2,29.9,19.2,29.8z M14.6,32.4L14.6,32.4L14.6,32.4
		c0-0.1,0-0.2,0-0.2c0.2-0.1,0.3,0,0.4,0.2C14.9,32.4,14.7,32.4,14.6,32.4z M19.8,32.6c0.2,0.1,0.5-0.1,0.5,0.3
		C20.1,33,20,32.8,19.8,32.6C19.8,32.6,19.8,32.6,19.8,32.6C19.7,32.6,19.8,32.6,19.8,32.6z M21.8,28.8c0.3,0,0.7,0,0.8,0.5
		C22.3,29.2,22.1,29,21.8,28.8c-0.1-0.1-0.2,0-0.2-0.3C21.7,28.7,21.8,28.8,21.8,28.8z M15.8,30c-0.4-0.1-0.8-0.2-0.9-0.7
		C15.2,29.6,15.7,29.6,15.8,30L15.8,30L15.8,30z M19.6,35.6c-0.5,0-0.9-0.2-1.2-0.6c-0.2-0.2-0.4-0.4-0.7-0.5
		c-0.4-0.1-0.4-0.4-0.5-0.7c-0.3-0.1-0.5,0.3-0.8,0.2c-0.2-0.3-0.2-0.5-0.2-0.8c-0.2,0.1-0.4,0.4-0.7,0.3c-0.2-0.2-0.3-0.3-0.2-0.6
		c0.4-0.2,0.6,0,0.8,0.3c0.4,0,0.8,0.2,1,0.6c0.6,0.3,1.1,0.5,1.2,1.2C18.8,35.1,19.3,35.1,19.6,35.6L19.6,35.6z M18.6,34.2
		c0.5,0.1,0.9,0.4,1.2,0.7C19.4,34.9,18.9,34.7,18.6,34.2L18.6,34.2z M19,33.8c-0.6,0-1-0.3-1.4-0.6C18.2,33.1,18.6,33.5,19,33.8
		L19,33.8z M22.4,30c-1,0-1.9-0.5-2.5-1.3C20.7,29.2,21.6,29.6,22.4,30c0.2,0.1,0.5,0,0.6,0.3C22.7,30.3,22.6,30.1,22.4,30z
		 M13.5,31.7c-0.1-0.8-1.3-0.6-1.4-1.5c0.7,0.4,1.4,0.7,1.9,1.3C14,31.6,13.8,31.6,13.5,31.7z M15.4,31.4c0.7,0.2,1.2,0.5,1.6,0.9
		C16.4,32.3,15.9,32,15.4,31.4z M15.6,31c-0.6,0-0.9-0.1-1.1-0.6C14.9,30.6,15.4,30.3,15.6,31z M12.9,29.3c0.5,0,0.7,0.3,1,0.7
		C13.4,29.8,13.2,29.6,12.9,29.3z M20.1,30.2c0.3,0,0.5,0,0.5,0.3C20.3,30.7,20.2,30.6,20.1,30.2z M17,29.5c0.2,0,0.2,0,0.3,0.1
		c0,0-0.1,0.1-0.1,0.1C17.1,29.7,17,29.6,17,29.5z M19.3,33.1c-0.2,0-0.3-0.1-0.3-0.4C19.1,32.8,19.2,32.9,19.3,33.1z M21.4,30.9
		c-0.1,0-0.2,0-0.2-0.2C21.4,30.7,21.4,30.8,21.4,30.9z M18,32.2c0.1,0,0.1,0,0.2,0c0.1,0.1,0.1,0.2,0,0.2
		C18.1,32.3,18,32.3,18,32.2z M18.5,29C18.5,29,18.5,28.9,18.5,29c0.1-0.1,0.1,0,0.1,0C18.6,29,18.6,29.1,18.5,29
		C18.5,29.1,18.5,29,18.5,29z M20.2,35.8C20.2,35.8,20.2,35.7,20.2,35.8c0.1-0.1,0.1-0.1,0.1,0C20.3,35.8,20.3,35.9,20.2,35.8
		C20.2,35.9,20.2,35.8,20.2,35.8z M16.8,30.2L16.8,30.2L16.8,30.2L16.8,30.2z"/>
	<path class="st0" d="M43.8,90c-1-1-2-1.9-3.1-2.9c-1-0.9-1.9-1.8-3-2.5c-0.8-0.6-1.9-0.6-2.6,0.2c-1,1.1-1.9,2.3-2.7,3.6
		c-0.3,0.6-1,0.9-1.1,1.6c2.7,0,5.5,0,8.2,0c0.1-0.1,0.1-0.1,0.2,0C41.1,90,42.5,90,43.8,90z M33.9,88.8c-0.2,0.3-0.3,0.2-0.5,0.1
		C33.6,88.6,33.7,88.6,33.9,88.8z M36.2,87c-0.1-0.1-0.1-0.1-0.1-0.2c0,0,0.1-0.1,0.2-0.1c0.1,0,0.1,0.1,0.1,0.2
		C36.3,87,36.2,87,36.2,87z M34.6,88.2c-0.2,0.1-0.3,0-0.4-0.1C34.4,88,34.5,88,34.6,88.2z M33.4,89.7c0-0.1,0-0.1,0.1-0.1
		c0,0,0.1,0,0.1,0c0.1,0,0.1,0.1,0,0.1C33.5,89.7,33.5,89.7,33.4,89.7z M34.5,88.9c0,0,0.1,0.1,0.1,0.1c0,0-0.1,0-0.1,0
		c0,0,0,0-0.1-0.1C34.4,88.9,34.4,88.9,34.5,88.9z"/>
	<path class="st0" d="M30.8,90c0.8-1.2,1.5-2.5,2.5-3.7c0.4-0.4,0.8-0.9,0.8-1.5c-0.4-0.3-0.7,0-0.9,0.1c-2,0.9-4.1,1.8-6.1,2.7
		c-1.4,0.6-2.7,1.4-4.2,1.9c-0.3,0.1-0.5,0.3-0.7,0.5C25.1,90,28,90,30.8,90z M30.7,87.5c0.4-0.2,0.6-0.1,0.6,0.3
		c0,0-0.1,0.1-0.1,0.2C31,87.9,30.8,87.8,30.7,87.5z M30,87.8c-0.3,0.2-0.6,0.2-0.8-0.1C29.4,87.7,29.7,87.6,30,87.8z M32.2,86.5
		L32.2,86.5L32.2,86.5L32.2,86.5z M31.6,86.9L31.6,86.9L31.6,86.9L31.6,86.9z"/>
	<path class="st0" d="M0.6,55.6c0.4,0,0.9,0,1.3,0.1c0.3,0.9,1,1.1,1.8,1.2c0.7,0.2,1.5,0.3,2.2,0.5c0.2,0.2,0,0.5,0.2,0.7
		c0.3-0.2,0.8-0.3,1-0.7c-0.1-0.5-0.4-0.9-0.8-1.2C5.1,55,3.8,54,2.6,53C1.9,52.4,1,52,0.4,51.2C0.4,51.1,0.2,51.1,0,51
		c0,0.3,0,0.5,0,0.8c0.2,0,0.4,0,0.6,0.2l0,0l0,0c-0.2,0-0.4,0-0.6,0c0,0.1,0,0.3,0,0.4c0.4,0.3,1.1,0.1,1.4,0.8
		C0.9,53.1,0.5,53,0,53c0,0.1,0,0.1,0,0.2c0.3,0.1,0.6,0.2,0.7,0.6C0.5,54,0.3,53.9,0,54c0,0.2,0,0.4,0,0.6c0.3,0,0.6,0.2,0.9,0.3
		c0.7-0.4,0.7-0.4,1.3,0.5c-0.5-0.2-0.8,0.1-1.2,0C0.8,55.2,0.7,55.4,0.6,55.6L0.6,55.6z M3,55.8L3,55.8L3,55.8c0,0.1,0,0.2-0.2,0.2
		C2.8,55.8,2.9,55.9,3,55.8z M5.4,56.2L5.4,56.2L5.4,56.2c-0.1,0.1-0.1,0.3-0.2,0.3c-0.6,0.1-1.2,0.2-1.8-0.1c0.3-0.1,0.7,0.1,1-0.1
		C4.7,56,5.1,56.1,5.4,56.2z M4.2,54.6C3.4,55,3.4,55,2.4,54.4C3,54.2,3.5,54.4,4.2,54.6z M2.2,53.8c-0.4,0-0.7,0.5-1.2,0
		c0.3-0.4,0.7-0.4,1-0.5C2.2,53.4,2.3,53.5,2.2,53.8z M3.8,55.5c0.3,0,0.5-0.5,1-0.1C4.5,55.7,4.2,55.9,3.8,55.5z M6,56.6
		C6,56.6,6,56.6,6,56.6c0.1,0.1,0.1,0.1,0,0.1C6,56.7,6,56.7,6,56.6C5.9,56.6,6,56.6,6,56.6z"/>
	<path class="st0" d="M64,71.2c-0.4,0.2-0.5,0.6-0.6,1c-0.2,0.7-0.5,1.4-0.9,2c-0.5,0.9-0.7,1.9-1,2.8c-0.2,0.8,0.4,1.3,0.9,1.8
		c0.5,0.4,1,0.9,1.5,1.2C64,77.1,64,74.1,64,71.2z"/>
	<path class="st0" d="M0,59.4c0.3-0.2,0.5-0.2,0.8,0.1C1,59.7,1.1,59.8,1.2,60l0,0c0.7-0.2,1.5-0.3,2.1-0.7c0.7-0.4,1.4-0.6,2.1-1
		c-0.2-0.2-0.5-0.2-0.6-0.5l0,0c0-0.1,0-0.2,0-0.2l0,0c-0.2-0.4-0.6-0.4-1-0.4c-0.8,0-1.4-0.3-2-0.7c-0.4-0.3-1-0.4-1.3-0.9l0,0
		c-0.3,0-0.4-0.3-0.6-0.4c0,0.3,0,0.7,0,1c0.9,0.2,3.7,1.6,4.2,2.1c-0.2,0.2-0.4,0.1-0.6,0.1c-0.1,0.1-0.3,0.2-0.5,0.2
		C3,58.8,2.8,59,2.6,59.3c-0.3-0.3-0.5-0.5-0.8-0.8c0.6-0.2,1-0.1,1.4,0.1c0.2-0.1,0.3-0.1,0.5-0.2c-0.3-0.4-0.8-0.4-1.2-0.6
		c-0.4-0.2-0.6-0.7-1.2-0.7c0,0.4,0.6,0.5,0.5,0.9c-0.7-0.1-1-0.7-1.3-1.2c-0.2,0-0.3,0-0.4,0c0,0.2,0,0.4,0,0.6
		c0.4,0.2,0.7,0.5,1,0.9c-0.3,0.3-0.7,0.2-1,0.1C0,58.7,0,59.1,0,59.4z M1.8,59.3c-0.6,0-0.8-0.1-0.9-0.6C1.3,58.7,1.5,59,1.8,59.3z
		"/>
	<path class="st0" d="M6.8,30.4c0.3,0.1,0.5,0.5,0.9,0.2c0.2-0.4-0.3-0.6-0.2-1l0,0c0.4,0,0.6,0.3,0.9,0.5c0.4-0.1,0.9-0.3,1.3-0.5
		c-0.1-0.9-1-1-1.3-1.6c-0.1,0-0.1,0-0.2,0c0,0.3,0,0.5,0.2,0.8l0,0C8,28.7,8,28.3,8,28c-0.5,0-0.9,0-1.4,0c-0.1,0.1-0.1,0.1-0.2,0
		c-0.1,0-0.1,0-0.2,0c-0.1,0.1-0.1,0.1-0.2,0c-0.2,0-0.4,0-0.6,0c-0.3,0.2-0.5,0.2-0.8,0c-0.4,0-0.8,0-1.2,0
		c0.6,0.5,1.5,0.5,1.9,1.2c-0.2,0.2-0.3,0.2-0.5,0.2l0,0c0,0.1,0,0.3,0,0.4l0,0c0.2-0.1,0.4-0.2,0.6,0c0.2,0.2,0.5,0.3,0.8,0.4l0,0
		c0.1-0.1,0.2-0.2,0.2-0.2l0,0c0-0.2-0.3-0.4-0.1-0.7C7,29.4,6.8,30,6.8,30.4L6.8,30.4z M5.5,28.5c0.3,0,0.4,0.1,0.3,0.4
		C5.6,28.9,5.5,28.8,5.5,28.5z M7.2,28.9C7.2,28.8,7.2,28.8,7.2,28.9c0.1-0.1,0.1-0.1,0.1,0C7.3,28.8,7.3,28.9,7.2,28.9
		C7.2,28.9,7.2,28.9,7.2,28.9z"/>
	<path class="st0" d="M39.8,28c0.3,0.2,0.6,0.5,0.7,0.6c0.4,0.2,0.7,0,1.1,0.1c0.4,0.5,1.2,0.5,1.5,1c1.3,0.3,2.3-0.7,3.5-0.9l0,0
		c0.1-0.1,0.3-0.2,0.4-0.2l0,0c0.1-0.2,0.3-0.2,0.4-0.2l0,0c0.1-0.1,0.1-0.3,0.2-0.4c-0.8,0-1.6,0-2.4,0c0,0.1,0,0.3-0.2,0.3
		c0-0.1,0-0.2,0-0.3c-1.3,0-2.5,0-3.8,0c-0.1,0-0.1,0-0.2,0C40.6,28,40.2,28,39.8,28z"/>
	<path class="st0" d="M0.6,62.2c0.3,0,0.5,0.1,0.8,0.1c0.2-0.3-0.2-0.6,0-1c0.3-0.3,0.7-0.4,1.2-0.1c0.7,0.4,1.5,0.3,2.3,0.3
		C5.5,60.7,6,59.8,6.5,59c-0.3-0.3-0.6-0.1-0.9,0c-1.3,0.6-2.7,0.9-3.9,1.7C1.2,61,0.6,61,0,61.2c0,0.2,0,0.4,0,0.6
		C0.3,61.9,0.6,61.9,0.6,62.2L0.6,62.2z M4.3,60.8C4.2,60.9,4,61,4,60.8c0,0,0-0.1,0-0.2C4.1,60.6,4.2,60.6,4.3,60.8z M3,60.7
		C3,60.7,3,60.6,3,60.7c0-0.1,0.1-0.1,0.1-0.1c0,0,0,0,0,0.1C3.1,60.7,3,60.7,3,60.7z"/>
	<path class="st0" d="M0,62.8c0.5-0.1,1,0.1,1.4,0.4c0.5,0.3,1,0.5,1.6,0.5c0.8-0.3,0.9-1,1.3-1.6c-0.9-0.1-1.7-0.3-2.6-0.7
		c0.1,0.9,0.8,1.3,1.3,1.9c-0.4,0-1.7-0.6-2.4-1.1l0,0c-0.2,0-0.4,0-0.6,0C0,62.4,0,62.6,0,62.8z M3.6,62.5
		c-0.3,0.2-0.5,0.1-0.6-0.2C3.2,62.2,3.4,62.3,3.6,62.5z"/>
	<path class="st0" d="M0,65.2c0.6,0,1.1,0.4,1.8,0.5C2,65.1,2.5,64.7,3,64.2c-1-0.3-1.9-0.8-2.9-1c0,0.1,0,0.3,0,0.4
		c0.2,0,0.4,0,0.6,0.2C0.8,63.8,1,64,1,64.2c0.1,0,0.1,0,0.1,0c0,0,0,0-0.1,0c-0.2-0.1-0.3-0.2-0.4-0.4c-0.2,0-0.4,0-0.6,0
		c0,0.2,0,0.4,0,0.6c0.2,0.1,0.5,0.1,0.6,0.4c0.1,0,0.2,0,0.5,0c-0.2,0.1-0.3,0-0.4,0c-0.2,0-0.4,0-0.6,0C0,64.9,0,65.1,0,65.2z"/>
	<path class="st0" d="M1.4,28c0,0.2,0,0.4,0.2,0.6c0.9,0,1.5,0.6,2.2,1.2c0.5,0.5,1,1,1.9,1.3c-0.2-0.6-0.7-0.9-1-1.3l0,0
		c-0.3-0.1-0.4-0.3,0-0.4l0,0c0-0.2-0.1-0.4-0.3-0.5c-0.6,0-1.9-0.4-2.4-0.8c0,0-0.1-0.1-0.1-0.2C1.8,28,1.6,28,1.4,28z"/>
	<path class="st0" d="M0,40.8c0.9,0.9,2.1,1.2,3.1,1.7c0.2,0.1,0.5,0.2,0.8-0.1c-0.2-0.3-0.5-0.4-0.8-0.5c-0.9-0.4-1.8-0.7-2.5-1.3
		c-0.1-0.1-0.4-0.1-0.6-0.2C0,40.6,0,40.7,0,40.8z"/>
	<path class="st0" d="M2.9,31.2c-0.2,0-0.4,0-0.6-0.1c-0.7-0.4-1.5-0.3-2.3-0.3c0,0.3,0,0.5,0,0.8c0.3,0,0.5,0,0.8,0l0,0
		c0-0.2-0.1-0.3,0-0.5c0.6,0.2,1.2,0.4,1.8,0.6C2.8,31.6,2.8,31.4,2.9,31.2C2.8,31.2,2.9,31.2,2.9,31.2z"/>
	<path class="st0" d="M9.2,28c0.3,0.4,0.6,0.8,1.2,1.1c0.3-0.2,0.7-0.1,1-0.5l0,0c-0.1-0.1-0.2-0.2-0.2-0.2l0,0
		C11.1,28.3,11,28.2,11,28c-0.1,0-0.3,0-0.4,0c0,0.1,0,0.2-0.1,0.2c0,0,0-0.1-0.1-0.2C10,28,9.6,28,9.2,28z"/>
	<path class="st0" d="M3.2,43c-0.8-0.3-1.6-0.7-2.4-1.1c-0.3-0.1-0.5-0.3-0.8-0.3c0,0.1,0,0.3,0,0.4c0.6,0,0.9,0.5,1.4,0.7
		C2,42.9,2.6,43,3.2,43L3.2,43z"/>
	<path class="st0" d="M0,43c0.5,0,0.9,0.4,1.3,0.6c0.3,0.2,0.6,0.6,1.3,0.4C1.8,43.3,1,42.9,0,42.8C0,42.9,0,43,0,43z"/>
	<path class="st0" d="M0.8,67c0.2-0.3,0.4-0.6,0.7-0.9c-0.5-0.1-1-0.2-1.5-0.3c0,0.2,0,0.4,0,0.6C0.4,66.4,0.8,66.5,0.8,67z"/>
	<path class="st0" d="M1,32.6c-0.3-0.3-0.6-0.3-1-0.4c0,0.1,0,0.3,0,0.4c0.5,0.1,0.4,0.7,0.7,1C1.2,33.4,0.7,32.9,1,32.6L1,32.6z"/>
	<path class="st0" d="M11.4,28.6c0.7,0.1,0.9,0,1-0.6c-0.3,0-0.7,0-1,0c-0.1,0.1-0.1,0.3-0.2,0.4l0,0C11.3,28.5,11.4,28.6,11.4,28.6
		L11.4,28.6z"/>
	<path class="st0" d="M0,29c0.3,0,0.5,0.2,0.7,0.4c0.2,0.2,0.4,0.1,0.6-0.2C1,28.7,0.5,28.8,0,28.8C0,28.9,0,29,0,29z"/>
	<path class="st0" d="M0,60.8c0.2-0.1,0.5-0.2,0.6-0.5c0-0.4-0.4-0.4-0.6-0.5C0,60.1,0,60.5,0,60.8z"/>
	<path class="st0" d="M0,30c0.3,0,0.6,0.4,1.1,0.2c-0.3-0.4-0.7-0.4-1.1-0.4C0,29.9,0,30,0,30z"/>
	<path class="st0" d="M0,28.4c0.4,0.1,0.8,0,1-0.4c-0.3,0-0.7,0-1,0C0,28.2,0,28.3,0,28.4z"/>
	<path class="st0" d="M0.8,44c-0.1-0.4-0.4-0.6-0.8-0.6c0,0.1,0,0.3,0,0.4C0.3,43.9,0.5,44.1,0.8,44L0.8,44z"/>
	<path class="st0" d="M0.8,67c-0.3-0.1-0.5-0.1-0.8-0.2c0,0.1,0,0.3,0,0.4c0.1,0.1,0.3,0.1,0.4,0.2l0,0C0.6,67.3,0.7,67.2,0.8,67z"
		/>
	<path class="st0" d="M0,68c0.3-0.1,0.4-0.3,0.4-0.6l0,0c-0.1,0-0.3,0-0.4,0C0,67.6,0,67.8,0,68z"/>
	<path class="st0" d="M0,44.6c0.1,0,0.3,0,0.4-0.1c0-0.3-0.2-0.3-0.4-0.3C0,44.4,0,44.5,0,44.6z"/>
	<path class="st0" d="M12.8,28c0.2,0.2,0.4,0.2,0.6,0C13.2,28,13,28,12.8,28z"/>
	<path class="st0" d="M2.4,28c0.1,0.1,0.1,0.1,0.2,0C2.6,28,2.5,28,2.4,28z"/>
	<path class="st0" d="M0.2,90c-0.1-0.1-0.1-0.1-0.2-0.2C0,90,0,90,0.2,90z"/>
	<path class="st0" d="M50.4,58.2c0.4-0.7,1.2-0.9,1.9-1.2c0.3-0.2,0.7-0.3,1.1-0.5c1.5-0.8,3-1.5,4.6-2.1c1.4-0.7,2.9-1.3,4.3-1.9
		c0.2-0.1,0.4-0.2,0.5-0.4c-0.2-0.8-0.8-1.4-0.9-2.3l0,0c-0.2-0.1-0.4-0.2-0.4-0.4l0,0c-0.3-0.2-0.6-0.4-0.6-0.8l0,0
		c-0.1-0.1-0.2-0.3-0.2-0.4l0,0c-0.5-0.3-0.9-0.6-1-1.2l0,0c-0.1-0.1-0.2-0.2-0.2-0.2l0,0c-0.4-0.3-0.9-0.7-1-1.2l0,0
		c-0.1-0.1-0.2-0.2-0.2-0.2l0,0c-0.6-0.3-0.9-0.9-1.2-1.4l0,0c-0.3-0.1-0.5-0.4-0.7-0.6c-1.5-1.7-3.1-3.3-4.8-5
		c-0.8-0.7-1.6-1.4-2.2-2.3l0,0c-0.8-0.4-1.3-1-1.9-1.5c-0.7-0.6-1.4-1.2-2.1-1.8c-0.6-0.5-1.2-0.9-1.8-1.3
		c-0.6-0.4-1.2-0.3-1.8-0.3c-0.7,1.2-1.1,2.5-1.4,3.8c-0.3,1.2-0.6,2.5-0.9,3.7c-0.2,0.6-0.3,1.3-0.4,1.9c-0.2,0.9-0.4,1.8-0.6,2.6
		c-0.6,1.9-1,3.8-1.7,5.6c0,0.1-0.1,0.3-0.1,0.4c0.7,0.8,1.4,1.5,2,2.4c0.6,1,1.2,2,1.6,3.1c0.3,0.6,0.6,1.2,0.9,1.9
		c0.6,1.7,1.5,3.3,2.1,5c0.2,0.1,0.4,0.1,0.6,0c1-0.4,2.1-0.9,3-1.6c0.4-0.3,0.8-0.5,1.3-0.5l0,0c0.7-0.7,1.4-1.3,2.4-1.4L50.4,58.2
		z"/>
	<path class="st0" d="M42.3,63.6c-0.2-0.3-0.6-0.2-0.7-0.5c0-0.3,0.4-0.4,0.5-0.7c-0.2-1.4-0.6-2.7-1.2-4.1c-0.6-1.3-1-2.6-1.6-3.9
		c-0.5-1-1-2-1.7-2.9c-0.9-1.1-1.6-1.4-2.8-0.9c-0.3,0.1-0.5,0.3-0.7,0.5c-0.3,0.4-0.6,0.7-0.8,1.1c-0.7,1.3-1.5,2.4-2.1,3.7
		c-0.6,1.3-1.2,2.5-1.9,3.7c-0.1,0.2-0.2,0.4-0.3,0.6c-0.8,2.1-2,4.1-3,6.2c-0.3,0.7-0.8,1.2-1.1,1.9c-0.6,1.3-0.4,2.3,0.7,3.3
		c1.9,1.9,3.7,3.8,5.6,5.7c1,1,1.9,2.1,2.9,3.1c0.3,0.3,0.6,0.7,1,0.9c0.8,0.5,1.5,0.3,1.9-0.5c0.3-0.6,0.6-1.3,0.8-1.9
		c1.1-2.4,1.9-5,2.6-7.5c0.3-1.1,0.7-2.1,0.9-3.2C41.6,66.9,42.2,65.3,42.3,63.6z M26.2,70.6c0.1,0.2,0.2,0.3-0.1,0.4
		C26.2,70.8,26.2,70.7,26.2,70.6L26.2,70.6z M26.8,66.8L26.8,66.8c0.2-0.3,0.5-0.4,0.8-0.4c0.1,0,0.2-0.2,0.4,0c-0.2,0-0.3,0-0.4,0
		C27.4,66.7,27.2,66.8,26.8,66.8z M26.8,72.1C26.8,72,26.8,72,26.8,72.1c0-0.1,0.1-0.1,0.1-0.1l0,0.1C26.8,72.1,26.8,72.1,26.8,72.1
		z M29.7,65.8c0,0,0.1-0.1,0.1-0.1c0,0,0.1,0.1,0,0.1C29.8,65.8,29.8,65.8,29.7,65.8C29.8,65.9,29.8,65.8,29.7,65.8z M36.6,79.6
		c0,0-0.1-0.1-0.1-0.1c0,0,0,0,0.1-0.1C36.6,79.4,36.7,79.5,36.6,79.6C36.7,79.5,36.7,79.6,36.6,79.6z M30.9,65.2
		C30.9,65.2,30.9,65.3,30.9,65.2c-0.1,0.1-0.1,0.1-0.1,0C30.8,65.2,30.8,65.2,30.9,65.2C30.9,65.2,30.9,65.2,30.9,65.2z M27.1,70.4
		c0.1-0.1,0.1,0,0.1,0.1C27.3,70.5,27.2,70.5,27.1,70.4C27.2,70.5,27.1,70.4,27.1,70.4z"/>
	<path class="st0" d="M22.4,54.4c0.8,0,1.5-0.4,2.3-0.6c1.8-0.6,3.6-1.3,5.5-1.9c1.2-0.3,2.2-1,3.3-1.4c0.4-0.1,0.5-0.5,0.7-0.9
		c-0.4-0.6-0.9-1.1-1.4-1.5c-1.1-1-2.4-1.8-3.5-2.8c-1.2-1.1-2.5-2.1-3.8-3.2c-1.1-1-2.3-1.9-3.4-2.8c-0.3-0.3-0.8-0.4-1.2-0.6
		c-0.4-0.2-0.9-0.1-1.2,0.3c-0.3,0.4-0.7,0.7-1,1.1c-1,1.6-2,3.1-2.9,4.7c-0.6,1-1.2,2-1.7,3c-0.7,1.2-1.3,2.5-2,3.8
		c-0.7,1.3-1.3,2.7-2,4c-0.2,0.3-0.4,0.6-0.3,1.1c0.3,0.6,0.8,0.8,1.6,0.7c1.7-0.4,3.4-0.6,5-1.3c0.7-0.3,1.4-0.4,2.1-0.6
		C19.9,55.4,21.1,54.9,22.4,54.4L22.4,54.4z M15.6,47.6c-0.2,0-0.4,0.3-0.8,0.2C15.1,47.5,15.3,47.5,15.6,47.6L15.6,47.6z
		 M14.3,55.5C14.3,55.5,14.4,55.5,14.3,55.5C14.3,55.6,14.3,55.6,14.3,55.5C14.3,55.5,14.3,55.5,14.3,55.5
		C14.3,55.5,14.3,55.5,14.3,55.5z"/>
	<path class="st0" d="M21.5,37.6c0.8,1.3,1.9,2.1,2.9,3c0.7,0.6,1.5,1.2,2.2,1.9c1.1,1.1,2.4,2,3.6,3c0.9,0.8,1.9,1.5,2.8,2.3
		c0.4,0.4,1,0.7,1.6,1c0.7,0.3,1.7-0.2,2.1-0.9c0.8-1.7,1.2-3.5,1.5-5.3c0.1-0.5,0.3-0.9,0.4-1.4c0.6-2.1,0.9-4.2,1.5-6.3
		c0.3-1,0.5-2.2,0.9-3.2c-0.3-0.3-0.6-0.2-0.8-0.1c-2.6,0.7-5.2,1.3-7.8,2.1c-1.8,0.5-3.6,1.1-5.3,1.6c-0.4,0.1-0.8,0.3-1.2,0.5
		C24.4,36.3,22.9,36.6,21.5,37.6z M24.2,37.1c0.3,0.1,0.4,0.1,0.2,0.4C24.3,37.4,24.2,37.3,24.2,37.1z M23.1,38.8
		C23.2,38.8,23.2,38.8,23.1,38.8c0.1-0.1,0.1-0.1,0.1-0.1C23.3,38.8,23.3,38.9,23.1,38.8C23.2,38.9,23.2,38.9,23.1,38.8z M28.5,42.5
		c0,0,0.1,0.1,0.1,0.1c0,0-0.1,0.1-0.1,0.1c0,0-0.1,0-0.1,0C28.4,42.5,28.4,42.5,28.5,42.5z M24.2,39C24.2,38.9,24.2,38.9,24.2,39
		C24.3,39,24.3,39,24.2,39C24.3,39,24.2,39,24.2,39z M32.9,46.2L32.9,46.2L32.9,46.2L32.9,46.2z"/>
	<path class="st0" d="M24.2,68.4c0.1-0.1,0.2-0.2,0.3-0.3c0.9-1.7,1.9-3.3,2.7-5.1c0.6-1.3,1.2-2.6,1.8-3.9c0.6-1.3,1.2-2.6,2-3.8
		c0.6-0.9,1.1-1.9,1.6-2.9c0.2-0.4,0.7-0.8,0.8-1.2c-0.1,0-0.1-0.1-0.2-0.1c-1.1,0.6-2.4,0.9-3.5,1.3c-1.9,0.8-3.8,1.3-5.7,2
		c-0.1,0-0.2,0-0.3,0.1c-2,0.7-4,1.2-6,1.9c-0.8,0.3-1.6,0.5-2.5,0.7c-1.4,0.2-2.7,0.9-4.2,1.2c0.4,0.6,0.9,1,1.5,1.4
		c1.8,1.1,3.3,2.6,4.8,4c1.4,1.3,2.9,2.6,4.3,4c0.6,0.6,1.2,1.2,2,1.4C23.8,68.9,24,68.6,24.2,68.4L24.2,68.4L24.2,68.4z M13,59.3
		C13,59.3,13,59.3,13,59.3C13,59.2,13,59.2,13,59.2C13,59.1,13.1,59.1,13,59.3C13.1,59.2,13.1,59.3,13,59.3z M18.9,61.4
		C18.8,61.5,18.8,61.4,18.9,61.4C18.8,61.4,18.9,61.3,18.9,61.4C18.9,61.3,18.9,61.4,18.9,61.4z M22.9,61.9
		C22.9,61.9,22.8,61.9,22.9,61.9C22.8,61.8,22.8,61.8,22.9,61.9C22.9,61.8,22.9,61.8,22.9,61.9z"/>
	<path class="st0" d="M2.8,31.2C3,31.2,3.1,31.1,3.3,31c0.3,0.3,0.9,0.3,0.8,1.1c0.4-0.8,0.3-1.3-0.3-1.7c-0.5-0.3-1-0.7-1.4-1
		c-0.3,0-0.4,0.2-0.5,0.5C1.9,30.5,2.8,30.6,2.8,31.2L2.8,31.2z"/>
	<path class="st0" d="M6.2,30.2C6,30.6,6.1,31,6.6,31.1c0.3-0.2,0.2-0.5,0.2-0.7l0,0c-0.1-0.1-0.3-0.3-0.4-0.4l0,0
		C6.3,30.1,6.3,30.2,6.2,30.2C6.2,30.2,6.2,30.2,6.2,30.2z"/>
	<path class="st0" d="M4.6,43c0.5-0.5,0.5-0.5-0.3-0.9C4.3,42.5,4.6,42.7,4.6,43L4.6,43z"/>
	<path class="st0" d="M1.8,32.2c-0.2-0.5-0.5-0.7-1-0.6l0,0C0.9,32.3,1.4,32.2,1.8,32.2L1.8,32.2z"/>
	<path class="st0" d="M3,40.8c0,0.6,0.4,0.8,1,0.8C3.7,41.1,3.4,41,3,40.8L3,40.8z"/>
	<path class="st0" d="M1,32.6c0.2,0.2,0.3,0.6,0.7,0.7C1.6,32.8,1.6,32.8,1,32.6L1,32.6z"/>
	<path class="st0" d="M4.7,31.1c0.1,0.4,0.2,0.6,0.6,0.5C5.4,31.2,5.1,31.2,4.7,31.1z"/>
	<path class="st0" d="M3.6,31.9c-0.5-0.1-0.5-0.1-0.4,0.3C3.5,32.3,3.5,32,3.6,31.9z"/>
	<path class="st0" d="M1.8,32.2c0.1,0.3,0.1,0.5,0.4,0.6C2.3,32.4,2.3,32.4,1.8,32.2L1.8,32.2z"/>
	<path class="st0" d="M0.8,44c0.2,0.3,0.3,0.6,0.7,0.6C1.4,44.1,1.4,44.1,0.8,44L0.8,44z"/>
	<path class="st0" d="M1.6,51c0.2,0.6,0.7,0.3,1,0.4l0,0C2.4,51.1,2,51,1.6,51L1.6,51z"/>
	<path class="st0" d="M2.7,51.4c-0.1,0.2-0.2,0.3-0.3,0.5C2.9,52,3,51.7,3,51.4l0,0C2.9,51.4,2.8,51.4,2.7,51.4L2.7,51.4z"/>
	<path class="st0" d="M3.8,43.4c-0.3,0-0.4-0.2-0.6-0.4l0,0c0,0.2,0,0.4,0,0.6C3.6,43.8,3.7,43.6,3.8,43.4L3.8,43.4z"/>
	<path class="st0" d="M3.8,43.4c0.3,0,0.6-0.2,0.8-0.4l0,0C4.2,42.7,4,43.1,3.8,43.4L3.8,43.4z"/>
	<path class="st0" d="M6.1,42.4c-0.2,0-0.4,0-0.6,0.2C5.7,42.8,5.8,42.5,6.1,42.4L6.1,42.4z"/>
	<path class="st0" d="M4.8,57.8c0.1,0,0.3,0,0.4-0.1c-0.1-0.3-0.3-0.1-0.4-0.1l0,0C4.8,57.7,4.8,57.8,4.8,57.8L4.8,57.8z"/>
	<path class="st0" d="M58.6,79.2C58.6,79.2,58.7,79.2,58.6,79.2C58.7,79.2,58.6,79.2,58.6,79.2L58.6,79.2z"/>
	<path class="st0" d="M1.2,60L1.2,60L1.2,60L1.2,60z"/>
</mask>
<g class="st2">
	<g>
		<path class="st0" d="M60.8,81c1.7,0,3.2-1.3,3.2-3v-6c0-1.7-1.4-3-3.2-3H4.2C2.4,69,1,70.3,1,72v6c0,1.7,1.4,3,3.2,3H60.8z"/>
	</g>
</g>
</svg>
