<svg width="61" height="57" viewBox="0 0 61 57" fill="none" xmlns="http://www.w3.org/2000/svg">
<path fill-rule="evenodd" clip-rule="evenodd" d="M25.9327 17.1483C27.8112 17.14 29.5637 16.518 31.1488 15.3542L32.6852 13.8597C33.6092 12.6291 34.156 11.3121 34.3819 10H55.5098V12.8829C54.7821 13.0415 54.0856 13.384 53.4882 13.9096C52.6852 14.6186 52.169 15.5902 52.0348 16.6453C51.9006 17.7003 52.1574 18.7677 52.7578 19.6506C53.3506 20.5481 54.2639 21.1927 55.3163 21.4562C56.7482 21.8219 58.0687 21.5311 59.2183 20.6874L60.0098 19.9177C61.5795 17.8279 61.0357 15.2542 59.4221 13.8819C58.8488 13.3934 58.1926 13.0677 57.5098 12.9041V8.5H57.5V8H34.4843C34.3275 5.70876 33.2404 3.58199 31.5446 2.13911C28.1706 -0.736084 23.3212 -0.707619 20.0257 2.19288C18.467 3.56973 17.465 5.45641 17.2044 7.50512C17.1834 7.66999 17.1674 7.83501 17.1562 8H3.50977V8.5V10V13.3708C2.78211 13.5294 2.08558 13.8719 1.48823 14.3975C0.685188 15.1065 0.169014 16.0781 0.0347975 17.1332C-0.0994188 18.1882 0.157356 19.2556 0.75782 20.1385C1.35059 21.036 2.26392 21.6806 3.31629 21.9441C4.74818 22.3098 6.06867 22.019 7.21833 21.1753L8.00977 20.4056C9.57954 18.3158 9.03565 15.7421 7.42219 14.3698C6.84876 13.8813 6.19263 13.5556 5.50977 13.392V10H17.2585C17.462 11.1863 17.9182 12.3263 18.6079 13.341C19.7586 15.0839 21.5316 16.3355 23.5743 16.8472C23.696 16.8783 23.8172 16.9069 23.9381 16.9331L21.8057 28.2222C19.8554 27.6801 17.7171 28.1211 16.1069 29.5378C15.012 30.5046 14.3081 31.8295 14.1251 33.2682C13.942 34.7069 14.2922 36.1624 15.111 37.3664C15.9193 38.5903 17.1648 39.4693 18.5997 39.8286C20.5524 40.3273 22.353 39.9308 23.9207 38.7802L25 37.7307C26.4629 35.7831 26.5797 33.5274 25.8047 31.697L38.5816 24.1985C39.2233 25.161 40.1779 25.875 41.2835 26.2264L36.5486 44.8422C34.8258 44.5993 33.0335 45.0943 31.6379 46.3222C30.543 47.289 29.8391 48.6139 29.6561 50.0526C29.473 51.4913 29.8232 52.9468 30.642 54.1508C31.4503 55.3747 32.6957 56.2537 34.1307 56.613C36.0833 57.1116 37.884 56.7152 39.4517 55.5646L40.531 54.5151C42.6715 51.6653 41.9299 48.1558 39.7297 46.2844C39.3322 45.9458 38.9056 45.6646 38.46 45.4406L43.2799 26.4905C44.329 26.4352 45.3106 26.062 46.2048 25.4057L47.1401 24.4962C48.9953 22.0263 48.3525 18.9848 46.4457 17.3629C44.3916 15.613 41.4392 15.6304 39.4329 17.3956C38.4839 18.2336 37.8738 19.3818 37.7152 20.6287C37.6418 21.2058 37.6674 21.7859 37.7864 22.3462L24.7267 30.0107C24.5618 29.8296 24.3855 29.6589 24.1987 29.5C24.0294 29.3557 23.8547 29.2219 23.6755 29.0984L25.9327 17.1483ZM26.3939 8.5822C28.0072 8.00178 28.9172 6.7508 28.6768 5.37963C28.3949 3.70955 27.0748 2.90614 25.8268 2.91089C24.4618 2.91089 23.2379 3.83923 22.9863 5.39228C22.7653 6.75555 23.6512 7.99071 25.3045 8.58852C24.1254 8.78621 23.0985 9.26857 22.299 10.1447C21.4976 11.0009 21.0535 12.1246 21.0559 13.2904H30.6185C30.6097 12.3271 30.304 11.3894 29.7422 10.6018C28.9268 9.46784 27.7861 8.84157 26.3939 8.5822ZM36.1115 50.809C37.2448 50.4014 37.884 49.5229 37.7152 48.56C37.5172 47.3872 36.5898 46.823 35.7131 46.8264C34.7542 46.8264 33.8944 47.4783 33.7177 48.5689C33.5624 49.5262 34.1848 50.3936 35.3462 50.8134C34.5179 50.9523 33.7965 51.291 33.2349 51.9063C32.6719 52.5075 32.3599 53.2966 32.3616 54.1152H39.0792C39.073 53.4388 38.8583 52.7803 38.4636 52.2272C37.8908 51.4309 37.0895 50.9911 36.1115 50.809ZM22.1842 31.7756C22.353 32.7385 21.7138 33.617 20.5805 34.0246C21.5585 34.2067 22.3597 34.6465 22.9326 35.4428C23.3273 35.9959 23.542 36.6544 23.5482 37.3309H16.8306C16.8289 36.5122 17.1409 35.7231 17.7039 35.1219C18.2655 34.5066 18.9869 34.1679 19.8152 34.029C18.6538 33.6092 18.0314 32.7419 18.1867 31.7845C18.3634 30.6939 19.2232 30.042 20.1821 30.042C21.0588 30.0386 21.9862 30.6028 22.1842 31.7756ZM4.74262 17.732C5.41749 17.4524 5.7981 16.8498 5.69758 16.1893C5.57966 15.3847 5.02747 14.9977 4.50544 15C3.93446 15 3.42249 15.4472 3.31727 16.1953C3.2248 16.8521 3.59541 17.4471 4.28693 17.735C3.79377 17.8303 3.3642 18.0626 3.02979 18.4847C2.69453 18.8971 2.5088 19.4384 2.50977 20H6.50977C6.50605 19.536 6.37824 19.0843 6.1432 18.7049C5.80213 18.1586 5.32496 17.8569 4.74262 17.732ZM57.61 15.8071C57.7105 16.4677 57.3298 17.0703 56.655 17.3499C57.2374 17.4748 57.7145 17.7765 58.0556 18.3227C58.2906 18.7021 58.4185 19.1539 58.4221 19.6179H54.4222C54.4212 19.0563 54.6069 18.515 54.9422 18.1026C55.2766 17.6805 55.7061 17.4481 56.1993 17.3529C55.5078 17.0649 55.1372 16.4699 55.2297 15.8132C55.3349 15.0651 55.8469 14.6179 56.4178 14.6179C56.9398 14.6156 57.492 15.0026 57.61 15.8071ZM43.3087 21.4525C44.1522 21.117 44.628 20.3939 44.5024 19.6013C44.3549 18.6358 43.6647 18.1714 43.0122 18.1742C42.2985 18.1742 41.6585 18.7108 41.527 19.6086C41.4114 20.3966 41.8746 21.1106 42.7391 21.4562C42.1226 21.5705 41.5856 21.8493 41.1676 22.3558C40.7485 22.8507 40.5164 23.5002 40.5176 24.1742H45.5176C45.5129 23.6173 45.3532 23.0753 45.0594 22.62C44.6331 21.9645 44.0366 21.6025 43.3087 21.4525Z" fill="white"/>
</svg>
