<svg id="Capa_2" data-name="Capa 2" xmlns="http://www.w3.org/2000/svg" viewBox="0 0 150 50"><defs><style>.cls-1{fill:#dbe4eb;}</style></defs><title>ssi_ICOh_defixwallet_100px</title><path class="cls-1" d="M50.47,25a4.2,4.2,0,0,1-4.19,4.2H43.16v-8.4h3.12A4.2,4.2,0,0,1,50.47,25Zm-1,0a3.23,3.23,0,0,0-3.22-3.22H44.14v6.44h2.14A3.22,3.22,0,0,0,49.5,25Z"/><path class="cls-1" d="M53.3,21.82v2.73h4.09v1H53.3v2.73h6.33v1H52.32v-8.4h7.31v1Z"/><path class="cls-1" d="M62.63,25.53v3.71h-1v-8.4H69v1H62.63v2.73h4.1v1Z"/><path class="cls-1" d="M71,29.24v-8.4h1v8.4Z"/><path class="cls-1" d="M78.77,28.24,76.69,25.8,74.6,28.24h-.91l2.54-3-2.54-3h.91l2.09,2.44,2.08-2.44h.91l-2.54,3,2.54,3Z"/><path class="cls-1" d="M89.51,29.24h-.64l-2.05-4.8-2,4.8h-.64l-3.59-8.4h1.07l2.84,6.66L86.82,22l2.37,5.55L92,20.84H93.1Z"/><path class="cls-1" d="M92.77,26.58l2.44-5.74h.65l2.45,5.74.16.38,1,2.28H98.38l-.72-1.69H93.41l-.72,1.69H91.63l1-2.27Zm1.06,0h3.41l-1.7-4Z"/><path class="cls-1" d="M102.44,28.26h6.33v1h-7.31v-8.4h1Z"/><path class="cls-1" d="M111.77,28.26h6.33v1h-7.31v-8.4h1Z"/><path class="cls-1" d="M121.11,21.82v2.73h4.09v1h-4.09v2.73h6.33v1h-7.31v-8.4h7.31v1Z"/><path class="cls-1" d="M136.78,20.84v1h-3.17v7.42h-1V21.82h-3.16v-1Z"/><path class="cls-1" d="M30.5,14.92A41.43,41.43,0,0,1,25,11.56a41.43,41.43,0,0,1-5.5,3.36A29.13,29.13,0,0,1,14,16.45v7.33c0,6.78,4.7,13.12,11,14.66,6.3-1.54,11-7.88,11-14.66V16.45A29.13,29.13,0,0,1,30.5,14.92ZM23.19,34a6.83,6.83,0,0,1-6.75-6.75.43.43,0,0,1,.24-.41.63.63,0,0,1,.47,0l1.54.94a.43.43,0,0,1,.18.6.42.42,0,0,1-.59.17l-.83-.47a5.8,5.8,0,0,0,5.74,5,.47.47,0,0,1,.48.48A.44.44,0,0,1,23.19,34Zm3.18-8.11V30.8H23.63V25.91a3.21,3.21,0,1,1,2.74,0Zm7-2.1a.63.63,0,0,1-.47,0l-1.48-.95a.42.42,0,0,1-.18-.59.43.43,0,0,1,.59-.18l.83.48a5.81,5.81,0,0,0-5.74-5c-.18.06-.42-.17-.42-.41a.47.47,0,0,1,.48-.47,6.63,6.63,0,0,1,6.63,6.69A.45.45,0,0,1,33.4,23.81Z"/></svg>