<svg id="Capa_2" data-name="Capa 2" xmlns="http://www.w3.org/2000/svg" viewBox="0 0 150 50"><defs><style>.cls-1{fill:#fff;}</style></defs><title>ssi_ICOh_didxwallet_100px</title><path class="cls-1" d="M33.69,17.85a1.38,1.38,0,0,0,1.5.06A10.29,10.29,0,0,0,33,15.74C32.84,16.93,33,17.42,33.69,17.85Z"/><path class="cls-1" d="M33,33.06a3,3,0,0,0,0,1.24,10.92,10.92,0,0,0,2.22-2.18A1.54,1.54,0,0,0,33,33.06Z"/><path class="cls-1" d="M18.62,18a1.48,1.48,0,0,0,1.17-1.21,6.48,6.48,0,0,0,0-1.65,11.35,11.35,0,0,0-2.74,2.38A1.57,1.57,0,0,0,18.62,18Z"/><path class="cls-1" d="M15.83,26.36a5.05,5.05,0,0,0,0-2.7,1.36,1.36,0,0,0-1.24-1,11,11,0,0,0,0,4.64A1.4,1.4,0,0,0,15.83,26.36Z"/><path class="cls-1" d="M18.72,32a1.46,1.46,0,0,0-1.62.49,10.83,10.83,0,0,0,2.73,2.36c0-.54,0-1,0-1.47A1.6,1.6,0,0,0,18.72,32Z"/><path class="cls-1" d="M36.82,26A1.32,1.32,0,0,0,37.46,27a12.57,12.57,0,0,0,0-4.06,1.37,1.37,0,0,0-.64,1.09C36.8,24.7,36.8,25.35,36.82,26Z"/><path class="cls-1" d="M19.35,30.66a3.09,3.09,0,0,1,1.22.86,3.05,3.05,0,0,1,.67,1.33,4.1,4.1,0,0,1,.07,1v1.74a10.24,10.24,0,0,0,2.37.76V33.09c-.11,0-.16.08-.22.13-.4.34-.76.35-1.07,0a.72.72,0,0,1,.06-1.1l.1-.11c.41-.4.81-.82,1.23-1.22a1.75,1.75,0,0,1,.33-.28.9.9,0,0,1,.32-.09.72.72,0,0,1,.59.28.67.67,0,0,1,.13.3,2.33,2.33,0,0,1,0,.53v4.48a.92.92,0,0,0,.08.55,10.09,10.09,0,0,0,3-.22V33.05l-.33.28a.72.72,0,0,1-.28.13.81.81,0,0,1-.31,0A.72.72,0,0,1,27,32.29a21.93,21.93,0,0,1,1.68-1.66.69.69,0,0,1,1.13.39,1.53,1.53,0,0,1,.05.52V35.4a.85.85,0,0,0,.08.55,7.34,7.34,0,0,0,1.51-.68v-.94a7.73,7.73,0,0,1,.08-1.44,3.09,3.09,0,0,1,3.4-2.4,10.16,10.16,0,0,1,1.16.34,10.08,10.08,0,0,0,1-2.26l-.22-.14a3,3,0,0,1-1.5-2.35,10.49,10.49,0,0,1,0-2,3,3,0,0,1,1.54-2.47.36.36,0,0,0,.12-.08.38.38,0,0,0,.06-.13,8.75,8.75,0,0,0-1-2.2c-.19.07-.33.14-.49.19a3,3,0,0,1-2.45-.15,3,3,0,0,1-1-.79,3.15,3.15,0,0,1-.58-1.12,3.68,3.68,0,0,1-.12-1c0-.51,0-1,0-1.52a7.72,7.72,0,0,0-1.53-.65.81.81,0,0,0-.06.48c0,1.29,0,2.57,0,3.86a2.2,2.2,0,0,1-.05.57.68.68,0,0,1-.65.55.71.71,0,0,1-.75-.49,1.53,1.53,0,0,1-.05-.52V15a.81.81,0,0,0-.05-.46c-.61.42-1,.46-1.28.13s-.28-.61.12-1.2a4.37,4.37,0,0,0-1.9,0,1,1,0,0,0-.05.52v4.48a3.85,3.85,0,0,1,0,.48.67.67,0,0,1-.64.6.7.7,0,0,1-.47-.1.68.68,0,0,1-.29-.37,1.31,1.31,0,0,1-.06-.52V15a1.27,1.27,0,0,0-.05-.53.94.94,0,0,1-.93.4c-.43-.11-.54-.46-.6-.84a3.83,3.83,0,0,0-.81.33v1.9a4.2,4.2,0,0,1-.06.86A3.08,3.08,0,0,1,16.5,19c-.1-.07-.18-.19-.31-.21A8.09,8.09,0,0,0,15,21.23l.36.13a3,3,0,0,1,2,2.81q0,.84,0,1.68a3,3,0,0,1-2.09,2.84c-.12,0-.25,0-.33.18a10.28,10.28,0,0,0,1.18,2.37l.29-.21a3.18,3.18,0,0,1,1.39-.55A3.11,3.11,0,0,1,19.35,30.66ZM30.86,23c.2-.23.43-.43.64-.65l.89-.89a.74.74,0,0,1,.79-.22.8.8,0,0,1,.53.74,1.92,1.92,0,0,1,0,.24v5.59a1.56,1.56,0,0,1,0,.48.74.74,0,0,1-.69.57.75.75,0,0,1-.74-.58,1.94,1.94,0,0,1,0-.48v-4c-.18.15-.26.23-.35.29a.75.75,0,0,1-1-.06A.71.71,0,0,1,30.86,23Zm-7.18-.19A2.35,2.35,0,1,1,27,25.43v3.63H25V25.43a2.36,2.36,0,0,1-1.3-2.64ZM18.46,23c.53-.56,1.08-1.1,1.64-1.64a.62.62,0,0,1,.36-.18.61.61,0,0,1,.4.07.7.7,0,0,1,.43.64c0,.13,0,.26,0,.38v5.49c0,.13,0,.26,0,.39a.71.71,0,0,1-.72.69.75.75,0,0,1-.5-.2.79.79,0,0,1-.24-.49,2.54,2.54,0,0,1,0-.39V23.82c-.19,0-.26.17-.38.24a.75.75,0,0,1-.5.12.82.82,0,0,1-.47-.22A.68.68,0,0,1,18.46,23Z"/><path class="cls-1" d="M26,39.14A14.14,14.14,0,1,0,11.84,25,14.15,14.15,0,0,0,26,39.14Zm0-27.08A12.94,12.94,0,1,1,13,25,13,13,0,0,1,26,12.06Z"/><path class="cls-1" d="M55.14,25a4.2,4.2,0,0,1-4.2,4.2H47.83v-8.4h3.11A4.21,4.21,0,0,1,55.14,25Zm-1,0a3.22,3.22,0,0,0-3.22-3.22H48.81v6.44h2.13A3.22,3.22,0,0,0,54.16,25Z"/><path class="cls-1" d="M57,29.24v-8.4h1v8.4Z"/><path class="cls-1" d="M67.29,25a4.21,4.21,0,0,1-4.2,4.2H60v-8.4h3.11A4.21,4.21,0,0,1,67.29,25Zm-1,0a3.23,3.23,0,0,0-3.22-3.22H61v6.44h2.14A3.22,3.22,0,0,0,66.31,25Z"/><path class="cls-1" d="M74.1,28.24,72,25.8l-2.08,2.44H69l2.53-3-2.53-3h.91L72,24.73l2.08-2.44H75l-2.54,3,2.54,3Z"/><path class="cls-1" d="M84.85,29.24H84.2l-2-4.8-2.05,4.8h-.64l-3.59-8.4h1.07l2.84,6.66L82.15,22l2.37,5.55,2.85-6.66h1.06Z"/><path class="cls-1" d="M88.1,26.58l2.45-5.74h.64l2.45,5.74.16.38,1,2.28H93.71L93,27.55H88.75L88,29.24H87l1-2.27Zm1.06,0h3.42l-1.71-4Z"/><path class="cls-1" d="M97.77,28.26h6.33v1H96.79v-8.4h1Z"/><path class="cls-1" d="M107.1,28.26h6.34v1h-7.31v-8.4h1Z"/><path class="cls-1" d="M116.44,21.82v2.73h4.09v1h-4.09v2.73h6.33v1h-7.31v-8.4h7.31v1Z"/><path class="cls-1" d="M132.11,20.84v1h-3.17v7.42h-1V21.82H124.8v-1Z"/></svg>