<?xml version="1.0" encoding="utf-8"?>
<!-- Generator: Adobe Illustrator 24.0.0, SVG Export Plug-In . SVG Version: 6.00 Build 0)  -->
<svg version="1.1" id="Capa_1" xmlns="http://www.w3.org/2000/svg" xmlns:xlink="http://www.w3.org/1999/xlink" x="0px" y="0px"
	 viewBox="0 0 26.5 28.4" style="enable-background:new 0 0 26.5 28.4;" xml:space="preserve">
<style type="text/css">
	.st0{fill:#DBE4EB;}
	.st1{fill:#FFFF32;}
</style>
<title>didx</title>
<path class="st0" d="M13.2,1.7L13.2,1.7C6.3,1.7,0.8,7.3,0.7,14.2s5.6,12.5,12.5,12.5s12.5-5.6,12.5-12.5c0,0,0,0,0,0
	C25.7,7.3,20.1,1.7,13.2,1.7"/>
<circle cx="13.2" cy="12.8" r="0.9"/>
<path class="st1" d="M20.1,9.2c-0.3,0-0.7-0.1-0.9-0.3c-0.7-0.5-1-1.4-0.8-2.2l0.1-0.9l0.7,0.5c0.7,0.5,1.4,1.2,1.9,1.9l0.4,0.5
	l-0.6,0.3C20.7,9.1,20.4,9.2,20.1,9.2L20.1,9.2z"/>
<path class="st0" d="M18.9,6.7c0.7,0.5,1.3,1.1,1.8,1.8c-0.2,0.1-0.4,0.2-0.6,0.2c-0.2,0-0.4-0.1-0.6-0.2
	C18.9,8.1,18.8,7.7,18.9,6.7 M18.1,4.8l-0.2,1.8c-0.3,1.1,0.2,2.2,1.1,2.7c0.7,0.5,1.6,0.5,2.3,0.1l1.1-0.6l-0.8-1
	c-0.6-0.8-1.2-1.4-2-2C19.5,5.8,18.1,4.8,18.1,4.8z"/>
<path class="st1" d="M18.4,21.7c-0.1-0.4-0.1-0.8,0-1.2c0.2-0.8,0.9-1.3,1.7-1.3c0.3,0,0.6,0.1,0.8,0.2l0.6,0.3l-0.4,0.5
	c-0.5,0.7-1.2,1.3-1.9,1.9l-0.7,0.5L18.4,21.7z"/>
<path class="st0" d="M20.1,19.8c0.2,0,0.4,0.1,0.6,0.1c-0.5,0.7-1.1,1.3-1.8,1.8c-0.1-0.3-0.1-0.7,0-1C19,20.1,19.5,19.8,20.1,19.8
	 M20.1,18.7c-1,0-1.9,0.7-2.2,1.7c-0.1,0.5-0.1,1-0.1,1.4l0.2,1.8l1.5-1.1c0.8-0.6,1.4-1.2,2-2l0.8-1.1l-1.2-0.6
	C20.8,18.8,20.4,18.7,20.1,18.7L20.1,18.7z"/>
<path class="st1" d="M7,9.2c-0.5,0-1-0.2-1.3-0.6L5.3,8.2l0.3-0.4C6.3,7,7.1,6.4,8,5.8l0.8-0.5l0.1,0.9c0.1,0.5,0.1,1,0,1.5
	C8.7,8.4,8.1,8.9,7.4,9.1C7.3,9.1,7.1,9.2,7,9.2z"/>
<path class="st1" d="M8.3,6.3c0.1,0.4,0.1,0.9,0,1.3c-0.1,0.5-0.5,0.9-0.9,1c-0.1,0-0.2,0-0.3,0c-0.4,0-0.7-0.2-0.9-0.4
	C6.7,7.4,7.4,6.7,8.3,6.3 M9.2,4.4l-1.5,1C6.8,5.9,5.9,6.7,5.2,7.5L4.6,8.3L5.3,9C5.7,9.4,6.4,9.7,7,9.7c0.2,0,0.4,0,0.6,0
	c0.9-0.2,1.6-0.9,1.7-1.9c0.1-0.5,0.1-1,0-1.5V6.2L9.2,4.4L9.2,4.4z"/>
<path class="st1" d="M3.5,16.1c-0.3-1.3-0.3-2.7,0-4l0.1-0.5l0.5,0.1c0.7,0,1.2,0.5,1.4,1.1c0.2,0.8,0.2,1.7,0,2.5
	c-0.2,0.7-0.8,1.1-1.4,1.2l-0.5,0.1L3.5,16.1z"/>
<path class="st1" d="M4.1,12.3c0.5,0,0.9,0.3,1,0.8c0.2,0.7,0.2,1.5,0,2.2C4.9,15.7,4.5,16,4,16C3.8,14.8,3.8,13.5,4.1,12.3
	 M3.3,11.1l-0.2,1c-0.3,1.4-0.3,2.8,0,4.2l0.2,1l1-0.2c0.9-0.1,1.6-0.7,1.8-1.6c0.2-0.9,0.2-1.8,0-2.7c-0.3-0.9-1-1.5-1.9-1.6
	L3.3,11.1z"/>
<path class="st1" d="M8,22.6c-0.9-0.5-1.7-1.2-2.3-2l-0.2-0.4l0.3-0.3C6,19.5,6.5,19.2,7,19.2c0.9,0,1.7,0.7,1.8,1.7
	c0,0.3,0,0.5,0,0.8v1.4L8,22.6z"/>
<path class="st1" d="M7,19.8c0.1,0,0.3,0,0.4,0c0.5,0.2,0.8,0.6,0.9,1.1c0,0.4,0,0.7,0,1.2c-0.8-0.5-1.5-1.1-2.2-1.9
	C6.3,19.9,6.7,19.7,7,19.8 M7,18.6c-0.7,0-1.3,0.3-1.8,0.8l-0.6,0.7l0.6,0.7C6,21.7,6.8,22.4,7.8,23l1.6,1v-2.3c0-0.3,0-0.5,0-0.8
	c-0.1-1-0.7-1.8-1.7-2.1C7.5,18.7,7.3,18.7,7,18.6L7,18.6z"/>
<path class="st1" d="M22.2,16.3c-0.5-0.3-0.7-0.8-0.8-1.3c0-0.5,0-1.1,0-1.6c0-0.5,0.3-1,0.7-1.3l0.7-0.5l0.1,0.9
	c0.2,1.1,0.2,2.3,0,3.4l-0.1,0.8L22.2,16.3z"/>
<path class="st0" d="M22.5,12.5c0.2,1.1,0.2,2.2,0,3.2c-0.3-0.2-0.5-0.5-0.5-0.8c0-0.5,0-1.1,0-1.5C22,13,22.2,12.7,22.5,12.5
	 M23.3,10.6l-1.4,1c-0.6,0.4-0.9,1-1,1.7c0,0.6,0,1.1,0,1.6c0,0.7,0.4,1.3,1,1.7l1.4,0.9l0.3-1.7c0.2-1.2,0.2-2.4,0-3.6
	C23.6,12.4,23.3,10.6,23.3,10.6z"/>
<path class="st1" d="M13.4,24.1h-1l-0.2-0.3c-0.1-0.2-0.2-0.4-0.1-0.7v-3.7c0-0.1,0-0.2,0-0.3c-0.1,0-0.1,0.1-0.2,0.1l-1,1
	c-0.1,0.1-0.2,0.2-0.2,0.2l0,0c0.1,0,0.1,0,0.1-0.1c0.1-0.1,0.3-0.2,0.5-0.2h0.5V24l-0.6-0.1c-0.7-0.1-1.4-0.3-2-0.6l-0.3-0.1v-1.9
	c0-0.2,0-0.4,0-0.6c-0.1-0.3-0.2-0.6-0.4-0.8c-0.2-0.2-0.5-0.4-0.8-0.5c-0.2-0.1-0.5-0.1-0.7-0.1H6.8c-0.3,0-0.6,0.2-0.9,0.3
	l-0.7,0.5l-0.3-0.4c-0.4-0.6-0.8-1.3-1-2l-0.1-0.2L3.9,17c0.1-0.2,0.3-0.4,0.6-0.4c0.8-0.2,1.3-1,1.3-1.8c0-0.5,0-0.9,0-1.4
	c0-0.8-0.5-1.5-1.3-1.7l-0.7-0.3L3.9,11C4.1,10.2,4.5,9.5,5,8.8l0.2-0.2l0.3,0.1c0.2,0,0.3,0.1,0.4,0.2c0.9,0.6,2.1,0.4,2.7-0.4
	C8.7,8.2,8.8,8,8.9,7.7c0-0.2,0-0.4,0-0.6c0-0.3,0-1.9,0-1.9l0.3-0.2C9.4,5,9.7,4.9,9.9,4.8l0.6-0.2l0.1,0.6c0,0.1,0,0.2,0.1,0.2
	l0,0c0,0,0.1,0,0.2-0.2l0.6-0.6l0.3,0.8c0.1,0.2,0.1,0.4,0.1,0.6v3.1C12,9.1,12,9,12,8.9V5.3c0-0.2,0-0.5,0.1-0.7l0.1-0.2h0.2
	c0.3-0.1,0.6-0.2,0.8-0.2c0.3,0,0.7,0,1,0.1l0.8,0.2l-0.4,0.7c-0.1,0.1-0.1,0.2-0.2,0.3c0,0,0.1,0,0.4-0.2L15.3,5l0.3,0.5
	c0.1,0.2,0.1,0.4,0.1,0.6V9c0,0.1,0,0.1,0,0.2c0.1-0.1,0.1-0.2,0.1-0.3V5.8c0-0.2,0-0.5,0.1-0.7l0.2-0.4l0.4,0.1
	C17,5,17.5,5.2,17.9,5.4l0.3,0.2v1.6c0,0.2,0,0.5,0.1,0.7c0.1,0.3,0.2,0.5,0.4,0.7C18.8,8.7,19,8.9,19.2,9c0.2,0.1,0.5,0.2,0.8,0.2
	h0.1c0.2,0,0.4,0,0.7-0.1L21.1,9l0.4-0.2l0.2,0.4c0.4,0.6,0.7,1.2,0.9,1.9v0.1v0.1c0,0.1-0.1,0.2-0.2,0.3c-0.1,0.1-0.2,0.2-0.3,0.2
	c-0.5,0.3-0.9,0.9-0.9,1.5c0,0.5,0,1,0,1.5c0,0.6,0.4,1.2,1,1.5l0.4,0.3l0,0.4c-0.2,0.7-0.5,1.3-0.9,1.9l-0.2,0.4l-0.4-0.1l-0.4-0.1
	c-0.2-0.1-0.3-0.1-0.5-0.1h-0.2c-0.9,0-1.7,0.6-1.9,1.5c0,0.3-0.1,0.6-0.1,0.9v1.2L17.9,23c-0.4,0.3-0.9,0.5-1.3,0.6l-0.4,0.1
	L16,23.3c-0.1-0.2-0.2-0.4-0.2-0.7v-3.2c0-0.1,0-0.2,0-0.3c-0.5,0.4-1,0.8-1.4,1.3c0.1,0,0.2-0.1,0.3-0.2l0.9-0.9v4.3l-0.4,0.1
	C14.6,24,14,24.1,13.4,24.1z M13.5,16.9v-2.7l0.3-0.2c0.3-0.1,0.5-0.3,0.6-0.6c0.1-0.3,0.2-0.6,0.1-0.9c-0.1-0.3-0.2-0.6-0.5-0.8
	c-0.5-0.4-1.2-0.4-1.7,0c-0.2,0.2-0.4,0.5-0.5,0.8c-0.1,0.3,0,0.6,0.1,0.9c0.1,0.3,0.4,0.5,0.6,0.6l0.3,0.2v2.7H13.5z M18.8,16.4
	c0,0.1,0,0.2,0,0.3c0.1,0,0.1-0.1,0.1-0.2v-4.5l0.5-0.2l-0.5,0.1c0-0.1,0-0.1-0.1-0.1c-0.3,0.2-0.5,0.4-0.6,0.6l-0.3,0.3
	c-0.1,0.1-0.2,0.2-0.3,0.3c0,0,0.1,0,0.1,0c0,0,0.1,0,0.1,0l1-0.9L18.8,16.4z M8.8,16.4v0.3c0.1,0,0.1-0.1,0.1-0.2v-4.8
	c-0.5,0.4-0.9,0.8-1.4,1.2l0,0h0.1c0.1-0.1,0.3-0.2,0.5-0.3l0.6-0.1L8.8,16.4z"/>
<path d="M13.3,4.8c0.3,0,0.6,0,0.9,0.1c-0.3,0.5-0.3,0.7-0.1,1C14.2,6,14.3,6,14.4,6c0.3,0,0.5-0.1,0.7-0.3c0.1,0.1,0,0.2,0,0.4V9
	c0,0.1,0,0.3,0,0.4c0.1,0.2,0.3,0.4,0.6,0.4l0,0c0.3,0,0.5-0.2,0.5-0.4c0-0.2,0-0.3,0-0.5V5.8c0-0.2,0.1-0.3,0.2-0.4
	c0.4,0.1,0.8,0.3,1.2,0.5c0,0.4,0,0.8,0,1.2c0,0.3,0,0.6,0.1,0.8c0.1,0.3,0.3,0.6,0.5,0.9c0.2,0.3,0.5,0.5,0.8,0.6
	c0.3,0.2,0.6,0.2,1,0.3h0.2c0.3,0,0.6-0.1,0.9-0.2l0.4-0.2c0.3,0.6,0.6,1.1,0.8,1.8c0,0,0,0.1,0,0.1c0,0-0.1,0.1-0.1,0.1
	c-0.7,0.4-1.2,1.2-1.2,2c0,0.5,0,1.1,0,1.6c0.1,0.8,0.5,1.5,1.2,1.9l0.2,0.1c-0.2,0.6-0.5,1.2-0.8,1.8c-0.3-0.1-0.6-0.2-0.9-0.3
	c-0.1,0-0.2,0-0.3,0c-1.2,0-2.2,0.8-2.4,2c-0.1,0.4-0.1,0.8-0.1,1.2v0.8c-0.4,0.2-0.8,0.4-1.2,0.6c-0.1-0.1-0.1-0.3-0.1-0.4v-3.1
	c0-0.1,0-0.3,0-0.4c-0.1-0.3-0.3-0.4-0.6-0.5c-0.1,0-0.3,0.1-0.4,0.1c-0.5,0.4-0.9,0.9-1.4,1.3c-0.2,0.2-0.2,0.6,0.1,0.8
	c0.1,0.1,0.2,0.1,0.3,0.1h0.1h0.1c0.1,0,0.2-0.1,0.2-0.1c0.1-0.1,0.2-0.1,0.3-0.2v2.7c-0.6,0.1-1.1,0.2-1.7,0.2h-0.8
	c-0.1-0.1-0.1-0.3-0.1-0.5v-3.6c0-0.1,0-0.3,0-0.4c0-0.1-0.1-0.2-0.1-0.2c-0.1-0.1-0.1-0.1-0.2-0.2c-0.1,0-0.2-0.1-0.2-0.1l0,0
	c-0.1,0-0.2,0-0.3,0.1c-0.1,0.1-0.2,0.1-0.3,0.2l-1,1l-0.1,0.1c-0.2,0.2-0.3,0.6-0.1,0.8c0,0,0,0,0.1,0.1c0.1,0.1,0.2,0.2,0.4,0.2
	c0.2,0,0.3-0.1,0.5-0.2c0.1,0,0.1-0.1,0.2-0.1v2.7c-0.7-0.1-1.3-0.3-1.9-0.6v-1.4c0-0.3,0-0.6,0-0.8c-0.1-0.4-0.3-0.8-0.5-1.1
	c-0.3-0.3-0.6-0.5-1-0.7c-0.3-0.1-0.6-0.2-0.9-0.2H6.7c-0.4,0.1-0.8,0.2-1.1,0.4l-0.2,0.2c-0.4-0.6-0.7-1.2-0.9-1.9
	c0.1-0.1,0.2-0.1,0.3-0.2c1-0.3,1.7-1.2,1.7-2.3c0-0.5,0-0.9,0-1.4c0-1-0.7-1.9-1.7-2.3l-0.3-0.1C4.6,10.4,5,9.8,5.4,9.2
	c0.1,0,0.2,0.1,0.2,0.2C6,9.6,6.5,9.8,7,9.8c1.2,0,2.2-0.8,2.4-1.9c0-0.2,0-0.5,0-0.7c0-0.5,0-1,0-1.5c0.2-0.1,0.4-0.2,0.7-0.3
	c0.1,0.3,0.1,0.6,0.5,0.7h0.2c0.2,0,0.5-0.1,0.6-0.3c0,0.1,0,0.3,0,0.4V9c0,0.1,0,0.3,0,0.4c0.1,0.2,0.3,0.4,0.5,0.4H12
	c0.3,0,0.5-0.2,0.5-0.5c0-0.1,0-0.3,0-0.4V5.3c0-0.1,0-0.3,0-0.4c0.2,0,0.4-0.1,0.6-0.1 M12.3,17.5h1.8v-3c0.4-0.2,0.7-0.5,0.9-0.9
	c0.2-0.4,0.3-0.8,0.2-1.2c-0.2-0.9-1-1.5-1.8-1.5c-0.4,0-0.9,0.1-1.2,0.4c-0.3,0.3-0.6,0.7-0.7,1.1c-0.1,0.4,0,0.9,0.2,1.2
	c0.2,0.4,0.5,0.7,0.9,0.9v2.9 M7.6,13.5c0.1,0,0.2,0,0.3-0.1c0.1-0.1,0.2-0.2,0.3-0.2v3.5c0,0.2,0.1,0.3,0.2,0.4
	c0.1,0.1,0.3,0.1,0.4,0.1c0.3,0,0.6-0.2,0.6-0.6c0,0,0,0,0,0c0-0.1,0-0.2,0-0.3V12c0-0.1,0-0.2,0-0.3c0-0.2-0.1-0.4-0.3-0.5
	c-0.1,0-0.2-0.1-0.2-0.1H8.8c-0.1,0-0.2,0.1-0.3,0.1c-0.4,0.4-0.9,0.9-1.3,1.3c-0.2,0.2-0.2,0.6,0,0.8C7.3,13.4,7.4,13.5,7.6,13.5
	L7.6,13.5 M17.6,13.5c0.1,0,0.3,0,0.4-0.1l0.3-0.2v3.2c0,0.1,0,0.3,0,0.4c0.1,0.3,0.3,0.5,0.6,0.5l0,0c0.3,0,0.5-0.2,0.6-0.5
	c0-0.1,0-0.3,0-0.4v-4.7c0-0.3-0.2-0.5-0.4-0.6h-0.2c-0.2,0-0.3,0.1-0.4,0.2l-0.7,0.7c-0.2,0.2-0.4,0.3-0.5,0.5
	c-0.2,0.2-0.2,0.6,0,0.8c0,0,0,0,0,0c0.1,0.1,0.2,0.2,0.4,0.2l0,0 M11.7,3.7l-0.7,0.7L11,4L9.8,4.3C9.5,4.4,9.2,4.5,8.9,4.7L8.4,5
	v1.2c0,0.3,0,0.7,0,1c0,0.2,0,0.3,0,0.5c-0.2,0.7-0.9,1.2-1.7,1c-0.2,0-0.3-0.1-0.5-0.2C6,8.3,5.8,8.2,5.5,8.1L4.9,8L4.5,8.6
	C4,9.3,3.6,10,3.4,10.9l-0.2,1L4,12.2h0.1l0.2,0.1c0.5,0.2,0.9,0.7,0.9,1.2c0,0.5,0,0.9,0,1.4c0,0.6-0.4,1.1-0.9,1.3
	c-0.4,0.1-0.7,0.3-0.9,0.7l-0.2,0.4l0.2,0.4c0.3,0.8,0.6,1.5,1.1,2.2l0.6,0.9L6,20.1l0.2-0.2c0.2-0.1,0.4-0.2,0.6-0.2h0.2
	c0.2,0,0.3,0,0.5,0.1C7.8,19.9,8,20,8.1,20.2c0.1,0.2,0.3,0.4,0.3,0.6c0,0.2,0,0.3,0,0.5v2.2L9,23.8c0.7,0.3,1.4,0.5,2.2,0.7
	l0.8,0.2l0,0l0.4,0.1v-0.1h0.9c0.7,0,1.4-0.1,2-0.2l0.6-0.2l0,0l0.8-0.2c0.5-0.2,1-0.4,1.5-0.6l0.5-0.3v-1.5c0-0.3,0-0.5,0-0.8
	c0.2-0.6,0.7-1.1,1.4-1.1h0.2c0.1,0,0.3,0.1,0.4,0.1l0.4,0.1l0.8,0.2l0.4-0.7c0.4-0.7,0.7-1.3,0.9-2.1l0.2-0.7l-0.6-0.4l0,0L22.6,16
	c-0.4-0.2-0.7-0.6-0.7-1.1c0-0.5,0-0.9,0-1.4c0-0.5,0.3-0.9,0.7-1.1c0.2-0.1,0.3-0.2,0.4-0.3c0.1-0.2,0.2-0.4,0.3-0.6v-0.3L23.2,11
	c-0.2-0.7-0.5-1.4-0.9-2l-0.5-0.8L21,8.5l-0.2,0.1h-0.2c-0.2,0.1-0.3,0.1-0.5,0.1H20c-0.2,0-0.3,0-0.5-0.1c-0.2-0.1-0.3-0.2-0.4-0.4
	c-0.1-0.1-0.2-0.3-0.3-0.5c0-0.2-0.1-0.4-0.1-0.5V5.3l-0.6-0.3c-0.5-0.3-1-0.5-1.5-0.6l-0.8-0.2l0,0l-1.4-0.3
	c-0.4-0.1-0.7-0.1-1.1-0.1l0,0c-0.3,0-0.6,0-0.9,0.1l-0.5,0.2V4L11.7,3.7L11.7,3.7z M13.2,13.7l-0.3-0.2c-0.2-0.1-0.3-0.2-0.4-0.4
	c-0.1-0.2-0.1-0.4-0.1-0.5c0-0.2,0.1-0.3,0.3-0.5c0.1-0.1,0.3-0.2,0.5-0.2c0.2,0,0.4,0.1,0.5,0.2c0.3,0.2,0.4,0.7,0.2,1
	c-0.1,0.2-0.2,0.3-0.4,0.4L13.2,13.7z"/>
<path class="st1" d="M24.6,14.2c0-6.3-5.1-11.4-11.4-11.4v22.8C19.5,25.6,24.6,20.5,24.6,14.2z"/>
<path d="M9.1,11.2c-0.1-0.1-0.2-0.1-0.3-0.1c-0.1,0-0.2,0.1-0.3,0.1c-0.4,0.4-0.9,0.9-1.3,1.3c-0.2,0.2-0.2,0.6,0,0.8
	c0.2,0.2,0.5,0.3,0.8,0.1c0.1-0.1,0.2-0.2,0.3-0.2v3.5c0,0.2,0.1,0.3,0.2,0.4c0.1,0.1,0.3,0.1,0.4,0.1c0.3,0,0.6-0.2,0.6-0.6
	c0,0,0,0,0,0c0-0.1,0-0.2,0-0.3V12c0-0.1,0-0.2,0-0.3C9.5,11.4,9.3,11.2,9.1,11.2z"/>
<path d="M2.8,14.2c0,5.8,4.7,10.4,10.4,10.4v-1.1h-0.6c-0.1-0.1-0.1-0.3-0.1-0.5v-3.6c0-0.1,0-0.3,0-0.4c0-0.1-0.1-0.2-0.1-0.2
	c-0.1-0.1-0.1-0.1-0.2-0.2c-0.1,0-0.2-0.1-0.3-0.1c-0.1,0-0.2,0-0.3,0.1c-0.1,0.1-0.2,0.1-0.3,0.2l-1,1l-0.1,0.1
	c-0.2,0.2-0.2,0.6,0,0.8c0.2,0.2,0.6,0.2,0.8,0c0.1,0,0.1-0.1,0.2-0.1v2.7c-0.7-0.1-1.3-0.3-1.9-0.6v-1.4c0-0.3,0-0.6,0-0.8
	c-0.1-0.4-0.3-0.8-0.5-1.1c-0.3-0.3-0.6-0.5-1-0.7c-0.4-0.1-0.8-0.2-1.2-0.2C6.4,18.6,6,18.8,5.7,19l-0.2,0.2
	C5,18.6,4.7,18,4.5,17.3c0.1-0.1,0.2-0.1,0.3-0.2c1-0.3,1.7-1.2,1.7-2.3c0-0.5,0-0.9,0-1.4c0-1-0.7-1.9-1.7-2.3l-0.3-0.1
	C4.7,10.4,5,9.8,5.4,9.2c0.1,0,0.2,0.1,0.2,0.2c1.2,0.7,2.7,0.4,3.4-0.8c0.1-0.2,0.2-0.5,0.3-0.7c0-0.2,0-0.5,0-0.7c0-0.5,0-1,0-1.5
	c0.2-0.1,0.5-0.2,0.7-0.3c0.1,0.3,0.1,0.6,0.5,0.7c0.3,0.1,0.6-0.1,0.8-0.3c0,0.1,0,0.3,0,0.4V9c0,0.1,0,0.3,0,0.4
	c0,0.1,0.1,0.2,0.2,0.3c0.1,0.1,0.2,0.1,0.4,0.1c0.3,0,0.5-0.2,0.5-0.5c0-0.1,0-0.3,0-0.4V5.3c0-0.1,0-0.3,0-0.4
	c0.2,0,0.4-0.1,0.6-0.1V3.8C7.4,3.9,2.8,8.5,2.8,14.2z M7.4,19.8c0.5,0.2,0.8,0.6,0.9,1.1c0,0.4,0,0.7,0,1.2
	c-0.8-0.5-1.5-1.1-2.2-1.9C6.4,19.8,6.9,19.7,7.4,19.8z M5,13.1c0.2,0.7,0.2,1.5,0,2.2C4.9,15.7,4.5,16,4,16c-0.3-1.2-0.3-2.5,0-3.7
	C4.5,12.3,4.9,12.6,5,13.1z M8.3,6.3c0.1,0.4,0.1,0.9,0,1.3c-0.1,0.5-0.5,0.9-0.9,1c-0.5,0.1-0.9,0-1.3-0.4C6.7,7.4,7.4,6.8,8.3,6.3
	L8.3,6.3z"/>
<path d="M11.4,12.4c-0.1,0.4,0,0.9,0.2,1.2c0.2,0.4,0.5,0.7,0.9,0.9v2.9h0.8V11c-0.4,0-0.9,0.1-1.2,0.4C11.7,11.6,11.5,12,11.4,12.4
	z"/>
<path d="M19.5,8.4c0.4,0.2,0.8,0.2,1.2,0c-0.5-0.7-1.1-1.3-1.8-1.8C18.8,7.7,18.9,8.1,19.5,8.4z"/>
<path d="M18.9,20.7c-0.1,0.3-0.1,0.7,0,1c0.7-0.5,1.3-1.1,1.8-1.8c-0.6-0.3-1.4-0.1-1.7,0.5C19,20.5,18.9,20.6,18.9,20.7z"/>
<path class="st1" d="M7.3,8.6c0.5-0.1,0.9-0.5,0.9-1c0.1-0.4,0.1-0.9,0-1.3C7.4,6.8,6.7,7.4,6.1,8.2C6.4,8.5,6.9,8.7,7.3,8.6z"/>
<path class="st1" d="M4.1,16.1c0.5,0,0.9-0.3,1-0.8c0.2-0.7,0.2-1.5,0-2.2c-0.1-0.4-0.5-0.8-1-0.8C3.8,13.6,3.8,14.8,4.1,16.1z"/>
<path class="st1" d="M8.3,22.1c0-0.4,0-0.8,0-1.2c-0.1-0.5-0.4-0.9-0.9-1.1c-0.5-0.2-1,0-1.3,0.4C6.7,21,7.4,21.6,8.3,22.1z"/>
<path d="M22,15c0,0.3,0.2,0.7,0.5,0.8c0.2-1.1,0.2-2.2,0-3.2c-0.3,0.2-0.5,0.5-0.5,0.9C22,14,22,14.5,22,15z"/>
<path d="M15.1,23.3v-2.7c-0.1,0.1-0.2,0.2-0.3,0.2c-0.1,0.1-0.1,0.1-0.2,0.1c-0.1,0-0.2,0-0.2,0c-0.3-0.1-0.5-0.4-0.5-0.7
	c0-0.1,0.1-0.2,0.1-0.3c0.4-0.5,0.9-0.9,1.4-1.3c0.2-0.2,0.6-0.2,0.8,0.1c0.1,0.1,0.1,0.2,0.1,0.3c0,0.1,0,0.3,0,0.4v3.1
	c0,0.2,0,0.3,0.1,0.4c0.4-0.1,0.8-0.3,1.2-0.6v-0.8c0-0.4,0-0.8,0.1-1.2c0.3-1.3,1.5-2.1,2.7-1.9c0.3,0.1,0.6,0.2,0.9,0.3
	c0.3-0.6,0.6-1.2,0.8-1.8L22,16.9c-0.7-0.4-1.1-1.1-1.2-1.9c0-0.5,0-1.1,0-1.6c0-0.8,0.5-1.6,1.2-2c0,0,0.1,0,0.1-0.1
	c0,0,0-0.1,0-0.1c-0.2-0.6-0.5-1.2-0.8-1.8l-0.4,0.2c-0.3,0.1-0.7,0.2-1,0.2c-0.3,0-0.7-0.1-1-0.3c-0.3-0.2-0.6-0.4-0.8-0.6
	c-0.2-0.3-0.4-0.6-0.5-0.9c-0.1-0.3-0.1-0.6-0.1-0.8c0-0.4,0-0.8,0-1.2c-0.4-0.2-0.8-0.4-1.2-0.6c-0.1,0.1-0.1,0.3-0.1,0.4v3.2
	c0,0.2,0,0.3,0,0.5c-0.1,0.3-0.3,0.4-0.5,0.4c-0.3,0.1-0.6-0.1-0.7-0.4c0-0.1,0-0.3,0-0.4V6.1c0-0.1,0-0.2,0-0.4
	c-0.5,0.3-0.8,0.4-1.1,0.1c-0.3-0.3-0.2-0.5,0.1-1c-0.3-0.1-0.6-0.1-0.9-0.1v6.1l0,0c0.9,0,1.7,0.6,1.9,1.5c0.1,0.4,0,0.9-0.2,1.2
	c-0.2,0.4-0.5,0.7-0.9,0.9v2.9h-0.8v6.1C13.9,23.6,14.5,23.5,15.1,23.3z M17.2,12.5c0.2-0.2,0.3-0.3,0.5-0.5l0.7-0.7
	c0.2-0.2,0.4-0.3,0.6-0.2c0.3,0.1,0.4,0.3,0.4,0.6v4.7c0,0.1,0,0.3,0,0.4c-0.1,0.3-0.4,0.5-0.7,0.5c-0.2,0-0.4-0.2-0.5-0.5
	c0-0.1,0-0.3,0-0.4v-3.2l-0.3,0.2c-0.1,0.1-0.3,0.1-0.4,0.1c-0.1,0-0.3-0.1-0.4-0.2C17,13.2,17,12.8,17.2,12.5
	C17.2,12.6,17.2,12.6,17.2,12.5L17.2,12.5z"/>
<path d="M2.8,14.2c0-5.8,4.7-10.4,10.4-10.4v-1C6.9,2.6,1.7,7.5,1.5,13.8c-0.2,6.3,4.8,11.6,11,11.7c0.2,0,0.5,0,0.7,0v-1
	C7.5,24.6,2.8,19.9,2.8,14.2z"/>
</svg>
