<svg width="67" height="71" viewBox="0 0 67 71" fill="none" xmlns="http://www.w3.org/2000/svg">
<g clip-path="url(#clip0_411_77)">
<path d="M63.3056 36.8039C62.2272 36.547 61.1688 36.6656 60.1703 37.1397C58.8323 37.7521 58.0135 38.8386 57.5742 40.182C55.9166 40.182 54.319 40.182 52.6415 40.182C52.6415 37.0212 52.6415 33.9196 52.6415 30.7983C54.339 30.7983 55.9166 30.7983 57.5542 30.7983C57.9536 31.9836 58.6126 32.9714 59.711 33.6233C60.8293 34.2752 62.0275 34.4925 63.3056 34.1962C65.5023 33.6825 67.0201 31.7663 67.0001 29.5142C66.9801 27.3214 65.4424 25.4446 63.2457 24.9705C60.7894 24.4371 58.8922 25.5632 57.5342 28.3684C55.9366 28.3684 54.319 28.3684 52.7214 28.3684C52.6815 28.2894 52.6615 28.2499 52.6615 28.1906C52.6615 27.9733 52.6415 27.756 52.6415 27.5189C52.6415 25.0495 51.5232 23.2321 49.3664 22.027C48.2481 21.4146 47.1497 20.8219 46.0314 20.2095C45.8517 20.1108 45.612 20.0515 45.4922 19.8539C45.4922 18.1155 45.4922 16.3968 45.4922 14.8559C46.3509 13.9867 47.1298 13.2162 47.9286 12.4062C48.987 12.9396 50.1852 13.1767 51.4034 12.8606C52.6615 12.5445 53.66 11.8531 54.359 10.7666C55.5572 8.90958 55.3175 6.49945 53.7798 4.89928C52.2222 3.27936 49.7459 2.92377 47.8287 4.04981C46.8701 4.60296 46.1712 5.39316 45.7718 6.42043C45.1727 7.88231 45.3524 9.30468 46.0913 10.6875C45.2326 11.5568 44.4138 12.3667 43.5751 13.1767C43.2156 13.5323 43.0159 13.9274 43.0558 14.4213C43.0758 14.6978 43.0558 14.9547 43.0558 15.2312C43.0558 16.3178 43.0558 17.3845 43.0558 18.4711C42.956 18.4711 42.8961 18.4908 42.8561 18.4711C42.6564 18.3723 42.4567 18.2735 42.257 18.1747C39.7408 16.8907 37.4043 15.2905 34.7283 14.2632C34.7283 12.6235 34.7283 10.9839 34.7283 9.36395C37.3843 8.1984 38.6424 6.24264 38.2231 3.97079C37.8037 1.77797 36.0263 0.138294 33.8895 0.0197633C31.573 -0.118523 29.556 1.22483 28.897 3.33863C28.5774 4.38565 28.5974 5.43267 29.0168 6.45994C29.6159 7.96133 30.7542 8.87007 32.2719 9.36395C32.2719 10.9246 32.2719 12.426 32.2719 13.9274C32.2719 14.0459 32.252 14.1644 32.252 14.3225C31.2934 14.5596 30.4546 15.0337 29.5959 15.5078C27.9184 16.4363 26.2409 17.345 24.5634 18.2538C24.3837 18.3525 24.204 18.5303 23.9643 18.4908C23.8845 18.2538 23.9244 17.9969 23.9244 17.7599C23.9244 16.6734 23.9044 15.5868 23.9244 14.5003C23.9444 13.9669 23.7646 13.552 23.3852 13.1767C22.6862 12.505 22.0073 11.8136 21.3283 11.1419C21.1685 10.9839 20.9688 10.8653 20.9289 10.6283C22.0073 8.00084 21.4681 5.70925 19.4511 4.30663C17.5938 3.02255 15.1175 3.18059 13.44 4.68198C11.7226 6.22288 11.3232 8.65276 12.4615 10.6085C13.0207 11.5765 13.8394 12.2877 14.8979 12.7026C16.3557 13.2755 17.7736 13.0977 19.0916 12.4458C19.9104 13.2557 20.6892 14.0064 21.508 14.8164C21.508 16.4956 21.508 18.234 21.508 19.9922C20.5894 20.4861 17.2943 22.1258 17.2943 22.1258C15.5369 23.0938 14.6982 24.4569 14.4386 26.2546C14.3187 26.6102 14.3587 26.9658 14.3187 27.3214C14.2788 27.677 14.3986 28.0523 14.2189 28.4474C13.4201 28.4474 12.6213 28.4474 11.8225 28.4474C11.0236 28.4474 10.2448 28.4474 9.46597 28.4474C8.22782 25.741 6.25077 24.5161 3.93423 24.9705C1.71754 25.3656 0.11992 27.1633 9.84566e-05 29.3166C-0.0997525 31.3317 1.09846 33.4257 3.43497 34.1369C4.49339 34.453 5.55181 34.3937 6.59026 33.9789C8.06806 33.3862 8.98669 32.2602 9.446 30.818C11.1235 30.818 12.7211 30.818 14.3387 30.818C14.3387 33.9591 14.3387 37.0607 14.3387 40.2215C14.0791 40.2215 13.8594 40.2215 13.6397 40.2215C12.2418 40.2215 10.8639 40.2215 9.48594 40.2215C8.22782 37.515 6.29071 36.2902 3.97417 36.7446C1.71754 37.1792 0.11992 38.9967 9.84566e-05 41.15C-0.119723 43.2638 1.21828 45.3381 3.49488 45.99C4.5533 46.2863 5.61172 46.2271 6.6302 45.7924C8.06806 45.18 8.96672 44.0737 9.42603 42.6711C11.0836 42.6711 12.7011 42.6711 14.3587 42.6711C14.3587 43.0662 14.3587 43.4021 14.3587 43.7379C14.3587 44.2911 14.4385 44.8244 14.5983 45.3381C15.0776 46.958 16.116 48.1433 17.5938 48.9533C18.8919 49.6645 20.2099 50.3756 21.508 51.0868C21.508 52.845 21.508 54.5637 21.508 56.3812C21.1485 56.717 20.7691 57.0726 20.3697 57.4677C19.9703 57.8628 19.5509 58.2579 19.1715 58.6333C16.1959 57.5863 13.9593 58.1592 12.6013 60.2927C11.3831 62.209 11.6827 64.6784 13.3202 66.2588C14.9378 67.8194 17.3941 68.096 19.3113 66.8909C20.2698 66.2983 20.9289 65.4488 21.3083 64.382C21.7876 62.9992 21.6079 61.6756 20.9289 60.3717C21.0886 60.1939 21.2284 60.0359 21.3882 59.8779C22.0073 59.2655 22.6064 58.6333 23.2454 58.0604C23.7646 57.5863 24.0043 57.0726 23.9643 56.3614C23.9244 55.3342 23.9444 54.2872 23.9643 53.2599C23.9643 53.0228 23.9044 52.766 24.0642 52.5092C24.3038 52.6277 24.5435 52.7463 24.7831 52.8648C27.2794 54.1686 29.6558 55.7293 32.2919 56.7763C32.2919 58.3962 32.2919 60.0162 32.2919 61.6756C31.0737 62.0707 30.0552 62.7424 29.3962 63.8684C28.7372 64.9747 28.5575 66.16 28.857 67.4243C29.3763 69.5776 31.3533 71.0593 33.6499 71.0198C35.8666 70.9803 37.7038 69.4394 38.2031 67.2268C38.7223 64.8562 37.5441 62.9399 34.7482 61.6361C34.7482 59.9964 34.7482 58.3567 34.7482 56.6775C35.7667 56.4405 36.6454 55.9268 37.5441 55.433C39.1816 54.544 40.7992 53.6352 42.4368 52.766C42.6165 52.6672 42.7763 52.4894 43.0758 52.5685C43.0758 53.7735 43.1158 54.9786 43.0558 56.1837C43.0159 56.9541 43.2555 57.5468 43.8347 58.0801C44.6335 58.7913 45.3524 59.5618 46.1113 60.3322C45.5521 61.478 45.2925 62.6238 45.5921 63.8684C45.8916 65.0932 46.5706 66.0612 47.629 66.7724C49.4862 67.9972 51.9226 67.8194 53.5602 66.3378C55.2377 64.8166 55.657 62.4065 54.5587 60.4705C54.0195 59.5223 53.2406 58.8111 52.2222 58.3765C50.7244 57.7443 49.2666 57.9221 47.9086 58.5938C47.0698 57.7838 46.291 57.0331 45.5122 56.2627C45.5122 54.544 45.5122 52.8253 45.5122 51.0868C46.8102 50.3756 48.0883 49.6645 49.3664 48.973C51.5631 47.768 52.6615 45.911 52.6615 43.4218C52.6615 43.165 52.5616 42.8884 52.7813 42.6316C54.2791 42.6316 55.7569 42.6316 57.2547 42.6316C57.3545 42.6316 57.4544 42.6514 57.5342 42.6514C58.8523 45.4171 60.7894 46.5826 63.1658 46.069C65.4225 45.5751 66.9801 43.7379 67.0001 41.5056C67.0201 39.2337 65.5223 37.3372 63.3056 36.8039ZM62.2272 27.2424C63.5253 27.2621 64.5837 28.3091 64.5837 29.5932C64.5837 30.8773 63.5253 31.9441 62.2272 31.9441C60.9092 31.9441 59.8108 30.8773 59.8308 29.5537C59.8508 28.2696 60.9292 27.2226 62.2272 27.2424ZM50.2651 5.94631C51.5631 5.94631 52.6216 7.01309 52.6415 8.29717C52.6415 9.60101 51.5432 10.6875 50.2052 10.6678C48.9071 10.648 47.8487 9.5615 47.8687 8.27742C47.8886 6.97358 48.967 5.92655 50.2651 5.94631ZM16.795 10.648C15.477 10.6678 14.3786 9.58126 14.3786 8.27742C14.3986 6.99333 15.477 5.94631 16.7751 5.94631C18.0731 5.94631 19.1515 7.01309 19.1515 8.29717C19.1515 9.5615 18.0931 10.6283 16.795 10.648ZM4.83289 31.9441C3.53482 31.9638 2.45643 30.9168 2.41649 29.6327C2.39652 28.3289 3.47491 27.2226 4.79295 27.2226C6.09101 27.2226 7.14943 28.2696 7.1694 29.5735C7.18937 30.8575 6.13095 31.9243 4.83289 31.9441ZM4.81292 43.7774C3.51485 43.7774 2.43646 42.7304 2.41649 41.4463C2.39652 40.1425 3.49488 39.0559 4.81292 39.0559C6.11098 39.0757 7.1694 40.1227 7.1694 41.4068C7.18937 42.6909 6.11098 43.7774 4.81292 43.7774ZM16.7351 65.0735C15.4371 65.0537 14.3786 63.9869 14.3786 62.7028C14.3786 61.4188 15.457 60.352 16.7551 60.352C18.0731 60.352 19.1715 61.4385 19.1515 62.7621C19.1315 64.0462 18.0332 65.0735 16.7351 65.0735ZM28.7372 39.8659C28.7372 39.9449 28.7372 40.0042 28.7372 40.0832C28.7172 40.7549 28.4576 41.1697 27.9184 41.3475C27.3992 41.5253 26.9199 41.3673 26.5005 40.8141C25.2824 39.2337 24.0842 37.6336 22.866 36.0334C22.4865 35.5198 22.0871 35.0259 21.7077 34.5123C21.6678 34.5123 21.6278 34.532 21.5679 34.532C21.5679 36.231 21.5679 37.9299 21.5679 39.6288C21.5679 39.8461 21.5879 40.0832 21.5479 40.3005C21.488 40.9524 20.9888 41.4068 20.3697 41.4068C19.7506 41.4068 19.2514 40.9722 19.1715 40.3203C19.1515 40.1425 19.1515 39.9844 19.1515 39.8066C19.1515 36.9224 19.1515 34.0381 19.1515 31.1736C19.1515 30.9958 19.1515 30.818 19.1715 30.66C19.2314 30.1464 19.511 29.7908 20.0102 29.6327C20.4895 29.4747 20.9089 29.6327 21.2284 29.9686C21.4081 30.1661 21.5679 30.4032 21.7277 30.6205C23.1056 32.438 24.4836 34.2357 25.8615 36.0532C25.9813 36.2112 26.1011 36.3495 26.3208 36.6261C26.3208 36.1124 26.3208 35.7568 26.3208 35.3815C26.3208 33.9789 26.3208 32.5762 26.3208 31.1736C26.3208 30.9761 26.3008 30.7785 26.3408 30.581C26.4406 29.9883 26.9599 29.5735 27.539 29.5932C28.0982 29.613 28.5774 30.0081 28.6973 30.5612C28.7372 30.7588 28.7172 30.9563 28.7172 31.1539C28.7372 34.0579 28.7372 36.9619 28.7372 39.8659ZM50.2651 60.352C51.5631 60.3717 52.6216 61.4385 52.6216 62.7226C52.6216 64.0067 51.5432 65.0735 50.2451 65.0735C48.947 65.0735 47.8687 64.0264 47.8487 62.7424C47.8487 61.4188 48.947 60.3322 50.2651 60.352ZM31.1336 4.761C31.1336 3.47691 32.1921 2.41014 33.4901 2.39038C34.8081 2.37063 35.9065 3.45716 35.8865 4.78075C35.8666 6.06484 34.7882 7.11186 33.4901 7.11186C32.212 7.09211 31.1336 6.02533 31.1336 4.761ZM35.8865 66.2785C35.8666 67.5626 34.8081 68.6096 33.5101 68.6096C32.1921 68.6096 31.0937 67.5034 31.1336 66.1995C31.1736 64.9154 32.252 63.8882 33.55 63.9079C34.8281 63.9277 35.9065 65.0142 35.8865 66.2785ZM36.3459 34.3147C36.5855 34.3147 36.8451 34.2949 37.0848 34.3147C37.8037 34.3542 38.283 34.8283 38.283 35.4803C38.3029 36.1519 37.8037 36.6656 37.0448 36.6853C36.2061 36.7051 35.3473 36.6853 34.5086 36.6853C34.209 36.6853 33.9095 36.6853 33.6499 36.6853C33.4302 36.8631 33.5101 37.0804 33.5101 37.278C33.5101 38.1472 33.5101 38.9967 33.5101 39.8659C33.5101 40.0042 33.5101 40.1622 33.5101 40.3005C33.4502 40.9524 32.9509 41.4068 32.3318 41.4068C31.7128 41.4068 31.1935 40.9722 31.1336 40.3203C31.1137 40.1425 31.1137 39.9844 31.1137 39.8066C31.1137 36.9224 31.1137 34.0381 31.1137 31.1539C31.1137 31.0156 31.1137 30.8576 31.1137 30.7193C31.1736 30.0673 31.5929 29.5932 32.252 29.5735C33.8695 29.5537 35.4871 29.5537 37.1047 29.5735C37.8037 29.5932 38.283 30.1069 38.283 30.7588C38.283 31.4107 37.8037 31.9046 37.0848 31.9243C36.1861 31.9441 35.2874 31.9243 34.3888 31.9441C34.1292 31.9441 33.8496 31.9046 33.5301 32.0033C33.5301 32.7145 33.5301 33.4455 33.5301 34.2949C34.5086 34.3147 35.4272 34.3147 36.3459 34.3147ZM46.6105 31.9638C46.271 31.9836 45.9116 31.9638 45.5521 31.9638C45.4323 32.2799 45.4722 32.5367 45.4722 32.7738C45.4722 35.1049 45.4722 37.4558 45.4722 39.7869C45.4722 40.0042 45.4922 40.2412 45.4523 40.4586C45.3524 41.0512 44.8132 41.4661 44.2341 41.4266C43.6749 41.4068 43.1956 40.9919 43.0958 40.4388C43.0558 40.2215 43.0758 40.0042 43.0758 39.7671C43.0758 37.436 43.0758 35.0852 43.0758 32.754C43.0758 32.517 43.1158 32.2602 42.9959 31.9638C42.6764 31.9638 42.3369 31.9836 41.9774 31.9638C41.1786 31.9441 40.6594 31.4502 40.6794 30.739C40.6994 30.0673 41.1986 29.5932 41.9575 29.5932C43.4952 29.5735 45.0329 29.5735 46.5906 29.5932C47.3494 29.5932 47.8487 30.0871 47.8687 30.7588C47.8687 31.4304 47.3694 31.9243 46.6105 31.9638ZM62.2272 43.7774C60.8892 43.7774 59.8108 42.6909 59.8308 41.3673C59.8508 40.0832 60.9491 39.0362 62.2472 39.0559C63.5453 39.0757 64.6037 40.1227 64.6037 41.4266C64.5837 42.7106 63.5053 43.7774 62.2272 43.7774Z" fill="white"/>
<path d="M7.00977 16.6141C8.66729 16.6141 10.205 16.6141 11.7627 16.6141C11.7627 18.1748 11.7627 19.7157 11.7627 21.2961C10.185 21.2961 8.62735 21.2961 7.00977 21.2961C7.00977 19.6959 7.00977 18.1353 7.00977 16.6141Z" fill="white"/>
<path d="M60.7896 51.8967C60.7896 53.4574 60.7896 54.9785 60.7896 56.5392C59.2119 56.5392 57.6742 56.5392 56.0566 56.5392C56.0566 55.018 56.0566 53.4771 56.0566 51.8967C57.6143 51.8967 59.152 51.8967 60.7896 51.8967Z" fill="white"/>
</g>
<defs>
<clipPath id="clip0_411_77">
<rect width="67" height="71" fill="white"/>
</clipPath>
</defs>
</svg>
