<svg width="56" height="57" viewBox="0 0 56 57" fill="none" xmlns="http://www.w3.org/2000/svg">
<path fill-rule="evenodd" clip-rule="evenodd" d="M28.418 16.7425C29.3517 16.4409 30.2441 15.9745 31.089 15.3542L31.1403 15.3044L36.4058 20.8517L30.8534 25.3819L28.418 16.7425ZM26.4482 17.1264C25.6227 17.1859 24.7713 17.1251 23.8976 16.9373L23.8599 17.0355L21.906 22.1253L28.559 24.6141L26.4871 17.2642L26.4482 17.1264ZM21.9965 16.3091C20.6001 15.6585 19.4025 14.6352 18.548 13.341C18.3053 12.9839 18.0915 12.6113 17.9074 12.2266L13.4533 14.2789L8.95891 16.3498L8.85627 16.3971C8.91563 16.6838 8.94663 16.9786 8.94668 17.2773L9.17465 17.3626L20.0327 21.4245L21.9928 16.3187L21.9965 16.3091ZM8.48101 19.2385C8.35253 19.4973 8.19603 19.752 8.00978 20L7.21832 20.7696C7.15539 20.8158 7.09195 20.8604 7.02801 20.9032L7.05891 20.9737L12.3656 33.0772L12.3778 33.1048C13.4053 32.8001 14.5043 32.8147 15.5314 33.15L19.3159 23.2917L8.48101 19.2385ZM17.3 34.1235C17.3262 34.145 17.3522 34.1667 17.378 34.1887C17.8106 34.5567 18.1782 34.9977 18.4663 35.4886L28.9829 26.908L21.1892 23.9925L17.3834 33.9063L17.3 34.1235ZM19.1457 37.5155C19.2257 38.2064 19.167 38.9268 18.9451 39.6373L19.12 39.7593L30.4465 47.6606C30.7534 47.1663 31.1335 46.7147 31.5781 46.3222C32.3796 45.6169 33.312 45.1535 34.2869 44.9327L29.7556 28.8588L19.53 37.2019L19.1457 37.5155ZM36.3337 44.8224C37.5229 44.9592 38.6857 45.446 39.6699 46.2844C39.6972 46.3077 39.7243 46.3312 39.7512 46.3549L45.5495 35.9406L45.5983 35.853C45.1603 35.489 44.7749 35.0611 44.4571 34.5798C43.9951 33.9006 43.6823 33.1412 43.5303 32.3501L43.0732 32.1791L31.5549 27.8702L36.2487 44.5208L36.3337 44.8224ZM43.5125 30.208C43.5981 29.7185 43.7444 29.2442 43.946 28.7952L43.7316 28.5694L37.7866 22.3063L32.9465 26.2554L43.5125 30.208ZM45.092 27.0975C45.2071 26.9776 45.3275 26.8621 45.4531 26.7512C46.5747 25.7643 47.9527 25.2509 49.3448 25.2135L49.3479 25.1791L50.4494 12.903L50.4529 12.8649C50.4167 12.8565 50.3804 12.8476 50.344 12.8383C50.1122 12.7803 49.8871 12.7037 49.6707 12.61L49.3836 12.8443L39.3406 21.0384L45.092 27.0975ZM48.0305 11.367C47.9438 11.26 47.862 11.1484 47.7856 11.0327C47.5939 10.7509 47.4373 10.4503 47.3172 10.1373L47.0199 10.1247L34.4014 9.5876L34.3827 9.5868C34.2068 11.0345 33.6464 12.4999 32.6254 13.8597L32.574 13.9097L32.5823 13.9185L37.9598 19.5837L48.0305 11.367ZM34.3857 7.58512C34.1336 5.45335 33.0777 3.4945 31.4847 2.13911C28.1108 -0.736085 23.2613 -0.707618 19.9659 2.19288C18.4071 3.56972 17.4052 5.4564 17.1446 7.50512C17.0242 8.45174 17.0659 9.40346 17.2605 10.3226L17.1108 10.3916L12.6164 12.4625L8.12196 14.5333L8.01531 14.5825C7.83886 14.3572 7.64029 14.1497 7.42216 13.9642C5.68406 12.4835 3.18586 12.4982 1.4882 13.9919C0.685219 14.7009 0.169036 15.6725 0.0348093 16.7275C-0.0994178 17.7826 0.157363 18.8499 0.757809 19.7329C1.35062 20.6304 2.26394 21.275 3.31626 21.5385C3.95799 21.7024 4.57735 21.7344 5.16897 21.6439L5.22724 21.7768L10.534 33.8803L10.5985 34.0274C10.5194 34.0895 10.4416 34.1542 10.3652 34.2215C9.41621 35.0594 8.80618 36.2077 8.64755 37.4545C8.48891 38.7014 8.79237 39.9628 9.50199 41.0063C10.2026 42.067 11.282 42.8288 12.5256 43.1402C14.2179 43.5724 15.7784 43.2287 17.1371 42.2316L17.9856 41.4065L29.4158 49.3802L29.6792 49.5639C29.6449 49.7251 29.6171 49.8881 29.5962 50.0526C29.4132 51.4913 29.7633 52.9468 30.5821 54.1508C31.3905 55.3747 32.6359 56.2537 34.0709 56.613C36.0235 57.1116 37.8242 56.7152 39.3919 55.5646L40.4712 54.5151C42.045 52.4197 42.0607 49.9676 41.0841 48.0723L41.3447 47.6043L47.2969 36.9135L47.331 36.8523C47.5314 36.9262 47.7366 36.9896 47.9459 37.042C49.8985 37.5407 51.6991 37.1442 53.2668 35.9936L54.3461 34.9441C56.4867 32.0943 55.745 28.5848 53.5448 26.7134C52.8731 26.1412 52.1181 25.7327 51.3283 25.4876L51.3399 25.3579L52.4414 13.0818L52.4582 12.8954C53.0898 12.7583 53.6881 12.479 54.2461 12.0695L55.0376 11.2998C56.6073 9.20998 56.0634 6.63635 54.4499 5.26401C52.7118 3.78336 50.2136 3.79802 48.516 5.2917C47.713 6.00074 47.1968 6.97234 47.0626 8.02738C47.0585 8.05964 47.0547 8.0919 47.0514 8.12418L34.4864 7.58941L34.3857 7.58512ZM26.3341 8.5822C27.9473 8.00178 28.8573 6.7508 28.617 5.37963C28.335 3.70955 27.0149 2.90614 25.7669 2.91089C24.402 2.91089 23.178 3.83924 22.9265 5.39228C22.7054 6.75555 23.5913 7.99071 25.2447 8.58852C24.0655 8.78621 23.0386 9.26857 22.2392 10.1447C21.4377 11.0009 20.9936 12.1246 20.996 13.2904H30.5587C30.5498 12.3271 30.2442 11.3894 29.6824 10.6018C28.8669 9.46784 27.7263 8.84156 26.3341 8.5822ZM36.0516 50.809C37.1849 50.4014 37.8242 49.5229 37.6554 48.56C37.4573 47.3872 36.5299 46.823 35.6532 46.8264C34.6944 46.8264 33.8346 47.4783 33.6579 48.5689C33.5026 49.5262 34.1249 50.3936 35.2864 50.8134C34.458 50.9523 33.7367 51.291 33.1751 51.9063C32.612 52.5075 32.3001 53.2966 32.3017 54.1152H39.0194C39.0131 53.4388 38.7984 52.7803 38.4038 52.2272C37.8309 51.4309 37.0296 50.9911 36.0516 50.809ZM51.5303 28.9891C51.6991 29.952 51.0599 30.8304 49.9266 31.238C50.9046 31.4202 51.7059 31.86 52.2787 32.6563C52.6734 33.2093 52.8881 33.8679 52.8943 34.5443H46.1767C46.175 33.7256 46.487 32.9366 47.05 32.3353C47.6116 31.72 48.333 31.3813 49.1613 31.2425C47.9999 30.8227 47.3775 29.9553 47.5328 28.9979C47.7095 27.9073 48.5693 27.2554 49.5282 27.2554C50.4049 27.2521 51.3322 27.8163 51.5303 28.9891ZM4.74264 17.3264C5.41746 17.0468 5.7981 16.4441 5.69758 15.7836C5.57964 14.9791 5.02745 14.5921 4.50542 14.5944C3.93447 14.5944 3.42249 15.0416 3.31728 15.7897C3.2248 16.4464 3.59539 17.0414 4.28696 17.3294C3.79374 17.4246 3.36419 17.657 3.0298 18.0791C2.69454 18.4915 2.50878 19.0328 2.50978 19.5944H6.50977C6.50607 19.1304 6.37821 18.6786 6.14322 18.2992C5.80212 17.753 5.32499 17.4513 4.74264 17.3264ZM52.6377 7.18925C52.7383 7.84977 52.3576 8.45239 51.6828 8.73199C52.2651 8.85693 52.7423 9.15862 53.0834 9.70486C53.3184 10.0843 53.4462 10.536 53.4499 11H49.4499C49.4489 10.4384 49.6347 9.89714 49.97 9.48469C50.3043 9.06263 50.7339 8.83026 51.2271 8.73503C50.5355 8.44706 50.165 7.85206 50.2574 7.19534C50.3627 6.44721 50.8746 6.00001 51.4456 6.00001C51.9676 5.99772 52.5198 6.38474 52.6377 7.18925ZM14.241 38.2784C15.0846 37.9429 15.5603 37.2197 15.4347 36.4271C15.2873 35.4617 14.597 34.9973 13.9445 35C13.2308 35 12.5908 35.5367 12.4593 36.4344C12.3437 37.2225 12.807 37.9365 13.6714 38.282C13.0549 38.3963 12.518 38.6752 12.1 39.1816C11.6809 39.6766 11.4487 40.3261 11.4499 41H16.4499C16.4453 40.4432 16.2855 39.9011 15.9917 39.4458C15.5654 38.7903 14.969 38.4283 14.241 38.2784Z" fill="white"/>
</svg>
