<svg width="55" height="53" viewBox="0 0 55 53" fill="none" xmlns="http://www.w3.org/2000/svg">
<path fill-rule="evenodd" clip-rule="evenodd" d="M52.3837 46.5633V43.6531H42.4247L43.743 39.8327H54.2939V12.551H42.331L42.9213 8.73062H52.3837V5.82041C52.3837 2.61919 49.7645 0 46.5633 0H5.82041C2.59008 0 0 2.61919 0 5.82041V46.5633C0 49.7645 2.59008 52.3837 5.82041 52.3837H46.5633C49.7645 52.3837 52.3837 49.7645 52.3837 46.5633ZM41.8167 8.73062H42.9213L43.6734 3.86246L43.4735 3.56331L41.8167 8.73062ZM40.5917 12.551L41.8167 8.73062H32.1919C28.9615 8.73062 26.3714 11.3498 26.3714 14.551V37.8327C26.3714 41.0339 28.9615 43.6531 32.1919 43.6531H41.2682L40.536 48.2435L40.7302 48.5633L42.4247 43.6531H41.2682L41.8775 39.8327H43.743L44.7942 36.7864H50.2505L46.6772 30.7778L49.5906 21.4814L42.4727 23.7079L40.8602 20.9963L41.5329 17.3772H48.0468L48.9948 21.1299L50.5 15.7074H41.8433L42.331 12.551H40.5917ZM40.5917 12.551H30.1919V39.8327H41.8775L42.3634 36.7864H34.5L36.2131 30.8733L36.5707 34.6346H42.7791L43.5808 30.4855L41.9075 27.6748L35.4107 30.3211L38.0257 21.1546L34.7827 15.7074H39.5797L40.5917 12.551ZM38.8966 22.6175L37.3102 28.1784L45.8267 25.2957L45.2487 28.3757L45.8267 29.3476L47.6884 23.4069L38.6267 26.2414L39.4439 23.3862L38.8966 22.6175Z" fill="white"/>
</svg>
