<?xml version="1.0" encoding="utf-8"?>
<!-- Generator: Adobe Illustrator 24.0.0, SVG Export Plug-In . SVG Version: 6.00 Build 0)  -->
<svg version="1.1" id="Capa_1" xmlns="http://www.w3.org/2000/svg" xmlns:xlink="http://www.w3.org/1999/xlink" x="0px" y="0px"
	 viewBox="0 0 65.7 82.9" style="enable-background:new 0 0 65.7 82.9;" xml:space="preserve">
<style type="text/css">
	.st0{fill-rule:evenodd;clip-rule:evenodd;fill:#FFFFFF;}
</style>
<g>
	<g>
		<path class="st0" d="M12.4,6.3H32V14h-1.3c-0.2,0-0.4,0.2-0.4,0.4v50.9c0,0.2,0.2,0.4,0.4,0.4h4.6c0.2,0,0.4-0.2,0.4-0.4V14.5
			c0-0.2-0.2-0.4-0.4-0.4H34V6.3h19.7c0.5,0,0.9-0.4,0.9-0.9s-0.4-0.9-0.9-0.9H12.4c-0.5,0-0.9,0.4-0.9,0.9S11.9,6.3,12.4,6.3z
			 M18.8,8.9c0,0-0.4-0.9-0.9-0.9H4.7c-0.5,0-0.9,0.8-0.9,0.9l-2.1,2.9h19.1L18.8,8.9z M46.9,8.9l-2.1,2.9H64l-2.1-2.9
			c0,0-0.4-0.9-0.9-0.9H47.9C47.4,8.1,46.9,8.9,46.9,8.9z M43.9,73.7H22.1c-0.7,0-1.3,0.6-1.3,1.3v3.4h24.4V75
			C45.2,74.3,44.6,73.7,43.9,73.7z M36.6,69.2c0.7,0,1.3-0.6,1.3-1.3v0c0-0.7-0.6-1.3-1.3-1.3h-7.2c-0.7,0-1.3,0.6-1.3,1.3v0
			c0,0.7,0.6,1.3,1.3,1.3H36.6z M23.2,72.6v0.1h19.6v-0.1c0-1.4-1.1-2.6-2.6-2.6H25.7C24.3,70.1,23.2,71.2,23.2,72.6z"/>
	</g>
</g>
</svg>
