<svg width="69" height="64" viewBox="0 0 69 64" fill="none" xmlns="http://www.w3.org/2000/svg">
<path fill-rule="evenodd" clip-rule="evenodd" d="M14.7479 19.3736C14.7834 19.269 14.8227 19.1537 14.9485 19.1121C14.9432 19.2615 14.9302 19.4105 14.9099 19.5585C14.734 20.5207 14.796 21.5112 15.0903 22.4439C15.3847 23.3766 15.9026 24.2233 16.5989 24.9101C17.2952 25.5969 18.1489 26.1032 19.0856 26.3847C20.0222 26.6663 21.0135 26.7146 21.9731 26.5255C25.0031 25.9712 27.2469 23.1819 26.7853 19.7956C26.6524 18.771 26.2571 17.7981 25.6377 16.9711C25.0183 16.1442 24.1959 15.4912 23.25 15.0754C22.3041 14.6597 21.2669 14.4953 20.2389 14.5981C19.2108 14.701 18.2267 15.0676 17.382 15.6624C17.2176 15.8095 17.0311 15.9298 16.8295 16.0189C16.8139 16.1017 16.77 16.1445 16.6863 16.1342C16.6833 16.1196 16.6829 16.1046 16.685 16.0898C16.6876 16.0718 16.694 16.0546 16.7037 16.0393C16.7136 16.0239 16.7264 16.0108 16.7417 16.0009C16.7569 15.9909 16.774 15.9843 16.792 15.9815C17.019 15.518 17.3629 15.1468 17.7066 14.7758L17.7899 14.6858L17.8489 14.6216C20.2871 11.9481 23.2903 10.1658 26.6534 8.91823C27.3747 8.65155 28.1124 8.43909 28.8501 8.22662C29.1132 8.15083 29.3763 8.07504 29.6388 7.99678C30.5032 7.73835 31.0718 7.04326 31.0842 6.2038C31.1092 4.75478 31.1216 3.30578 31.0842 1.85855C31.0575 0.73571 29.9257 -0.155441 28.8243 0.022789L28.7435 0.0358886C28.2877 0.109833 27.8334 0.18351 27.3824 0.279442C21.8217 1.46645 17.0308 4.06326 13.0706 8.16254C12.9794 8.29565 12.8529 8.4006 12.7052 8.46553C12.6018 8.33364 12.4878 8.19818 12.3826 8.05738C12.0634 7.63187 11.741 7.20731 11.4183 6.78231L11.4149 6.7778C10.8507 6.03473 10.2856 5.29035 9.73413 4.53735C9.52557 4.25511 9.24786 4.03132 8.92779 3.8875C8.60766 3.7437 8.25592 3.68471 7.90643 3.71622C7.55688 3.74773 7.22137 3.86868 6.93219 4.06744C6.64294 4.26619 6.40979 4.53605 6.25506 4.85103C4.18524 8.78634 2.17718 12.7519 0.230894 16.7479C0.0637802 17.0704 -0.0150772 17.4315 0.00237886 17.7944C0.0197739 18.1573 0.132872 18.5091 0.330077 18.8142C0.527342 19.1193 0.801756 19.3668 1.12549 19.5316C1.44928 19.6965 1.81085 19.7728 2.17364 19.7528C3.32495 19.7047 4.48523 19.7047 5.64197 19.7047C5.66217 19.7047 5.68274 19.7035 5.70355 19.7016C5.72528 19.6997 5.74725 19.6971 5.76929 19.6944C5.89892 19.679 6.03137 19.6632 6.13568 19.7849C6.15643 19.919 6.13849 20.0563 6.08398 20.1806C5.52807 22.1505 5.20038 24.1778 5.1073 26.2225C4.89953 30.1435 5.51581 34.0644 6.91632 37.7326C7.42248 39.0462 8.67364 39.5274 9.89093 38.8555C11.037 38.2227 12.1688 37.5597 13.2898 36.8825C14.1667 36.3549 14.4893 35.5226 14.2523 34.5352C14.2059 34.3409 14.1346 34.152 14.074 33.9631C13.4854 32.071 13.1603 30.1069 13.108 28.126C13.088 26.9213 13.1631 25.7169 13.3326 24.524C13.5569 22.7816 14.0218 21.0788 14.7139 19.4641C14.7264 19.4365 14.737 19.4056 14.7479 19.3736ZM16.6779 16.1439C16.6011 16.1472 16.5673 16.1867 16.5551 16.2544C16.6347 16.2635 16.6761 16.2258 16.6779 16.1439ZM53.4449 19.8702C53.408 19.623 53.3712 19.3765 53.3763 19.125C53.7183 19.5581 53.8828 20.0711 54.0463 20.5807L54.0468 20.5823C54.0815 20.6906 54.1162 20.7987 54.1525 20.9059C55.1411 23.9623 55.4454 27.1988 55.0437 30.3859C54.8554 31.7506 54.5495 33.0965 54.1293 34.4086C53.8068 35.494 54.1382 36.3477 55.0972 36.9198C55.6402 37.2439 56.1882 37.5595 56.7361 37.8751L56.7383 37.8764C57.2867 38.1922 57.835 38.508 58.3784 38.8322C58.6436 38.9963 58.9423 39.0986 59.2524 39.1315C59.5626 39.1644 59.8762 39.1271 60.1699 39.0224C60.4636 38.9176 60.73 38.7481 60.9493 38.5263C61.1686 38.3046 61.3353 38.0363 61.4368 37.7415C62.4426 35.0763 63.0433 32.2755 63.2191 29.4324C63.4108 26.3173 63.0837 23.192 62.2513 20.1841C62.2475 20.1706 62.2434 20.1573 62.2391 20.1439C62.2346 20.1301 62.2299 20.1164 62.2252 20.1026C62.1848 19.9841 62.1442 19.8651 62.237 19.7331C62.4277 19.6864 62.6259 19.678 62.8198 19.7082C63.2449 19.7122 63.6699 19.7185 64.095 19.7247C64.8035 19.7352 65.512 19.7456 66.2205 19.7456C66.6202 19.7614 67.0157 19.6583 67.3567 19.4492C67.6978 19.2401 67.9692 18.9345 68.1364 18.5711C68.1478 18.5492 68.1566 18.5259 68.1649 18.5024L68.1722 18.4815C68.1973 18.4083 68.2222 18.3356 68.304 18.2966V17.0935C68.1692 17.0556 68.1343 16.9447 68.1006 16.8377L68.1005 16.8372C68.0883 16.7986 68.0764 16.7604 68.0598 16.7264C66.7563 14.0256 65.4166 11.3421 64.0407 8.67577C63.3848 7.41627 62.7266 6.15619 62.0659 4.89552C61.6436 4.09348 61.0001 3.67286 60.0733 3.72098C59.7833 3.7345 59.5002 3.81411 59.2457 3.95373C58.9912 4.09335 58.772 4.28928 58.6047 4.52658C58.2271 5.02426 57.8519 5.52549 57.4763 6.0272L57.4735 6.03079C57.1976 6.39929 56.9215 6.76805 56.6442 7.13586C56.429 7.42091 56.2124 7.70458 55.9893 7.99675L55.9767 8.0134L55.9573 8.03881C55.8322 8.20259 55.7051 8.36918 55.5748 8.54031L55.529 8.48921C55.363 8.30428 55.227 8.1527 55.0864 8.00562C53.5208 6.39317 51.7599 4.98255 49.8447 3.80653C46.6847 1.86205 43.2609 0.660774 39.6108 0.0441055C38.4719 -0.155518 37.1887 0.774841 37.2136 2.00463C37.23 2.78732 37.2269 3.57118 37.2237 4.35522V4.36256C37.2214 4.93475 37.2191 5.50701 37.2243 6.07896C37.2177 6.50513 37.3502 6.92183 37.6017 7.26595C37.8532 7.61006 38.21 7.86285 38.618 7.98602C38.7856 8.04305 38.9514 8.08404 39.1296 8.12682C40.1197 8.37646 41.0941 8.68535 42.0472 9.05183C45.2642 10.2887 48.132 12.0568 50.4721 14.6233C50.5313 14.6882 50.5912 14.7526 50.6511 14.8169C50.9822 15.1729 51.3131 15.5286 51.529 15.9814C51.5387 15.9832 51.5482 15.9862 51.5572 15.9901C51.5646 15.9933 51.5718 15.9972 51.5785 16.0018C51.5934 16.0119 51.6061 16.0249 51.6158 16.0401C51.6255 16.0553 51.632 16.0723 51.6348 16.0901C51.6371 16.1048 51.637 16.1197 51.6344 16.1343C51.5504 16.1437 51.5071 16.101 51.4933 16.017C51.3335 15.9774 51.2103 15.8763 51.0877 15.7756C51.0394 15.7359 50.9912 15.6963 50.9409 15.6606C49.8847 14.9013 48.6046 14.5179 47.3049 14.5716C45.7324 14.6304 44.2444 15.2985 43.1557 16.4348C42.067 17.5711 41.463 19.0863 41.4715 20.6599C41.5054 23.6684 43.8972 26.3401 46.9503 26.6074C47.7879 26.6796 48.6313 26.5762 49.4268 26.304C50.2222 26.0317 50.9521 25.5966 51.5698 25.0263C52.1876 24.456 52.6796 23.7632 53.0144 22.992C53.3492 22.2209 53.5195 21.3883 53.5145 20.5476C53.512 20.3189 53.4785 20.0948 53.4451 19.8712L53.4449 19.8702ZM51.645 16.1435C51.6479 16.2223 51.6848 16.2615 51.762 16.2587C51.7579 16.1898 51.7206 16.145 51.645 16.1435ZM38.7999 49.2231C37.7669 49.4715 36.7121 49.6183 35.6506 49.6615C38.7571 48.7348 40.4841 45.9651 40.1402 42.9958C39.9622 41.5579 39.2715 40.2324 38.1949 39.2628C37.1183 38.2932 35.7281 37.7444 34.2795 37.7173C32.8309 37.6902 31.4211 38.1866 30.309 39.1153C29.1969 40.044 28.4572 41.3427 28.2255 42.773C27.8352 45.106 28.7888 48.3801 32.7098 49.6491C32.4431 49.717 32.1978 49.6713 31.9512 49.6254C31.8483 49.6062 31.7453 49.587 31.6404 49.576C29.5865 49.3521 27.5856 48.7807 25.7232 47.8864C23.2178 46.7139 20.9827 45.0347 19.159 42.9548C18.3231 42.0084 17.2394 41.7624 16.0739 42.486C15.0936 43.0956 14.0901 43.6712 13.076 44.2202C11.9318 44.8369 11.4915 46.2984 12.4896 47.4978C16.4089 52.2067 21.2835 55.3898 27.2256 56.9101C27.2507 56.9165 27.2761 56.9223 27.3015 56.9281C27.446 56.9609 27.5912 56.9939 27.6837 57.1454C27.6697 57.1896 27.6559 57.2339 27.642 57.2783C27.61 57.3809 27.5778 57.4842 27.5429 57.5874C27.4188 57.9608 27.2928 58.3334 27.1667 58.706C26.8945 59.5109 26.6223 60.3157 26.3702 61.1271C25.9495 62.487 26.8033 63.7185 28.2166 63.8308H28.6836H39.618C39.7961 63.8397 39.9745 63.8397 40.1526 63.8308C41.5286 63.6918 42.3448 62.4816 41.9634 61.1449C41.9207 60.9952 41.8636 60.8508 41.8156 60.7029C41.4163 59.5141 41.0189 58.3182 40.6268 57.1383C40.7745 56.9933 40.9349 56.9594 41.0913 56.9263C41.131 56.9179 41.1705 56.9096 41.2095 56.8995C47.0698 55.3685 51.8855 52.212 55.7816 47.578C56.8991 46.252 56.3395 44.7745 55.1507 44.1685C54.4428 43.8067 53.7577 43.3993 53.0729 42.9919C52.7456 42.7972 52.4183 42.6026 52.0887 42.4129C51.788 42.2201 51.4472 42.0982 51.0924 42.0565C50.2797 41.9941 49.7075 42.3702 49.1835 42.9476C46.3461 46.0684 42.933 48.2464 38.7999 49.2231Z" fill="white"/>
</svg>
