<svg id="Capa_2" data-name="Capa 2" xmlns="http://www.w3.org/2000/svg" viewBox="0 0 100 100"><defs><style>.cls-1{fill:#fff;}</style></defs><title>ICO_didxwallet</title><path class="cls-1" d="M62.85,27a2.32,2.32,0,0,0,2.51.1,17.54,17.54,0,0,0-3.68-3.62C61.43,25.45,61.73,26.26,62.85,27Z"/><path class="cls-1" d="M61.69,52.32a5.3,5.3,0,0,0,0,2.07,17.88,17.88,0,0,0,3.7-3.62A2.57,2.57,0,0,0,61.69,52.32Z"/><path class="cls-1" d="M37.73,27.3a2.46,2.46,0,0,0,2-2,11,11,0,0,0,0-2.75,18.86,18.86,0,0,0-4.57,4A2.61,2.61,0,0,0,37.73,27.3Z"/><path class="cls-1" d="M33.08,41.16a8.29,8.29,0,0,0,0-4.5A2.26,2.26,0,0,0,31,35.07a18,18,0,0,0,0,7.73A2.36,2.36,0,0,0,33.08,41.16Z"/><path class="cls-1" d="M37.9,50.58a2.46,2.46,0,0,0-2.71.82,18.15,18.15,0,0,0,4.55,3.92c0-.89,0-1.67,0-2.44A2.64,2.64,0,0,0,37.9,50.58Z"/><path class="cls-1" d="M68.07,40.53a2.14,2.14,0,0,0,1.07,1.76,21.29,21.29,0,0,0,0-6.76,2.24,2.24,0,0,0-1.07,1.81C68,38.4,68,39.47,68.07,40.53Z"/><path class="cls-1" d="M39,48.33a5,5,0,0,1,2,1.43A5.14,5.14,0,0,1,42.11,52a7.88,7.88,0,0,1,.1,1.75v2.9a17.15,17.15,0,0,0,3.95,1.26V52.38c-.18,0-.25.14-.35.22-.68.55-1.28.58-1.79.07a1.22,1.22,0,0,1,.09-1.85c0-.06.11-.11.17-.17.68-.68,1.36-1.37,2-2a2.5,2.5,0,0,1,.56-.46,1.2,1.2,0,0,1,.53-.15,1.12,1.12,0,0,1,.54.11,1.24,1.24,0,0,1,.44.35,1.13,1.13,0,0,1,.22.5,4.33,4.33,0,0,1,.05.88v7.47a1.53,1.53,0,0,0,.13.92,17,17,0,0,0,5.08-.36V52.31a6.09,6.09,0,0,1-.55.46,1.07,1.07,0,0,1-.47.22,1.1,1.1,0,0,1-.51,0,1.19,1.19,0,0,1-.68-1.94,36.59,36.59,0,0,1,2.79-2.78,1.17,1.17,0,0,1,1.9.65,3.25,3.25,0,0,1,.08.88v6.42a1.46,1.46,0,0,0,.13.92A12.06,12.06,0,0,0,59.08,56V54.44a12.09,12.09,0,0,1,.14-2.4,5.12,5.12,0,0,1,5.67-4,14,14,0,0,1,1.92.57,15.94,15.94,0,0,0,1.65-3.77c-.15-.1-.25-.18-.37-.25a5,5,0,0,1-2.5-3.9,19,19,0,0,1,0-3.37,5,5,0,0,1,2.57-4.12.45.45,0,0,0,.19-.14.46.46,0,0,0,.11-.22,15,15,0,0,0-1.67-3.66l-.81.33a5.21,5.21,0,0,1-2.07.3,5.07,5.07,0,0,1-2-.55A5.2,5.2,0,0,1,60.25,28a5.12,5.12,0,0,1-1-1.87,6.38,6.38,0,0,1-.21-1.74c0-.85,0-1.71,0-2.54a12.76,12.76,0,0,0-2.55-1.1,1.46,1.46,0,0,0-.1.81v6.43a3.47,3.47,0,0,1-.08,1,1.14,1.14,0,0,1-1.08.91A1.17,1.17,0,0,1,54,29a2.35,2.35,0,0,1-.09-.87V22.26a1.46,1.46,0,0,0-.07-.77c-1,.7-1.63.76-2.14.23s-.47-1,.19-2a7.22,7.22,0,0,0-3.16-.06,1.67,1.67,0,0,0-.08.86V28a7,7,0,0,1,0,.8,1.11,1.11,0,0,1-1.07,1,1.22,1.22,0,0,1-.77-.17A1.18,1.18,0,0,1,46.3,29a2.17,2.17,0,0,1-.1-.87V22.28a2,2,0,0,0-.09-.88,1.54,1.54,0,0,1-1.55.65c-.7-.18-.89-.76-1-1.39a6.11,6.11,0,0,0-1.35.56c0,1.07,0,2.11,0,3.15a7,7,0,0,1-.1,1.44,5.12,5.12,0,0,1-7.92,3.11c-.16-.12-.29-.3-.5-.34a12.87,12.87,0,0,0-1.95,4l.6.21a5,5,0,0,1,3.41,4.68c0,.94,0,1.88,0,2.82A5,5,0,0,1,32.27,45c-.2.06-.43.07-.55.31a16.66,16.66,0,0,0,2,3.94l.49-.35A5.14,5.14,0,0,1,39,48.33ZM58.14,35.54c.32-.39.7-.74,1.06-1.1s1-1,1.49-1.47A1.2,1.2,0,0,1,62,32.6a1.31,1.31,0,0,1,.88,1.23c0,.13,0,.27,0,.4v9.32a3,3,0,0,1-.07.79,1.22,1.22,0,0,1-2.38,0,2.64,2.64,0,0,1-.06-.79V36.81c-.29.25-.42.38-.57.49a1.38,1.38,0,0,1-.83.25,1.33,1.33,0,0,1-.8-.35A1.16,1.16,0,0,1,58.14,35.54Zm-12-.33A4,4,0,0,1,47.55,33a3.92,3.92,0,0,1,6.28,2.21,4,4,0,0,1-.31,2.58,3.91,3.91,0,0,1-1.86,1.82v6H48.34v-6a3.92,3.92,0,0,1-2.17-4.4Zm-8.7.35c.88-.94,1.8-1.84,2.73-2.73a1,1,0,0,1,.6-.3,1,1,0,0,1,.66.12,1.14,1.14,0,0,1,.73,1.06c0,.21,0,.43,0,.64v9.14c0,.22,0,.44,0,.65A1.18,1.18,0,0,1,41,45.29a1.21,1.21,0,0,1-.84-.34,1.3,1.3,0,0,1-.39-.81c0-.21,0-.43,0-.64V36.92c-.31,0-.42.29-.62.41a1.24,1.24,0,0,1-.84.2,1.21,1.21,0,0,1-.77-.38A1.11,1.11,0,0,1,37.47,35.56Z"/><path class="cls-1" d="M50,62.47A23.58,23.58,0,1,0,26.43,38.89,23.6,23.6,0,0,0,50,62.47Zm0-45.14A21.57,21.57,0,1,1,28.43,38.89,21.59,21.59,0,0,1,50,17.33Z"/><path class="cls-1" d="M15.14,76.17a4.2,4.2,0,0,1-4.2,4.2H7.83V72h3.11A4.21,4.21,0,0,1,15.14,76.17Zm-1,0A3.22,3.22,0,0,0,10.94,73H8.81v6.44h2.13A3.22,3.22,0,0,0,14.16,76.17Z"/><path class="cls-1" d="M17,80.37V72h1v8.4Z"/><path class="cls-1" d="M27.29,76.17a4.21,4.21,0,0,1-4.2,4.2H20V72h3.11A4.21,4.21,0,0,1,27.29,76.17Zm-1,0A3.22,3.22,0,0,0,23.09,73H21v6.44h2.14A3.22,3.22,0,0,0,26.31,76.17Z"/><path class="cls-1" d="M34.1,79.37,32,76.93l-2.08,2.44H29l2.54-3-2.54-3h.91L32,75.86l2.08-2.44H35l-2.54,3,2.54,3Z"/><path class="cls-1" d="M44.85,80.37H44.2l-2.05-4.8-2,4.8h-.65L35.87,72h1.07l2.84,6.66,2.37-5.55,2.37,5.55L47.37,72h1.06Z"/><path class="cls-1" d="M48.1,77.71,50.55,72h.64l2.45,5.74.16.38,1,2.28H53.71L53,78.68H48.75L48,80.37H47l1-2.27Zm1.06,0h3.42l-1.71-4Z"/><path class="cls-1" d="M57.77,79.39H64.1v1H56.79V72h1Z"/><path class="cls-1" d="M67.1,79.39h6.34v1H66.13V72h1Z"/><path class="cls-1" d="M76.44,73v2.73h4.09v1H76.44v2.73h6.33v1H75.46V72h7.31v1Z"/><path class="cls-1" d="M92.11,72v1H88.94v7.42H88V73H84.8V72Z"/></svg>