<svg id="Capa_1" data-name="Capa 1" xmlns="http://www.w3.org/2000/svg" viewBox="0 0 26.47 28.35"><defs><style>.cls-1{fill:#dbe4eb;}.cls-2{fill:#ffff32;}</style></defs><title>didx</title><path class="cls-1" d="M13.24,2.63h0A11.55,11.55,0,1,0,24.78,14.18,11.56,11.56,0,0,0,13.24,2.63"/><circle cx="13.24" cy="12.93" r="0.84"/><path class="cls-2" d="M19.57,9.53a1.65,1.65,0,0,1-.86-.26A1.82,1.82,0,0,1,18,7.21l.1-.84.69.5a8.39,8.39,0,0,1,1.75,1.72l.35.47-.52.27a1.55,1.55,0,0,1-.77.2Z"/><path class="cls-1" d="M18.46,7.27a7.92,7.92,0,0,1,1.65,1.62,1.12,1.12,0,0,1-.54.14A1.1,1.1,0,0,1,19,8.85c-.49-.32-.63-.69-.52-1.58m-.78-1.81-.21,1.69a2.32,2.32,0,0,0,1,2.54,2.07,2.07,0,0,0,2.14.08l1-.55-.7-.93a9,9,0,0,0-1.86-1.83l-1.37-1Z"/><path class="cls-2" d="M18,21.17a2.85,2.85,0,0,1,0-1.12,1.63,1.63,0,0,1,1.57-1.19,1.86,1.86,0,0,1,.75.17l.56.27-.37.49a8.2,8.2,0,0,1-1.76,1.72l-.68.5Z"/><path class="cls-1" d="M19.56,19.36a1.25,1.25,0,0,1,.54.13,8.17,8.17,0,0,1-1.65,1.62,2.4,2.4,0,0,1,0-.93,1.14,1.14,0,0,1,1.09-.82m0-1a2.13,2.13,0,0,0-2,1.55,3.3,3.3,0,0,0-.05,1.32l.21,1.68,1.37-1a9.21,9.21,0,0,0,1.86-1.83l.75-1-1.13-.52a2.21,2.21,0,0,0-1-.22Z"/><path class="cls-2" d="M7.45,9.53A1.68,1.68,0,0,1,6.24,9l-.33-.32.29-.36A9.07,9.07,0,0,1,8.37,6.43L9.07,6l.06.82a5.58,5.58,0,0,1,0,1.36A1.6,1.6,0,0,1,7.87,9.47,1.52,1.52,0,0,1,7.45,9.53Z"/><path class="cls-2" d="M8.63,6.86a5,5,0,0,1,0,1.23,1.11,1.11,0,0,1-.87.9,1,1,0,0,1-.3,0,1.2,1.2,0,0,1-.86-.4,8.21,8.21,0,0,1,2-1.77m.88-1.72L8.1,6A9.37,9.37,0,0,0,5.82,8l-.6.71.67.65A2.2,2.2,0,0,0,7.45,10,2.5,2.5,0,0,0,8,10,2.08,2.08,0,0,0,9.6,8.27a5.24,5.24,0,0,0,0-1.42V6.79L9.51,5.14Z"/><path class="cls-2" d="M4.25,16a8.73,8.73,0,0,1,0-3.67l.1-.45L4.8,12A1.49,1.49,0,0,1,6.14,13a4.2,4.2,0,0,1,0,2.28,1.51,1.51,0,0,1-1.32,1.09l-.47.09Z"/><path class="cls-2" d="M4.74,12.46a1,1,0,0,1,.92.72,3.71,3.71,0,0,1,0,2,1.06,1.06,0,0,1-.93.73,8.07,8.07,0,0,1,0-3.46M4,11.36l-.2.89a9.11,9.11,0,0,0,0,3.89l.21.94.95-.17a2.06,2.06,0,0,0,1.71-1.46,4.76,4.76,0,0,0,0-2.54,2,2,0,0,0-1.77-1.44L4,11.36Z"/><path class="cls-2" d="M8.39,22a8.55,8.55,0,0,1-2.16-1.86L6,19.77l.27-.32a1.6,1.6,0,0,1,1.24-.6A1.66,1.66,0,0,1,9.15,20.4c0,.25,0,.48,0,.73v1.28Z"/><path class="cls-2" d="M7.47,19.35a1,1,0,0,1,.35,0,1.2,1.2,0,0,1,.83,1c0,.35,0,.69,0,1.09a8.13,8.13,0,0,1-2-1.75,1.12,1.12,0,0,1,.86-.42m0-1a2.09,2.09,0,0,0-1.63.78l-.53.64.53.64a9.2,9.2,0,0,0,2.29,2l1.52.92V21.14c0-.26,0-.5,0-.75a2.23,2.23,0,0,0-1.53-1.95,2.37,2.37,0,0,0-.65-.09Z"/><path class="cls-2" d="M21.52,16.11a1.45,1.45,0,0,1-.7-1.18q0-.73,0-1.47a1.51,1.51,0,0,1,.69-1.2l.65-.46.13.79a10,10,0,0,1,0,3.18l-.12.77Z"/><path class="cls-1" d="M21.8,12.67a9.56,9.56,0,0,1,0,3,1,1,0,0,1-.48-.78c0-.48,0-1,0-1.43a1,1,0,0,1,.48-.81m.73-1.75-1.31.94a2,2,0,0,0-.9,1.58c0,.52,0,1,0,1.51a2,2,0,0,0,.92,1.58l1.3.86.24-1.54a10.4,10.4,0,0,0,0-3.34l-.25-1.59Z"/><path class="cls-2" d="M13.36,23.34h-.95l-.14-.24a1,1,0,0,1-.13-.61v-3.4a1.66,1.66,0,0,0,0-.32.3.3,0,0,0-.17.11l-.93.93c-.12.12-.14.17-.14.18l0,0a.23.23,0,0,0,.13-.07.61.61,0,0,1,.47-.21H12v3.56l-.59-.11a7.85,7.85,0,0,1-1.89-.6l-.29-.13V20.68a2.31,2.31,0,0,0,0-.54,1.85,1.85,0,0,0-.39-.78,1.87,1.87,0,0,0-.71-.5,2,2,0,0,0-.64-.11H7.26a1.84,1.84,0,0,0-.81.32l-.64.44-.29-.41a8.14,8.14,0,0,1-.93-1.88L4.51,17l.1-.19a.72.72,0,0,1,.51-.38,1.76,1.76,0,0,0,1.24-1.64c0-.43,0-.85,0-1.28a1.76,1.76,0,0,0-1.18-1.61l-.67-.24.07-.45a6.61,6.61,0,0,1,1-2L5.73,9l.3.06a.81.81,0,0,1,.4.21A1.78,1.78,0,0,0,9.22,8.22a2.26,2.26,0,0,0,0-.53c0-.32,0-1.72,0-1.72l.26-.14a3.41,3.41,0,0,1,.71-.29l.54-.15.09.54a1.23,1.23,0,0,0,.06.23h0s.08,0,.2-.15l.55-.59.29.75a1.37,1.37,0,0,1,.07.52V9.57a.28.28,0,0,0,.1-.26V6a1.1,1.1,0,0,1,.1-.63l.11-.19.2,0A2.7,2.7,0,0,1,13.28,5a4.27,4.27,0,0,1,.92.11l.72.15-.41.62a.86.86,0,0,0-.16.29s.09,0,.33-.19l.44-.31.27.47a.85.85,0,0,1,.11.54V9.36a.87.87,0,0,0,0,.2.23.23,0,0,0,.11-.25V6.4a1,1,0,0,1,.12-.62l.19-.33.37.11a5.79,5.79,0,0,1,1.24.53l.27.14V7.67a1.94,1.94,0,0,0,.08.64,1.61,1.61,0,0,0,.33.65,1.56,1.56,0,0,0,.56.46,1.8,1.8,0,0,0,.71.2h.11a1.78,1.78,0,0,0,.61-.11l.35-.14.39-.16.22.36a6.67,6.67,0,0,1,.8,1.76l0,.12,0,.12a.74.74,0,0,1-.16.32.71.71,0,0,1-.3.21,1.77,1.77,0,0,0-.82,1.41,7.48,7.48,0,0,0,0,1.42,1.72,1.72,0,0,0,.88,1.37l.41.29L22,17a7.49,7.49,0,0,1-.79,1.8l-.19.34-.38-.1-.35-.12a3.33,3.33,0,0,0-.45-.13h-.23a1.8,1.8,0,0,0-1.74,1.4,4.8,4.8,0,0,0-.05.86v1.11l-.24.14a5.64,5.64,0,0,1-1.23.55l-.36.12-.21-.32a1,1,0,0,1-.15-.63V19.05a1.06,1.06,0,0,0,0-.27A8.49,8.49,0,0,0,14.36,20a.43.43,0,0,0,.27-.14l.84-.79v4l-.37.1A6.8,6.8,0,0,1,13.36,23.34Zm.12-6.64V14.18l.29-.14a1.19,1.19,0,0,0,.59-.58,1.26,1.26,0,0,0,.1-.83,1.28,1.28,0,0,0-.44-.7,1.24,1.24,0,0,0-1.57,0,1.28,1.28,0,0,0-.44.7,1.31,1.31,0,0,0,.1.83,1.25,1.25,0,0,0,.6.58l.28.14V16.7Zm4.9-.45a1,1,0,0,0,0,.25.19.19,0,0,0,.11-.21v-4.2l.5-.18-.5.05c0-.11,0-.12-.07-.13-.25.23-.43.41-.6.59l-.27.26c-.1.1-.21.2-.3.31a.16.16,0,0,0,.09,0,.1.1,0,0,0,.08,0l.95-.81Zm-9.23,0v.25a.22.22,0,0,0,.1-.21V11.87A10.43,10.43,0,0,0,8,13H8l.1,0a.78.78,0,0,1,.48-.25l.56-.07Z"/><path d="M13.28,5.5a4,4,0,0,1,.81.1c-.29.43-.32.65-.09.89a.47.47,0,0,0,.35.16A1.2,1.2,0,0,0,15,6.39c.07.11,0,.23,0,.34V9.36a1,1,0,0,0,0,.39.52.52,0,0,0,.51.36h0a.51.51,0,0,0,.49-.41,1.49,1.49,0,0,0,0-.42V6.4A.57.57,0,0,1,16.16,6a5.6,5.6,0,0,1,1.14.49c0,.37,0,.75,0,1.13a2.53,2.53,0,0,0,.09.78,2.39,2.39,0,0,0,.43.84,2.46,2.46,0,0,0,.73.59,2.33,2.33,0,0,0,.9.25h.14a2.39,2.39,0,0,0,.79-.14l.36-.15a6.72,6.72,0,0,1,.74,1.64.18.18,0,0,1,0,.1.15.15,0,0,1-.09.06,2.25,2.25,0,0,0-1.15,1.85,8.35,8.35,0,0,0,0,1.5,2.24,2.24,0,0,0,1.12,1.75l.17.11a7.6,7.6,0,0,1-.74,1.68,7.51,7.51,0,0,0-.86-.25,1.67,1.67,0,0,0-.31,0,2.31,2.31,0,0,0-2.23,1.81,5.45,5.45,0,0,0-.06,1.07v.7a5.66,5.66,0,0,1-1.12.51.61.61,0,0,1-.06-.41V19.05a1.72,1.72,0,0,0,0-.39.55.55,0,0,0-.52-.42.5.5,0,0,0-.33.13c-.43.39-.85.81-1.25,1.24a.53.53,0,0,0,.31.87l.12,0,.11,0a.45.45,0,0,0,.21-.1,2.31,2.31,0,0,0,.24-.2v2.48a6.14,6.14,0,0,1-1.6.18H12.7a.71.71,0,0,1-.06-.42V19.07a1.7,1.7,0,0,0,0-.39.52.52,0,0,0-.1-.23.55.55,0,0,0-.19-.15.46.46,0,0,0-.23-.05h0a.44.44,0,0,0-.24.07,1.16,1.16,0,0,0-.25.2l-.91.91-.08.08a.55.55,0,0,0,0,.83.5.5,0,0,0,.36.16.7.7,0,0,0,.44-.19c.05,0,.08-.1.16-.1v2.46a7.44,7.44,0,0,1-1.77-.56v-1.3a3.4,3.4,0,0,0,0-.78,2.38,2.38,0,0,0-.5-1,2.23,2.23,0,0,0-.91-.64,2.33,2.33,0,0,0-.82-.15H7.19a2.26,2.26,0,0,0-1,.41l-.23.16a7.86,7.86,0,0,1-.87-1.77c.05-.11.16-.11.25-.14a2.25,2.25,0,0,0,1.55-2.11c0-.42,0-.84,0-1.26a2.24,2.24,0,0,0-1.53-2.09l-.26-.1a5.88,5.88,0,0,1,.87-1.8c.1,0,.15.1.23.15a2.25,2.25,0,0,0,1.3.41,2.29,2.29,0,0,0,2.24-1.8,3.44,3.44,0,0,0,0-.64c0-.47,0-.93,0-1.41A2.7,2.7,0,0,1,10.36,6c.05.28.13.54.44.62l.14,0a.8.8,0,0,0,.56-.31.94.94,0,0,1,0,.39V9.37a1,1,0,0,0,0,.39.53.53,0,0,0,.5.35h.06a.5.5,0,0,0,.48-.45,2.17,2.17,0,0,0,0-.36V6a.74.74,0,0,1,0-.39,2.67,2.67,0,0,1,.6-.07m-.79,11.7H14V14.5a1.78,1.78,0,0,0,.83-.82A1.7,1.7,0,0,0,15,12.53a1.77,1.77,0,0,0-1.71-1.38,1.76,1.76,0,0,0-1.1.39,1.79,1.79,0,0,0-.62,1,1.82,1.82,0,0,0,.14,1.15,1.78,1.78,0,0,0,.83.82v2.7M8.06,13.57a.56.56,0,0,0,.31-.09c.09-.06.14-.17.28-.19v3.23a.59.59,0,0,0,.18.37A.56.56,0,0,0,9.2,17a.53.53,0,0,0,.54-.52,2.71,2.71,0,0,0,0-.29V12.14a2.62,2.62,0,0,0,0-.28.53.53,0,0,0-.32-.48.46.46,0,0,0-.23-.06H9.12a.46.46,0,0,0-.27.13c-.41.4-.82.8-1.22,1.22a.51.51,0,0,0,0,.72.61.61,0,0,0,.34.17h.07m9.23,0a.55.55,0,0,0,.33-.11l.26-.22v3a1,1,0,0,0,0,.35.55.55,0,0,0,.53.44h0a.56.56,0,0,0,.52-.43,1,1,0,0,0,0-.35V11.91a.58.58,0,0,0-.39-.55l-.18,0a.61.61,0,0,0-.41.19l-.67.66c-.16.17-.33.32-.47.49a.52.52,0,0,0,0,.75.56.56,0,0,0,.35.15h0M11.86,4.49l-.63.68-.08-.41-1.06.3a3.91,3.91,0,0,0-.82.33l-.52.29V6.75c0,.31,0,.61,0,.92a1.79,1.79,0,0,1,0,.48,1.29,1.29,0,0,1-2,.76,1.25,1.25,0,0,0-.64-.33l-.6-.12L5.15,9A6.82,6.82,0,0,0,4.1,11.12L3.88,12l.85.31.06,0,.23.08a1.25,1.25,0,0,1,.84,1.12c0,.44,0,.87,0,1.3A1.26,1.26,0,0,1,5,16a1.16,1.16,0,0,0-.81.63L4,17l.15.41a9.15,9.15,0,0,0,1,2l.58.82.82-.58.22-.15a1.2,1.2,0,0,1,.59-.23h.16a1.21,1.21,0,0,1,.46.08,1.4,1.4,0,0,1,.51.36,1.29,1.29,0,0,1,.28.56,1.84,1.84,0,0,1,0,.43v2.07l.58.27a8.77,8.77,0,0,0,2,.63l.78.15h0l.39.07v-.06h.85a7.33,7.33,0,0,0,1.86-.21l.51-.14,0,0,.71-.22a6.78,6.78,0,0,0,1.35-.6l.48-.29V21a4.47,4.47,0,0,1,0-.76,1.31,1.31,0,0,1,1.25-1h.16a1.77,1.77,0,0,1,.36.11l.38.12.75.21.39-.68a8.29,8.29,0,0,0,.83-1.92l.19-.68L22.06,16l0,0-.16-.11a1.23,1.23,0,0,1-.64-1,6.36,6.36,0,0,1,0-1.31,1.25,1.25,0,0,1,.63-1.05,1.07,1.07,0,0,0,.37-.3,1.19,1.19,0,0,0,.27-.55l0-.24-.07-.23a7.69,7.69,0,0,0-.86-1.89l-.44-.71-.78.32L20.23,9,20,9a1.42,1.42,0,0,1-.45.08h-.08A1.29,1.29,0,0,1,19,9a1.26,1.26,0,0,1-.4-.33,1.11,1.11,0,0,1-.24-.47,2.07,2.07,0,0,1-.06-.5V5.93l-.53-.29a7,7,0,0,0-1.35-.57l-.74-.2,0,0-1.34-.3a4.59,4.59,0,0,0-1-.12h0a3.67,3.67,0,0,0-.85.1L12,4.71l0,.08-.11-.3Zm1.38,9.25-.32-.15a.76.76,0,0,1-.36-.35.72.72,0,0,1-.06-.5.77.77,0,0,1,.26-.42.78.78,0,0,1,.48-.17.73.73,0,0,1,.47.17.75.75,0,0,1,.2.92.74.74,0,0,1-.35.35l-.32.15Z"/><path class="cls-2" d="M23.78,14.18A10.56,10.56,0,0,0,13.24,3.63V24.72A10.55,10.55,0,0,0,23.78,14.18Z"/><path d="M9.42,11.38a.45.45,0,0,0-.3-.05.46.46,0,0,0-.27.13c-.41.4-.82.8-1.22,1.22a.51.51,0,0,0,0,.72.56.56,0,0,0,.72.08c.09-.06.14-.17.28-.19v3.23a.59.59,0,0,0,.18.37A.56.56,0,0,0,9.2,17a.53.53,0,0,0,.54-.52,2.71,2.71,0,0,0,0-.29V12.14a2.62,2.62,0,0,0,0-.28A.53.53,0,0,0,9.42,11.38Z"/><path d="M3.59,14.18a9.66,9.66,0,0,0,9.65,9.64v-1H12.7a.71.71,0,0,1-.06-.42V19.07a1.7,1.7,0,0,0,0-.39.52.52,0,0,0-.1-.23.55.55,0,0,0-.19-.15.53.53,0,0,0-.25-.05.44.44,0,0,0-.24.07,1.16,1.16,0,0,0-.25.2l-.91.91-.08.08a.55.55,0,1,0,.76.8c.05,0,.08-.1.16-.1v2.46a7.44,7.44,0,0,1-1.77-.56v-1.3a3.4,3.4,0,0,0,0-.78,2.48,2.48,0,0,0-.5-1,2.3,2.3,0,0,0-.91-.63,2.35,2.35,0,0,0-1.11-.14,2.26,2.26,0,0,0-1,.41l-.23.16a7.86,7.86,0,0,1-.87-1.77c.05-.11.16-.11.25-.14a2.25,2.25,0,0,0,1.55-2.11c0-.42,0-.84,0-1.26a2.24,2.24,0,0,0-1.53-2.09l-.26-.1a5.88,5.88,0,0,1,.87-1.8c.1,0,.15.1.23.15A2.29,2.29,0,0,0,9.71,8.32a3.44,3.44,0,0,0,0-.64c0-.47,0-.93,0-1.41A2.7,2.7,0,0,1,10.36,6c.05.28.13.54.44.62a.69.69,0,0,0,.7-.29.94.94,0,0,1,0,.39V9.37a1,1,0,0,0,0,.39.53.53,0,0,0,.22.27.51.51,0,0,0,.34.08.5.5,0,0,0,.48-.45,2.17,2.17,0,0,0,0-.36V6a.74.74,0,0,1,0-.39,3,3,0,0,1,.56-.06v-1A9.66,9.66,0,0,0,3.59,14.18ZM7.82,19.4a1.2,1.2,0,0,1,.83,1c0,.35,0,.69,0,1.09a8.13,8.13,0,0,1-2-1.75A1.1,1.1,0,0,1,7.82,19.4ZM5.66,13.18a3.71,3.71,0,0,1,0,2,1.06,1.06,0,0,1-.93.73,8.07,8.07,0,0,1,0-3.46A1,1,0,0,1,5.66,13.18Zm3-6.32a5,5,0,0,1,0,1.23,1.11,1.11,0,0,1-.87.9,1.16,1.16,0,0,1-1.16-.36A8.21,8.21,0,0,1,8.63,6.86Z"/><path d="M11.52,12.53a1.82,1.82,0,0,0,.14,1.15,1.78,1.78,0,0,0,.83.82v2.7h.75v-6a1.76,1.76,0,0,0-1.1.39A1.79,1.79,0,0,0,11.52,12.53Z"/><path d="M19,8.85a1.07,1.07,0,0,0,1.13,0,7.92,7.92,0,0,0-1.65-1.62C18.35,8.16,18.49,8.53,19,8.85Z"/><path d="M18.47,20.18a2.4,2.4,0,0,0,0,.93,8.17,8.17,0,0,0,1.65-1.62A1.15,1.15,0,0,0,18.47,20.18Z"/><path class="cls-2" d="M7.75,9a1.11,1.11,0,0,0,.87-.9,5,5,0,0,0,0-1.23,8.21,8.21,0,0,0-2,1.77A1.16,1.16,0,0,0,7.75,9Z"/><path class="cls-2" d="M4.74,15.92a1.06,1.06,0,0,0,.93-.73,3.71,3.71,0,0,0,0-2,1,1,0,0,0-.92-.72A8.07,8.07,0,0,0,4.74,15.92Z"/><path class="cls-2" d="M8.65,21.52c0-.4,0-.74,0-1.09a1.2,1.2,0,0,0-.83-1,1.1,1.1,0,0,0-1.21.37A8.13,8.13,0,0,0,8.65,21.52Z"/><path d="M21.32,14.91a1,1,0,0,0,.48.78,9.56,9.56,0,0,0,0-3,1,1,0,0,0-.48.81C21.3,14,21.3,14.43,21.32,14.91Z"/><path d="M15,22.66V20.18a2.31,2.31,0,0,1-.24.2.45.45,0,0,1-.21.1.45.45,0,0,1-.23,0,.53.53,0,0,1-.31-.87c.4-.43.82-.85,1.25-1.24a.52.52,0,0,1,.85.29,1.72,1.72,0,0,1,0,.39v2.88a.61.61,0,0,0,.06.41,5.66,5.66,0,0,0,1.12-.51v-.7a5.45,5.45,0,0,1,.06-1.07,2.3,2.3,0,0,1,2.54-1.79,7.51,7.51,0,0,1,.86.25,7.6,7.6,0,0,0,.74-1.68l-.17-.11A2.24,2.24,0,0,1,20.21,15a8.35,8.35,0,0,1,0-1.5,2.25,2.25,0,0,1,1.15-1.85.15.15,0,0,0,.09-.06.18.18,0,0,0,0-.1,6.72,6.72,0,0,0-.74-1.64l-.36.15a2.29,2.29,0,0,1-.93.14,2.33,2.33,0,0,1-.9-.25,2.46,2.46,0,0,1-.73-.59,2.39,2.39,0,0,1-.43-.84,2.53,2.53,0,0,1-.09-.78c0-.38,0-.76,0-1.13A5.6,5.6,0,0,0,16.16,6a.57.57,0,0,0-.05.36V9.28a1.49,1.49,0,0,1,0,.42.51.51,0,0,1-.49.41A.52.52,0,0,1,15,9.75a1,1,0,0,1,0-.39V6.73c0-.11,0-.23,0-.34-.45.31-.72.34-1,.1s-.2-.46.09-.89a3.62,3.62,0,0,0-.85-.09v5.64h0A1.77,1.77,0,0,1,15,12.53a1.7,1.7,0,0,1-.14,1.15,1.78,1.78,0,0,1-.83.82v2.7h-.74v5.64A6.33,6.33,0,0,0,15,22.66Zm1.91-10c.14-.17.31-.32.47-.49l.67-.66a.54.54,0,0,1,.59-.16.58.58,0,0,1,.39.55v4.35a1,1,0,0,1,0,.35.54.54,0,0,1-1.06,0,1,1,0,0,1,0-.35v-3l-.26.22a.53.53,0,0,1-.37.11.56.56,0,0,1-.35-.15A.52.52,0,0,1,16.88,12.67Z"/><path d="M3.59,14.18a9.66,9.66,0,0,1,9.65-9.65v-.9a10.55,10.55,0,1,0,0,21.09v-.9A9.66,9.66,0,0,1,3.59,14.18Z"/><path d="M13.24,12.15a.76.76,0,0,1,0,1.51"/><path class="cls-2" d="M13.24,13.66a.76.76,0,1,1,0-1.51"/></svg>