<svg width="42" height="61" viewBox="0 0 42 61" fill="none" xmlns="http://www.w3.org/2000/svg">
<path fill-rule="evenodd" clip-rule="evenodd" d="M20.4507 34.331C9.18285 34.0602 0.149902 26.4803 0.149902 17.1693C0.149902 7.68695 9.51837 0 21.075 0C32.6315 0 42 7.68695 42 17.1693C42 26.2723 33.366 33.7208 22.4507 34.302L22.4507 28.9389L31.1687 28.9389C32.8729 28.9389 34.2545 27.5574 34.2545 25.8531V18.9232C36.7363 18.4708 38.6177 16.2979 38.6177 13.6856C38.6177 10.7452 36.234 8.3615 33.2936 8.3615C30.3532 8.36149 27.9695 10.7452 27.9695 13.6856C27.9695 16.2704 29.8116 18.425 32.2545 18.9083V25.8531C32.2545 26.4528 31.7684 26.9389 31.1687 26.9389L22.4507 26.9389V18.9232C24.9324 18.4708 26.8138 16.2979 26.8138 13.6856C26.8138 10.7452 24.4302 8.36149 21.4898 8.36149C18.5493 8.36149 16.1657 10.7452 16.1657 13.6856C16.1657 16.2704 18.0077 18.425 20.4507 18.9083V26.9389L11.909 26.9389C11.3093 26.9389 10.8232 26.4528 10.8232 25.8531L10.8232 18.9574C13.2171 18.4364 15.01 16.3051 15.01 13.755C15.01 10.8146 12.6263 8.43092 9.68588 8.43092C6.74547 8.43092 4.36179 10.8146 4.36179 13.755C4.36179 16.4017 6.29302 18.5973 8.82316 19.0096L8.82316 25.8531C8.82316 27.5574 10.2047 28.9389 11.909 28.9389L20.4507 28.9389L20.4507 34.331ZM33.2936 16.0097C34.5772 16.0097 35.6177 14.9691 35.6177 13.6856C35.6177 12.402 34.5772 11.3615 33.2936 11.3615C32.0101 11.3615 30.9695 12.402 30.9695 13.6856C30.9695 14.9691 32.0101 16.0097 33.2936 16.0097ZM12.01 13.755C12.01 15.0386 10.9694 16.0791 9.68588 16.0791C8.40232 16.0791 7.36179 15.0386 7.36179 13.755C7.36179 12.4714 8.40232 11.4309 9.68588 11.4309C10.9694 11.4309 12.01 12.4715 12.01 13.755ZM21.4898 16.0097C22.7733 16.0097 23.8138 14.9691 23.8138 13.6856C23.8138 12.402 22.7733 11.3615 21.4898 11.3615C20.2062 11.3615 19.1657 12.402 19.1657 13.6856C19.1657 14.9691 20.2062 16.0097 21.4898 16.0097ZM26.6606 57.748C26.8595 57.5987 26.8892 57.4689 26.8892 57.4098V50.9713C26.8892 50.9122 26.8595 50.7824 26.6606 50.6331C26.4613 50.4837 26.1402 50.3617 25.743 50.3617H17.1584C16.7612 50.3617 16.4401 50.4837 16.2408 50.6331C16.0418 50.7824 16.0122 50.9122 16.0122 50.9713L16.0122 57.4098C16.0122 57.4689 16.0418 57.5987 16.2408 57.748C16.4401 57.8974 16.7612 58.0194 17.1584 58.0194H25.743C26.1402 58.0194 26.4613 57.8974 26.6606 57.748ZM27.8606 59.348C27.2831 59.7811 26.5311 60.0194 25.743 60.0194H17.1584C16.3703 60.0194 15.6183 59.7811 15.0408 59.348C14.463 58.9146 14.0122 58.2396 14.0122 57.4098L14.0122 50.9713C14.0122 50.1415 14.463 49.4665 15.0408 49.0331C15.6183 48.6 16.3703 48.3617 17.1584 48.3617H20.4506V35.4116V34.4116H22.4506V35.4116V48.3617H25.743C26.5311 48.3617 27.2831 48.6 27.8606 49.0331C28.4384 49.4665 28.8892 50.1415 28.8892 50.9713V57.4098C28.8892 58.2396 28.4384 58.9146 27.8606 59.348Z" fill="white"/>
</svg>
