<svg id="Capa_1" data-name="Capa 1" xmlns="http://www.w3.org/2000/svg" viewBox="0 0 26.47 28.35"><defs><style>.cls-1{fill:#dbe4eb;}.cls-2{fill:#ffff32;}.cls-3{fill:none;}</style></defs><title>2023-08_DisneyOnIce_Mesa de trabajo 1</title><path d="M13.24,26.08a11.91,11.91,0,1,1,11.9-11.92v0A11.92,11.92,0,0,1,13.24,26.08Z"/><path class="cls-1" d="M13.24,2.77A11.41,11.41,0,1,1,1.83,14.18,11.41,11.41,0,0,1,13.24,2.77m0-1a12.41,12.41,0,1,0,12.4,12.42h0A12.43,12.43,0,0,0,13.24,1.77Z"/><path class="cls-2" d="M13.57,2.77a11.41,11.41,0,1,0-.67,22.81c.22,0,.45,0,.67,0"/><path d="M13.24,25.58a11.41,11.41,0,0,0,0-22.81"/><path class="cls-2" d="M15.2,12.75a2,2,0,0,0-2-2v3.63h0v3.14H14v-3A2,2,0,0,0,15.2,12.75Z"/><path d="M11.27,12.75a2,2,0,0,0,1.11,1.76v3h.86V10.79A2,2,0,0,0,11.27,12.75Z"/><path class="cls-3" d="M5,7.77A1.38,1.38,0,0,0,6.41,6.42V5.06A11.38,11.38,0,0,0,4.05,7.45a1.37,1.37,0,0,0,.87.32Z"/><path class="cls-3" d="M3.44,14.88V13.47a1.38,1.38,0,0,0-1.38-1.38H2a12.23,12.23,0,0,0-.2,2.09A12.11,12.11,0,0,0,2,16.26H2a1.38,1.38,0,0,0,1.44-1.32Z"/><path class="cls-3" d="M21.44,7.77h.12a1.45,1.45,0,0,0,.87-.32,11.67,11.67,0,0,0-2.37-2.39V6.39A1.38,1.38,0,0,0,21.44,7.77Z"/><path class="cls-3" d="M21.44,20.39a1.38,1.38,0,0,0-1.38,1.38v1.51a11.39,11.39,0,0,0,2.45-2.5,1.39,1.39,0,0,0-1-.39Z"/><path class="cls-3" d="M6.41,21.77A1.38,1.38,0,0,0,5,20.39H4.92a1.39,1.39,0,0,0-1,.39,11.13,11.13,0,0,0,2.44,2.5v-.1Z"/><path class="cls-3" d="M23,13.47v1.41a1.38,1.38,0,0,0,1.38,1.38h0a10.84,10.84,0,0,0,0-4.17h0A1.38,1.38,0,0,0,23,13.47Z"/><path class="cls-3" d="M15.44,25.23V21.39c-.17,0-.22.16-.33.22a.7.7,0,0,1-.37.11h-.07a.72.72,0,0,1-.42-.2.6.6,0,0,1,0-.83l0,0c.46-.5.95-1,1.44-1.45a.58.58,0,0,1,.32-.16h.09a.64.64,0,0,1,.27.07.62.62,0,0,1,.38.57V25a11.1,11.1,0,0,0,2.19-1,2.57,2.57,0,0,1-.15-.87v-1.4a2.68,2.68,0,0,1,2.67-2.68h.12a2.65,2.65,0,0,1,1.66.59,13.12,13.12,0,0,0,.92-2.15,2.67,2.67,0,0,1-2.4-2.65V13.47a2.68,2.68,0,0,1,2.4-2.65,11.28,11.28,0,0,0-1-2.28,2.72,2.72,0,0,1-1.58.52h-.12a2.69,2.69,0,0,1-2.67-2.67V5a2.83,2.83,0,0,1,.1-.71,11.22,11.22,0,0,0-2.13-.94V8.46a.63.63,0,0,1-.64.62.72.72,0,0,1-.44-.18.62.62,0,0,1-.21-.44V4.63c-.17,0-.22.15-.33.22a.7.7,0,0,1-.37.11H14.7a.62.62,0,0,1-.42-.2.6.6,0,0,1,0-.83l0,0c.3-.32.63-.64,1-1a10.53,10.53,0,0,0-1.94-.18,11.91,11.91,0,0,0-1.69.14h0V8.46a.63.63,0,0,1-.64.62h0a.72.72,0,0,1-.44-.18.68.68,0,0,1-.21-.44,1.93,1.93,0,0,1,0-.34V4.63c-.17,0-.23.15-.34.22A.72.72,0,0,1,9.55,5H9.48a.65.65,0,0,1-.63-.65.69.69,0,0,1,.2-.45l.52-.51a11.46,11.46,0,0,0-2,.88A2.62,2.62,0,0,1,7.71,5V6.39A2.68,2.68,0,0,1,5,9.06h-.1a2.65,2.65,0,0,1-1.58-.52,10.53,10.53,0,0,0-1,2.28,2.67,2.67,0,0,1,2.39,2.65v1.41a2.67,2.67,0,0,1-2.39,2.65,11,11,0,0,0,.92,2.15,2.65,2.65,0,0,1,1.66-.59H5a2.68,2.68,0,0,1,2.68,2.68h0v1.41a2.58,2.58,0,0,1-.16.87,11.48,11.48,0,0,0,2.71,1.12V21.39c-.17,0-.23.16-.34.22a.7.7,0,0,1-.37.11h0a.69.69,0,0,1-.41-.2.6.6,0,0,1,0-.85h0c.47-.5.95-1,1.45-1.45a.58.58,0,0,1,.32-.16h.08a.64.64,0,0,1,.27.07.61.61,0,0,1,.38.57v5.54a1.46,1.46,0,0,1-.05.2,10.22,10.22,0,0,0,1.74.15,11.87,11.87,0,0,0,2.23-.22A.58.58,0,0,1,15.44,25.23ZM17.05,12.4c.46-.5.95-1,1.44-1.45a.58.58,0,0,1,.32-.16h.09a.52.52,0,0,1,.27.07.62.62,0,0,1,.38.57V17a.63.63,0,0,1-.64.61.67.67,0,0,1-.44-.18.59.59,0,0,1-.21-.43V13.13c-.17,0-.22.16-.33.22a.7.7,0,0,1-.37.11h-.07a.72.72,0,0,1-.42-.2.6.6,0,0,1-.05-.83ZM8.87,16.61V17a.63.63,0,0,1-.64.61.67.67,0,0,1-.45-.18.64.64,0,0,1-.2-.43V13.12c-.17,0-.23.16-.33.22a.7.7,0,0,1-.37.11H6.79a.72.72,0,0,1-.41-.2.6.6,0,0,1,0-.85h0c.47-.5,1-1,1.45-1.45a.58.58,0,0,1,.32-.16h.08a.52.52,0,0,1,.27.07.63.63,0,0,1,.39.57v5.19Z"/><path class="cls-2" d="M16.74,20v-.34a.62.62,0,0,0-.38-.57.64.64,0,0,0-.27-.07H16a.58.58,0,0,0-.32.16c-.49.47-1,1-1.44,1.45a.6.6,0,0,0,0,.83l0,0a.72.72,0,0,0,.42.2h.07a.7.7,0,0,0,.37-.11c.11-.06.16-.2.33-.22v4a11.74,11.74,0,0,0,1.3-.32V20Z"/><path d="M8.48,10.85a.52.52,0,0,0-.27-.07H8.13a.58.58,0,0,0-.32.16c-.49.47-1,1-1.45,1.45a.6.6,0,0,0,0,.85h0a.72.72,0,0,0,.41.2h.08a.7.7,0,0,0,.37-.11c.1-.06.16-.2.33-.22V17a.64.64,0,0,0,.2.43.67.67,0,0,0,.45.18A.63.63,0,0,0,8.87,17V11.42A.63.63,0,0,0,8.48,10.85Z"/><path class="cls-2" d="M17.48,13.45h.07a.7.7,0,0,0,.37-.11c.11-.06.16-.2.33-.22V17a.59.59,0,0,0,.21.43.67.67,0,0,0,.44.18.63.63,0,0,0,.64-.61V11.42a.62.62,0,0,0-.38-.57.52.52,0,0,0-.27-.07H18.8a.58.58,0,0,0-.32.16c-.49.47-1,1-1.44,1.45a.6.6,0,0,0,0,.83l0,0A.73.73,0,0,0,17.48,13.45Z"/><path d="M11.56,24.88V19.66a.61.61,0,0,0-.38-.57.64.64,0,0,0-.27-.07h-.08a.58.58,0,0,0-.32.16c-.5.47-1,1-1.45,1.45a.6.6,0,0,0,0,.85h0a.69.69,0,0,0,.41.2h.07a.7.7,0,0,0,.37-.11c.11-.06.17-.2.34-.22v3.78a10.5,10.5,0,0,0,1.24.26,1.46,1.46,0,0,0,0-.2A1.37,1.37,0,0,0,11.56,24.88Z"/><path d="M9.07,4.75a.6.6,0,0,0,.41.2h.07a.7.7,0,0,0,.37-.11c.11-.07.17-.2.34-.22v3.5a1.93,1.93,0,0,0,0,.34.68.68,0,0,0,.21.44.72.72,0,0,0,.44.18.63.63,0,0,0,.64-.62h0V2.92h0a11.42,11.42,0,0,0-2,.48L9,3.91A.6.6,0,0,0,9.07,4.75Z"/><path d="M5,9.06A2.68,2.68,0,0,0,7.71,6.41V5a2.84,2.84,0,0,0-.11-.71,13.63,13.63,0,0,0-1.19.79V6.39A1.38,1.38,0,0,1,5,7.77H4.92a1.37,1.37,0,0,1-.87-.32,9.69,9.69,0,0,0-.71,1.09,2.65,2.65,0,0,0,1.58.52Z"/><path class="cls-2" d="M18.77,6.39a2.69,2.69,0,0,0,2.67,2.67h.12a2.72,2.72,0,0,0,1.58-.52c-.22-.38-.46-.74-.71-1.09a1.45,1.45,0,0,1-.87.32h-.12a1.38,1.38,0,0,1-1.38-1.38V5.06a11.69,11.69,0,0,0-1.19-.79,2.83,2.83,0,0,0-.1.71Z"/><path d="M7.71,21.77A2.68,2.68,0,0,0,5,19.09H4.92a2.65,2.65,0,0,0-1.66.59,9.73,9.73,0,0,0,.7,1.1,1.39,1.39,0,0,1,1-.39H5a1.38,1.38,0,0,1,1.38,1.38v1.51a11,11,0,0,0,1.15.77,2.58,2.58,0,0,0,.16-.87Z"/><path class="cls-2" d="M21.44,19.09a2.68,2.68,0,0,0-2.67,2.68v1.41a2.57,2.57,0,0,0,.15.87,11,11,0,0,0,1.15-.77V21.77a1.38,1.38,0,0,1,1.38-1.38h.12a1.39,1.39,0,0,1,1,.39,11.38,11.38,0,0,0,.7-1.1,2.65,2.65,0,0,0-1.66-.59Z"/><path d="M4.73,14.88V13.47a2.67,2.67,0,0,0-2.39-2.65A11.33,11.33,0,0,0,2,12.09H2a1.38,1.38,0,0,1,1.38,1.38h0v1.41A1.38,1.38,0,0,1,2,16.26H2a11.19,11.19,0,0,0,.31,1.27A2.67,2.67,0,0,0,4.73,14.88Z"/><path class="cls-2" d="M21.74,13.47v1.41a2.67,2.67,0,0,0,2.4,2.65c.12-.42.22-.84.3-1.27h0A1.38,1.38,0,0,1,23,14.94V13.47a1.38,1.38,0,0,1,1.38-1.38h0c-.08-.43-.18-.85-.3-1.27A2.68,2.68,0,0,0,21.74,13.47Z"/><path class="cls-2" d="M14.24,4.75a.62.62,0,0,0,.42.2h.07a.7.7,0,0,0,.37-.11c.11-.07.16-.2.33-.22V8.46a.62.62,0,0,0,.21.44.72.72,0,0,0,.44.18.63.63,0,0,0,.64-.62V3.33A10,10,0,0,0,15.18,3c-.32.31-.65.63-.95,1A.59.59,0,0,0,14.24,4.75Z"/></svg>